<svg width="182" height="43" viewBox="0 0 182 43" fill="none" xmlns="http://www.w3.org/2000/svg">
<mask id="path-1-inside-1_376_5591" fill="white">
<path fill-rule="evenodd" clip-rule="evenodd" d="M39.7264 2.58845L37.144 5.17691L44.1116 12.0567C50.9893 18.8476 51.102 18.936 52.8874 18.936C54.6729 18.936 54.7856 18.8476 61.6633 12.0567L68.6309 5.17691L66.0485 2.58845L63.4666 0L58.1768 5.24398L52.8874 10.488L47.5981 5.24398L42.3083 0L39.7264 2.58845ZM7.95455 8.13367C7.10302 11.6982 4.96466 20.541 3.20319 27.7837L0 40.9523L5.39249 41.0675C9.32463 41.1519 10.8703 41.0457 11.1002 40.6757C11.2737 40.3967 11.5388 39.2803 11.6891 38.1943L11.9625 36.2198H15.6105H19.2585L19.5468 38.6889L19.835 41.158H25.3857C29.4935 41.158 30.9364 41.0268 30.9364 40.6531C30.9364 40.1297 23.1939 3.64441 22.8129 2.37241C22.6195 1.72591 21.927 1.65225 16.0499 1.65225H9.50272L7.95455 8.13367ZM77.3235 21.4051V41.1729L87.3671 41.0626L97.4107 40.9523V36.4256V31.8989L92.7513 31.7824L88.0919 31.666V28.7989V25.9319H92.2336H96.3753V21.42V16.9081L92.3371 16.7904L88.299 16.6727L88.1768 13.9085L88.0546 11.1443L92.7327 11.0279L97.4107 10.9114V6.38471V1.85801L87.3671 1.74772L77.3235 1.63743V21.4051ZM99.6887 21.4051V41.158H109.215H118.74V36.4256V31.6931H114.599H110.457V16.6727V1.65225H105.073H99.6887V21.4051ZM129.545 3.19544C129.319 4.04441 127.733 10.5719 126.019 17.7015C124.305 24.831 122.339 32.9441 121.65 35.7305C120.961 38.5165 120.397 40.8778 120.397 40.9774C120.397 41.0766 122.889 41.158 125.935 41.158H131.472L131.961 38.6889L132.45 36.2198H135.963C139.818 36.2198 139.646 36.0947 140.065 39.2033L140.328 41.158H145.894C148.955 41.158 151.46 41.0556 151.46 40.9305C151.46 40.8054 151.184 39.463 150.847 37.947C149.737 32.9569 143.177 2.10574 143.177 1.87652C143.177 1.75307 140.202 1.65225 136.566 1.65225H129.955L129.545 3.19544ZM153.945 21.3562V41.158H159.122H164.299V33.4626C164.299 29.2302 164.453 25.9434 164.641 26.1582C164.83 26.3734 166.17 29.7627 167.619 33.6906C169.069 37.6186 170.462 40.9115 170.715 41.0078C170.968 41.1041 173.611 41.1313 176.587 41.0675L182 40.9523L178.097 32.9277C174.597 25.7314 174.268 24.8607 174.909 24.4915C178.439 22.4582 180.253 19.1632 180.231 14.8208C180.211 10.8859 179.091 8.06289 176.557 5.56085C173.405 2.44689 171.665 1.99463 161.918 1.75266L153.945 1.55472V21.3562ZM33.5387 8.59374L31.3775 10.9114L36.6387 16.1583L41.8999 21.4051L36.5269 26.7557L31.1535 32.1063L33.7491 34.6774L36.3447 37.2486L43.3735 30.2067C52.6886 20.8751 52.6816 22.2175 43.4605 13.0674C39.6427 9.27892 36.3343 6.20076 36.109 6.22751C35.8837 6.25467 34.7269 7.31927 33.5387 8.59374ZM62.3053 13.0764C53.1297 22.2047 53.1215 20.8302 62.4076 30.1717L69.4426 37.2486L72.032 34.6774L74.6214 32.1063L69.248 26.7557L63.875 21.4051L69.253 16.0245L74.6314 10.6443L72.1464 8.41227C70.7796 7.18471 69.5661 6.18019 69.4497 6.17978C69.3333 6.17936 66.1181 9.28263 62.3053 13.0764ZM167.617 11.3254C170.935 13.0303 169.712 19.027 165.852 19.9788L164.713 20.2599V15.4826C164.713 10.9415 164.755 10.7057 165.562 10.7057C166.029 10.7057 166.954 10.9847 167.617 11.3254ZM16.6215 18.1336C16.964 20.9512 17.369 24.2294 17.5215 25.4175L17.7985 27.5779H15.6697C14.4993 27.5779 13.5413 27.522 13.5413 27.4536C13.5413 27.3849 14.0064 24.5611 14.5751 21.178C15.1437 17.7945 15.6097 14.4867 15.6105 13.8262C15.6138 11.4254 16.0122 13.1229 16.6215 18.1336ZM138.183 27.2693C138.196 27.4388 137.275 27.5779 136.136 27.5779C134.636 27.5779 134.065 27.4187 134.065 27.0014C134.065 26.6845 134.418 24.3236 134.849 21.7545C135.281 19.1858 135.777 16.1583 135.95 15.0266C136.242 13.1291 136.34 13.513 137.213 19.9648C137.733 23.8125 138.17 27.0997 138.183 27.2693ZM44.2532 30.9359L37.069 37.984L39.593 40.4918L42.1174 43L47.5024 37.661L52.8874 32.3223L58.2725 37.661L63.6575 43L66.1475 40.526L68.6371 38.0523L61.4604 30.9631C54.9459 24.5286 54.1519 23.8751 52.8605 23.8813C51.5783 23.8878 50.7292 24.5833 44.2532 30.9359Z"/>
</mask>
<path fill-rule="evenodd" clip-rule="evenodd" d="M39.7264 2.58845L37.144 5.17691L44.1116 12.0567C50.9893 18.8476 51.102 18.936 52.8874 18.936C54.6729 18.936 54.7856 18.8476 61.6633 12.0567L68.6309 5.17691L66.0485 2.58845L63.4666 0L58.1768 5.24398L52.8874 10.488L47.5981 5.24398L42.3083 0L39.7264 2.58845ZM7.95455 8.13367C7.10302 11.6982 4.96466 20.541 3.20319 27.7837L0 40.9523L5.39249 41.0675C9.32463 41.1519 10.8703 41.0457 11.1002 40.6757C11.2737 40.3967 11.5388 39.2803 11.6891 38.1943L11.9625 36.2198H15.6105H19.2585L19.5468 38.6889L19.835 41.158H25.3857C29.4935 41.158 30.9364 41.0268 30.9364 40.6531C30.9364 40.1297 23.1939 3.64441 22.8129 2.37241C22.6195 1.72591 21.927 1.65225 16.0499 1.65225H9.50272L7.95455 8.13367ZM77.3235 21.4051V41.1729L87.3671 41.0626L97.4107 40.9523V36.4256V31.8989L92.7513 31.7824L88.0919 31.666V28.7989V25.9319H92.2336H96.3753V21.42V16.9081L92.3371 16.7904L88.299 16.6727L88.1768 13.9085L88.0546 11.1443L92.7327 11.0279L97.4107 10.9114V6.38471V1.85801L87.3671 1.74772L77.3235 1.63743V21.4051ZM99.6887 21.4051V41.158H109.215H118.74V36.4256V31.6931H114.599H110.457V16.6727V1.65225H105.073H99.6887V21.4051ZM129.545 3.19544C129.319 4.04441 127.733 10.5719 126.019 17.7015C124.305 24.831 122.339 32.9441 121.65 35.7305C120.961 38.5165 120.397 40.8778 120.397 40.9774C120.397 41.0766 122.889 41.158 125.935 41.158H131.472L131.961 38.6889L132.45 36.2198H135.963C139.818 36.2198 139.646 36.0947 140.065 39.2033L140.328 41.158H145.894C148.955 41.158 151.46 41.0556 151.46 40.9305C151.46 40.8054 151.184 39.463 150.847 37.947C149.737 32.9569 143.177 2.10574 143.177 1.87652C143.177 1.75307 140.202 1.65225 136.566 1.65225H129.955L129.545 3.19544ZM153.945 21.3562V41.158H159.122H164.299V33.4626C164.299 29.2302 164.453 25.9434 164.641 26.1582C164.83 26.3734 166.17 29.7627 167.619 33.6906C169.069 37.6186 170.462 40.9115 170.715 41.0078C170.968 41.1041 173.611 41.1313 176.587 41.0675L182 40.9523L178.097 32.9277C174.597 25.7314 174.268 24.8607 174.909 24.4915C178.439 22.4582 180.253 19.1632 180.231 14.8208C180.211 10.8859 179.091 8.06289 176.557 5.56085C173.405 2.44689 171.665 1.99463 161.918 1.75266L153.945 1.55472V21.3562ZM33.5387 8.59374L31.3775 10.9114L36.6387 16.1583L41.8999 21.4051L36.5269 26.7557L31.1535 32.1063L33.7491 34.6774L36.3447 37.2486L43.3735 30.2067C52.6886 20.8751 52.6816 22.2175 43.4605 13.0674C39.6427 9.27892 36.3343 6.20076 36.109 6.22751C35.8837 6.25467 34.7269 7.31927 33.5387 8.59374ZM62.3053 13.0764C53.1297 22.2047 53.1215 20.8302 62.4076 30.1717L69.4426 37.2486L72.032 34.6774L74.6214 32.1063L69.248 26.7557L63.875 21.4051L69.253 16.0245L74.6314 10.6443L72.1464 8.41227C70.7796 7.18471 69.5661 6.18019 69.4497 6.17978C69.3333 6.17936 66.1181 9.28263 62.3053 13.0764ZM167.617 11.3254C170.935 13.0303 169.712 19.027 165.852 19.9788L164.713 20.2599V15.4826C164.713 10.9415 164.755 10.7057 165.562 10.7057C166.029 10.7057 166.954 10.9847 167.617 11.3254ZM16.6215 18.1336C16.964 20.9512 17.369 24.2294 17.5215 25.4175L17.7985 27.5779H15.6697C14.4993 27.5779 13.5413 27.522 13.5413 27.4536C13.5413 27.3849 14.0064 24.5611 14.5751 21.178C15.1437 17.7945 15.6097 14.4867 15.6105 13.8262C15.6138 11.4254 16.0122 13.1229 16.6215 18.1336ZM138.183 27.2693C138.196 27.4388 137.275 27.5779 136.136 27.5779C134.636 27.5779 134.065 27.4187 134.065 27.0014C134.065 26.6845 134.418 24.3236 134.849 21.7545C135.281 19.1858 135.777 16.1583 135.95 15.0266C136.242 13.1291 136.34 13.513 137.213 19.9648C137.733 23.8125 138.17 27.0997 138.183 27.2693ZM44.2532 30.9359L37.069 37.984L39.593 40.4918L42.1174 43L47.5024 37.661L52.8874 32.3223L58.2725 37.661L63.6575 43L66.1475 40.526L68.6371 38.0523L61.4604 30.9631C54.9459 24.5286 54.1519 23.8751 52.8605 23.8813C51.5783 23.8878 50.7292 24.5833 44.2532 30.9359Z" fill="white" stroke="black" stroke-width="4" mask="url(#path-1-inside-1_376_5591)"/>
</svg>
