<svg width="143" height="142" viewBox="0 0 143 142" fill="none" xmlns="http://www.w3.org/2000/svg">
<path d="M121.916 124.941L122.27 124.589L100.289 102.746C88.003 90.538 76.953 79.995 75.732 79.317C72.864 77.723 70.237 77.761 66.512 79.451M121.916 124.941L99.9366 103.101C93.7954 96.9985 87.9639 91.3132 83.516 87.0695C81.2917 84.9474 79.4153 83.1875 78.0198 81.9168C77.3217 81.2811 76.7466 80.7702 76.3098 80.3984C75.8561 80.0124 75.5897 79.8099 75.4893 79.7541L75.4891 79.754C74.1181 78.9921 72.8299 78.6324 71.4506 78.6525C70.0628 78.6726 68.545 79.0777 66.7186 79.9063M121.916 124.941L122.271 125.294L114.313 133.21L106.001 141.479M121.916 124.941L113.96 132.856L106.002 140.773M66.7186 79.9063C66.7186 79.9063 66.7186 79.9063 66.7187 79.9063L66.512 79.451M66.7186 79.9063L66.512 79.451M66.7186 79.9063C66.5757 79.9712 66.2649 80.1796 65.7694 80.5688C65.2898 80.9455 64.675 81.4607 63.9403 82.1007C62.4716 83.3799 60.5383 85.145 58.2755 87.2693C53.7507 91.5171 47.9193 97.1913 41.8744 103.266L20.2342 125.012M66.512 79.451C64.862 80.2 53.616 90.758 41.52 102.913L19.528 125.013M19.528 125.013L19.8816 124.659L20.2342 125.012M19.528 125.013L27.768 133.253L36.009 141.494M19.528 125.013L19.8824 125.366L20.2342 125.012M20.2342 125.012L28.1216 132.899L36.0092 140.787M36.009 141.494L35.6557 141.14L36.0092 140.787M36.009 141.494L53.51 124.014L71.012 106.533L88.506 124.006L106.001 141.479M36.009 141.494L36.3626 141.14L36.0092 140.787M36.0092 140.787L53.1567 123.66L70.6587 106.179L71.012 105.826L71.3653 106.179L88.8593 123.652L106.002 140.773M106.002 140.773L105.648 141.125L106.001 141.479M106.002 140.773L106.354 141.125L106.001 141.479M20.2593 17.0139L28.3685 8.86264L36.4811 0.707822L53.6526 17.8598L71.1797 35.3668L71.5334 35.7201L71.8868 35.3663L89.3608 17.8703L106.481 0.728408L114.4 8.60647L122.319 16.4835L100.915 37.9611C94.9343 43.9621 89.1945 49.5779 84.7655 53.791C82.5507 55.8978 80.6658 57.6518 79.2434 58.9272C78.5319 59.5652 77.939 60.0807 77.4801 60.4598C77.0073 60.8502 76.7113 61.0662 76.5778 61.1373C75.8899 61.502 74.8493 61.8483 73.7156 62.1032C72.5858 62.3572 71.4017 62.512 70.438 62.512C69.6267 62.512 68.9599 62.436 68.1347 62.0784C67.2905 61.7125 66.2576 61.0415 64.745 59.8032C61.7172 57.3245 56.8908 52.6776 47.9872 43.9882C37.4686 33.7225 26.8435 23.3735 24.3774 20.9914L24.03 21.351L24.3774 20.9914L20.2593 17.0139ZM35.3588 70.8513L35.7119 70.4978L35.3586 70.1444L18.1256 52.9114L1.24507 36.031L8.85659 28.3745L8.502 28.022L8.8566 28.3745C11.0439 26.1742 13.0904 24.1757 14.6251 22.7285C15.3931 22.0044 16.0295 21.4215 16.49 21.0213C16.7123 20.8281 16.888 20.6824 17.015 20.585C17.1168 20.6575 17.2516 20.7624 17.4203 20.9019C17.8078 21.2221 18.3421 21.6978 19.0058 22.3116C20.3314 23.5376 22.1519 25.2952 24.3031 27.4158C28.6046 31.6559 34.2169 37.3361 39.8135 43.0919C45.4101 48.8478 50.9885 54.6769 55.2223 59.2149C57.3395 61.4844 59.1181 63.4284 60.3939 64.8779C61.0322 65.6031 61.5412 66.2007 61.9027 66.6515C62.0838 66.8772 62.2241 67.0615 62.324 67.2039C62.3739 67.2751 62.411 67.332 62.4371 67.3757C62.4609 67.4155 62.4694 67.4343 62.4705 67.4366C63.0592 69.0187 63.3935 70.2133 63.2513 71.5044C63.109 72.7955 62.4804 74.2539 60.9773 76.3186C57.9576 80.4663 51.5872 86.831 39.3138 98.8751L16.5142 121.249L8.60844 113.393L0.70802 105.543L17.8568 88.3744L35.3588 70.8513ZM16.8581 20.4858C16.8579 20.4856 16.8611 20.4868 16.8681 20.4903C16.8618 20.4878 16.8583 20.4861 16.8581 20.4858ZM124.9 52.2426L125.247 52.603L124.9 52.2426C120.158 56.8034 115.845 61.0812 112.716 64.3C111.153 65.9088 109.881 67.2564 108.999 68.2441C108.559 68.7369 108.21 69.1464 107.969 69.4567C107.849 69.6108 107.749 69.7496 107.676 69.8672C107.64 69.9256 107.605 69.9884 107.577 70.0518C107.554 70.1026 107.512 70.2075 107.512 70.334C107.512 70.4584 107.553 70.5622 107.575 70.6127C107.602 70.6757 107.636 70.7386 107.672 70.7975C107.743 70.9162 107.841 71.057 107.959 71.2141C108.197 71.5303 108.541 71.9485 108.975 72.4529C109.845 73.4634 111.1 74.8443 112.642 76.4942C115.729 79.795 119.985 84.1861 124.664 88.8713L141.316 105.544L133.39 113.428L125.465 121.312L102.591 98.364C91.5504 87.2868 85.7618 81.4312 82.7292 77.8964C81.2124 76.1284 80.4149 74.9743 79.9913 74.0626C79.5796 73.1763 79.512 72.5007 79.512 71.647C79.512 70.6472 79.6327 69.4909 79.8286 68.437C80.0263 67.3734 80.2925 66.4589 80.5642 65.9217C80.6094 65.8325 80.794 65.5789 81.1655 65.1338C81.5209 64.708 82.0123 64.1474 82.6259 63.4666C83.8525 62.1057 85.5573 60.2765 87.617 58.1088C91.7358 53.774 97.2665 48.0936 103.214 42.1146L102.86 41.762L103.214 42.1146C109.162 36.1356 114.684 30.7009 118.789 26.762C120.842 24.7921 122.538 23.1988 123.754 22.0992C124.363 21.5487 124.847 21.1263 125.194 20.8433C125.35 20.7158 125.473 20.6216 125.562 20.5581C125.584 20.5702 125.608 20.5844 125.634 20.6009C125.787 20.6949 125.993 20.8411 126.251 21.04C126.765 21.4362 127.451 22.0155 128.262 22.738C129.883 24.1814 131.982 26.1764 134.166 28.3735L141.769 36.021L124.9 52.2426ZM125.686 20.4796C125.686 20.4796 125.682 20.4819 125.674 20.4852C125.675 20.4848 125.676 20.4844 125.676 20.4841C125.683 20.4809 125.686 20.4796 125.686 20.4796ZM125.453 20.5032C125.45 20.5024 125.448 20.5018 125.448 20.5016C125.448 20.5014 125.449 20.5018 125.453 20.5032Z" fill="black" stroke="white"/>
</svg>
