<svg width="251" height="183" viewBox="0 0 251 183" fill="none" xmlns="http://www.w3.org/2000/svg">
<mask id="path-1-inside-1_411_3026" fill="white">
<path fill-rule="evenodd" clip-rule="evenodd" d="M149.813 2.03239C148.769 2.53712 147.244 3.2885 146.425 3.70193C145.08 4.38005 144.49 4.48013 140.385 4.72708C129.835 5.36194 125.446 5.83504 123.596 6.53698C121.294 7.41055 117.857 9.52583 116.177 11.1037C113.727 13.4035 108.234 19.1819 105.696 22.1268C104.315 23.7292 101.72 26.6156 99.9283 28.5413C96.4343 32.2963 95.6399 33.3962 95.6805 34.421C95.7062 35.0693 94.1613 37.2285 93.6404 37.2725C93.4906 37.2851 93.0907 36.7347 92.7523 36.0493C92.1687 34.8681 92.053 34.7933 90.5228 34.6095C86.6717 34.1473 83.7854 34.1566 80.0731 34.643C71.7126 35.7378 63.3089 38.7502 56.4002 43.1286C50.2278 47.0403 45.9055 51.2569 38.2177 60.8671C31.2557 69.5699 29.4129 71.2753 23.473 74.5119C19.0741 76.9091 15.1657 78.2334 11.3366 78.6248C9.51974 78.8105 7.89262 78.9917 7.72048 79.028C7.53053 79.0681 7.39605 79.9427 7.37763 81.2559C7.35438 82.9077 7.09501 84.2088 6.27971 86.7691C5.00251 90.7786 4.52028 91.4498 2.60318 91.8879C0.863576 92.2856 0.163106 93.0851 0.22332 94.6042C0.280085 96.0362 0.391146 96.1674 9.79059 105.906C19.2618 115.718 23.1541 119.479 30.2394 125.665C33.1754 128.228 42.1608 136.641 50.2069 144.36C58.2529 152.079 68.0037 161.344 71.8751 164.949C75.7925 168.597 79.7421 172.556 80.7803 173.876C83.7651 177.67 90.1245 183.463 90.6283 182.846C90.6852 182.776 90.612 182.157 90.4656 181.469C90.164 180.051 89.9956 180.266 93.8749 177.13C94.9796 176.238 96.8447 174.655 98.0196 173.614C99.1944 172.573 103.29 169.215 107.121 166.151C111.351 162.769 117.385 157.529 122.485 152.808C136.206 140.105 146.334 131.323 165.104 115.848C170.992 110.994 178.404 105.007 181.575 102.544C186.55 98.6791 196.089 90.9322 200.854 86.8853C207.503 81.2401 210.126 79.1451 211.258 78.5771C212.717 77.8446 215.352 75.95 227.561 66.8542C232.139 63.4444 237.218 59.8035 238.849 58.7638C242.615 56.3632 243.185 55.8549 243.342 54.761C243.531 53.4498 247.919 49.8833 249.526 49.734C250.545 49.6395 250.6 49.5961 250.125 49.2589C249.764 49.003 249.651 48.6867 249.762 48.2419C250.063 47.0329 249.431 46.7731 246.744 46.9997C244.363 47.2005 244.181 47.1675 242.202 46.1808C240.263 45.2134 237.393 44.3227 237.153 44.6139C237.093 44.6863 238.279 45.2746 239.788 45.9212C241.298 46.5674 242.965 47.2859 243.493 47.5168C244.723 48.0553 245.185 48.7374 244.815 49.4706C244.665 49.7699 243.327 50.8536 241.843 51.8783C239.696 53.3615 238.994 54.0227 238.4 55.1182C237.502 56.774 235.443 58.3859 231.525 60.5007C226.011 63.4765 223.142 65.3915 219.137 68.7675C216.894 70.6579 213.241 73.405 211.019 74.8719C205.428 78.5635 200.53 82.0744 188.981 90.6692C173.778 101.985 172.928 102.639 163.904 109.981C159.265 113.756 153.296 118.476 150.639 120.471C147.981 122.466 144.845 124.93 143.669 125.946C139.18 129.825 125.893 141.933 115.037 152.036C112.74 154.173 108.032 158.277 104.574 161.154C96.3741 167.979 94.1672 170.024 91.7695 173.022C89.4832 175.882 89.0302 176.055 87.1214 174.801C85.165 173.515 67.3804 156.526 66.7181 155.31C66.3452 154.626 65.8171 154.133 65.2954 153.983C64.83 153.85 64.0836 153.213 63.5964 152.533C63.0926 151.83 62.1041 150.996 61.2445 150.549C60.4289 150.126 59.1263 149.074 58.3495 148.212C56.8286 146.526 56.3784 146.59 56.7354 148.444C56.8875 149.233 56.8439 149.437 56.5397 149.356C55.9238 149.192 54.8082 147.121 54.8045 146.135C54.8025 145.643 54.7813 145.062 54.7572 144.843C54.7333 144.624 53.025 142.807 50.9612 140.806C48.7019 138.615 47.1115 136.835 46.9644 136.333C46.8231 135.85 46.3101 135.257 45.749 134.927C43.6933 133.717 43.2135 133.237 43.1787 132.359C43.143 131.458 42.4997 130.939 41.5207 131.022C40.9629 131.069 40.4273 130.547 36.1467 125.788C34.7154 124.197 32.9248 122.437 32.1677 121.876C31.4103 121.316 30.596 120.416 30.3577 119.877C30.1184 119.336 29.4519 118.62 28.867 118.277C27.805 117.654 25.9696 115.879 21.849 111.49C20.63 110.192 19.2349 108.988 18.7485 108.815C18.1379 108.597 17.6619 108.094 17.2103 107.187C16.7568 106.276 16.3631 105.86 15.9238 105.83C15.576 105.806 14.4915 105.091 13.5145 104.241C12.5374 103.39 10.9998 102.112 10.0974 101.401C9.1564 100.659 8.44727 99.8659 8.43444 99.5424C8.41975 99.1719 7.73289 98.5644 6.43658 97.7757C4.52765 96.6142 3.89257 96.5254 3.92823 97.4248C3.93756 97.6603 3.83555 97.8619 3.70167 97.8732C3.41628 97.8972 1.28139 95.6929 1.42326 95.5207C1.47627 95.4564 1.9785 95.3316 2.53939 95.2432C3.73644 95.055 3.80181 94.8353 2.83503 94.2505C1.56864 93.4846 1.92613 93.069 4.51074 92.304C7.45104 91.4332 7.80185 91.2118 7.25065 90.5756C6.91292 90.1856 6.92065 89.8716 7.30312 88.4478C7.95054 86.0379 8.2467 86.0695 8.11998 88.5344C8.04903 89.9171 8.10908 90.651 8.29199 90.6356C8.61897 90.608 8.7232 90.0997 9.05887 86.8954C9.20862 85.4647 9.45096 84.4662 9.67585 84.3525C10.2985 84.0373 11.7109 84.7203 12.5068 85.7216C12.9219 86.2439 14.6881 87.8484 16.4316 89.2874C18.1752 90.7265 28.7099 100.467 39.8419 110.932C64.9236 134.513 68.0109 137.282 77.9727 145.121C80.2568 146.918 82.4666 148.818 82.8838 149.343C84.1568 150.944 84.352 152.147 84.4116 158.748C84.4651 164.684 84.3459 165.834 83.6713 165.891C83.4842 165.906 80.9331 163.409 78.0022 160.34C75.0713 157.272 67.4257 149.774 61.0117 143.679C48.5099 131.797 19.1431 103.54 14.256 98.6899C12.6238 97.0699 11.0352 95.6226 10.7259 95.4738C10.1871 95.2143 10.1819 95.2364 10.5982 96.0055C12.4618 99.447 17.4805 104.731 33.8619 120.5C41.6863 128.032 49.4483 135.556 51.1104 137.219C52.7725 138.883 60.1959 146.136 67.607 153.337C78.5389 163.959 81.5825 166.754 83.7351 168.148C85.1943 169.093 86.4743 170 86.5797 170.164C86.6849 170.327 86.4367 170.788 86.0277 171.187C85.0961 172.097 85.519 172.418 87.0926 171.996C87.8603 171.79 88.4294 171.393 88.874 170.754C89.7905 169.436 96.1926 163.617 105.595 155.555C110.006 151.773 116.736 145.848 120.551 142.387C128.131 135.511 131.682 132.361 135.771 128.887C137.241 127.637 140.585 124.766 143.201 122.506L147.958 118.397L148.639 119.005C149.48 119.755 149.908 119.471 149.858 118.198C149.807 116.914 150.475 116.202 153.308 114.527C154.891 113.59 156.641 112.154 158.93 109.913C163.19 105.742 163.757 105.336 165.831 104.97C168.956 104.42 172.26 101.77 173.797 98.5817C174.655 96.8021 175.815 95.6163 178.928 93.3344C180.369 92.2779 184.203 89.3568 187.448 86.8428C190.692 84.3288 196.67 79.8074 200.731 76.795C217.236 64.552 239.566 47.7932 239.896 47.4008C239.956 47.329 239.934 47.2013 239.845 47.1173C239.757 47.033 238.145 47.9826 236.264 49.2276C234.382 50.4722 232.772 51.4243 232.687 51.343C232.509 51.1734 233.172 50.6939 236.376 48.6769C237.842 47.7535 238.694 47.0327 238.741 46.6749C238.858 45.7783 238.389 45.5674 237.17 45.9692C236.561 46.1701 235.909 46.2471 235.721 46.1408C235.182 45.8348 235.614 44.6663 236.301 44.5735C236.756 44.5122 236.676 44.4344 235.975 44.2543C235.384 44.1022 234.305 43.2284 232.991 41.836L230.932 39.656L229.636 39.9592C228.486 40.228 228.138 40.1605 226.558 39.3632C225.579 38.8689 222.896 37.7378 220.595 36.8497C218.295 35.9615 214.752 34.4247 212.721 33.4346C210.69 32.4442 206.621 30.498 203.677 29.1095C191.954 23.5793 189.04 21.9759 174.716 13.173C169.652 10.0612 163.502 6.36491 161.049 4.95887C158.596 3.55284 156.514 2.2859 156.422 2.14323C156.33 2.00056 156.4 1.67333 156.576 1.41601C157.061 0.709451 156.682 0.584136 155.615 1.09764C154.869 1.45655 154.498 1.49384 153.929 1.26715C152.853 0.837866 151.928 1.00965 149.813 2.03239ZM151.549 3.97845C149.633 5.79781 146.362 7.03775 143.772 6.92612C141.67 6.83531 141.918 6.54546 144.276 6.3359C146.04 6.17912 146.781 5.94034 148.82 4.87123C151.524 3.45423 152.404 3.1662 151.549 3.97845ZM158.516 5.42205C159.907 5.99667 161.222 6.67444 161.439 6.92808C161.846 7.40339 156.254 5.22075 155.187 4.48753C154.603 4.08671 154.604 4.08241 155.29 4.22862C155.673 4.31008 157.125 4.84712 158.516 5.42205ZM154.95 4.97871C155.592 5.23427 157.816 6.42819 159.892 7.63224C161.967 8.83598 165.828 11.0517 168.472 12.5557C171.116 14.0597 175.507 16.5789 178.23 18.154C185.42 22.313 189.87 24.5041 198.199 27.9872C202.271 29.6898 207.948 32.2459 210.815 33.6673C216.625 36.548 223.644 39.5938 226.305 40.3889C227.267 40.6763 228.058 41.0215 228.063 41.156C228.092 41.8878 222.679 44.9453 218.17 46.7442C215.657 47.7468 214.697 47.9776 211.899 48.2531C208.718 48.566 208.539 48.5501 207.096 47.8274C205.97 47.2635 205.624 46.9406 205.706 46.5298C205.795 46.0824 205.646 45.9973 204.885 46.0614C204.152 46.1232 203.484 45.7798 201.737 44.4409C199.586 42.7931 198.518 42.1305 198.073 42.168C197.612 42.2069 201.141 45.3527 203.81 47.2817L206.62 49.3124L205.705 49.7532C205.202 49.9955 204.276 50.2475 203.648 50.313C202.631 50.419 202.261 50.2384 200.266 48.6636C197.615 46.5716 195.824 45.5485 195.157 45.7448C194.688 45.8829 195.542 46.6568 199.092 49.313C200.011 50.0007 200.05 50.0894 199.618 50.4943C199.36 50.7353 198.565 51.0686 197.851 51.2351C196.526 51.5446 195.975 51.384 193.117 49.8556C191.782 49.1416 191.67 49.7062 192.907 50.9145C193.504 51.4977 193.884 52.0587 193.75 52.1617C193.617 52.2644 192.248 52.5951 190.708 52.8965C181.803 54.6398 171.735 59.6155 165.588 65.3101C164.122 66.6686 162.672 67.8729 162.367 67.9865C161.146 68.4403 158.038 66.5698 157.989 65.353C157.969 64.8415 157.809 64.6254 157.47 64.6539C157.201 64.6766 156.697 64.5104 156.35 64.2844C155.432 63.6868 155.056 64.1501 155.761 65.0098C156.109 65.4347 156.26 65.8681 156.132 66.0746C156.013 66.2664 155.611 67.0726 155.238 67.8659C154.612 69.2013 154.602 69.2939 155.102 69.1087C155.399 68.9985 155.633 68.6666 155.621 68.3709C155.602 67.8841 156.737 66.5029 157.188 66.4649C157.622 66.4282 161.192 69.4587 161.209 69.8784C161.219 70.1322 160.871 70.7721 160.436 71.3003C159.934 71.91 159.657 72.5639 159.678 73.0917C159.716 74.0402 159.123 74.7907 158.497 74.5879C157.952 74.4114 157.934 73.707 158.427 71.8772C158.804 70.4764 158.798 70.3864 158.301 70.0476C157.493 69.4957 156.972 69.6355 157.347 70.3039C157.795 71.1054 157.797 72.836 157.35 73.2898C156.455 74.1978 155.013 72.8506 154.584 70.7054C154.382 69.6972 154.325 69.6293 154.174 70.2187C154.078 70.5956 153.92 70.9103 153.824 70.9184C153.727 70.9266 153.01 70.5072 152.23 69.9865C151.45 69.4658 150.448 68.8685 150.004 68.6591C149.211 68.2859 149.204 68.2898 149.62 68.8591C150.357 69.8698 153.917 72.6952 155.323 73.3854C156.495 73.9606 156.681 74.1734 156.713 74.9814C156.795 77.0692 155.547 77.2403 152.783 75.5201C151.66 74.821 150.424 74.1013 150.037 73.921L149.333 73.5932L149.901 74.205C150.214 74.5414 151.495 75.4774 152.748 76.2852C155.996 78.3787 157.445 79.5244 157.465 80.0136C157.508 81.0951 155.166 79.9552 151.028 76.88C150.014 76.127 149.235 75.7731 148.69 75.819C147.668 75.9052 145.955 74.8368 140.082 70.4478C137.579 68.5772 133.696 65.9226 131.454 64.5485C126.863 61.7352 125.315 60.5227 125.037 59.5233C124.895 59.0143 124.367 58.6607 122.994 58.1569C121.822 57.727 120.879 57.1474 120.428 56.5802C120.037 56.0869 119.433 55.6314 119.088 55.5676C118.435 55.4475 114.667 53.2049 112.323 51.5416C111.341 50.8449 110.917 50.3198 110.763 49.6111C110.529 48.53 109.923 48.1114 108.738 48.2113C107.719 48.2972 107.268 47.847 107.223 46.6982C107.203 46.1906 107.023 45.5749 106.823 45.3299C106.221 44.5911 100.818 40.864 100.597 41.0345C100.484 41.1215 100.039 40.6482 99.6087 39.9821C98.6079 38.4328 97.4319 37.2277 97.1403 37.4524C96.553 37.9049 97.0995 38.8561 98.7057 40.1756C100.977 42.0417 100.297 42.3695 97.5973 40.7099C95.345 39.3251 94.6244 39.155 94.6585 40.0162C94.6764 40.4683 94.9132 40.6262 95.6521 40.6776C96.6263 40.7456 96.7885 41.0637 96.5193 42.3824C96.4517 42.7133 96.7692 42.8438 97.7497 42.8889C98.9154 42.9422 99.2978 43.1614 101.002 44.7527C102.064 45.7446 103.503 46.8058 104.199 47.111C106.008 47.9042 106.208 48.0943 105.921 48.7481C105.645 49.3791 106.073 49.6274 107.262 49.5271C108.045 49.4611 109.068 50.1115 111.917 52.4878C112.964 53.3602 114.168 54.1444 114.594 54.2303C115.766 54.4663 115.799 55.0622 114.645 55.1594C113.63 55.2451 113.135 55.7321 113.607 56.1819C113.76 56.327 114.994 56.5326 116.351 56.6386C120.254 56.9437 121.573 57.8138 118.997 58.3837L117.785 58.6515L118.627 58.9672C119.09 59.1408 120.287 59.5381 121.287 59.8502C125.444 61.1469 125.804 61.4244 124.009 61.9428C121.933 62.5426 122.746 63.2067 125.889 63.4784C127.57 63.6235 128.199 63.8433 129.426 64.7144C131.304 66.0465 131.351 66.4128 129.626 66.2571C127.384 66.0548 126.673 66.1602 126.595 66.7074C126.5 67.3683 127.749 67.6687 130.58 67.6659C134.83 67.662 135.58 68.0768 132.417 68.6819C131.03 68.9475 130.501 69.1663 130.513 69.4708C130.538 70.1025 131.733 70.2041 134.221 69.787L136.453 69.4126L138.091 70.6613C138.992 71.3481 139.677 71.9736 139.613 72.0514C139.549 72.1295 138.452 72.1142 137.176 72.0177C135.341 71.8794 134.726 71.93 134.238 72.2598C133.883 72.4997 133.729 72.7793 133.874 72.9175C134.202 73.2302 137.572 73.4662 139.51 73.3125C141.595 73.1472 142.865 73.4713 143.807 74.4091C144.791 75.3892 144.498 75.7257 142.515 75.8929C141.229 76.0013 141.139 76.0587 141.167 76.7512C141.194 77.4355 141.293 77.484 142.435 77.3719C143.116 77.3052 144.421 77.0803 145.334 76.8723L146.994 76.4937L149.128 78.4716C150.303 79.5599 151.012 80.3755 150.704 80.2846C148.438 79.6155 146.182 79.5168 144.197 79.9996C139.039 81.2554 131.74 85.5943 127.498 89.9277C126.863 90.576 126.076 91.1281 125.75 91.1545C125.423 91.1808 124.214 90.6078 123.063 89.881C121.913 89.1541 120.899 88.6475 120.81 88.7551C120.65 88.95 122.524 90.6565 124.19 91.8319C124.673 92.1722 125.072 92.5695 125.078 92.7147C125.083 92.8598 124.75 93.4476 124.338 94.0203C123.925 94.5933 123.344 95.6478 123.047 96.3635C122.402 97.92 122.178 97.9029 120.014 96.135C116.753 93.4705 115.838 92.8942 115 92.9764L114.174 93.0574L114.812 93.4709C115.605 93.9849 115.616 94.2139 114.907 95.4501C114.387 96.3571 114.385 96.3913 114.877 95.8709C115.6 95.1052 115.781 95.1188 117.99 96.1102C120.267 97.132 121.702 98.206 121.73 98.9098C121.755 99.5249 120.5 101.959 119.732 102.788C119.414 103.131 119.03 103.301 118.83 103.188C118.594 103.054 118.539 103.131 118.658 103.425C118.876 103.958 118.05 106.313 117.31 107.268L116.766 107.969L115.326 107.327C113.105 106.338 110.904 104.693 110.876 104C110.863 103.669 110.734 103.49 110.588 103.602C110.443 103.714 109.364 103.142 108.191 102.332C107.018 101.522 105.933 100.869 105.78 100.882C105.192 100.932 105.576 101.509 106.848 102.49C107.576 103.051 108.489 103.758 108.878 104.062L109.585 104.613L108.424 106.809C107.116 109.284 106.369 110.96 106.582 110.942C106.661 110.935 107.374 109.735 108.167 108.276C109.065 106.625 109.791 105.608 110.091 105.582C110.686 105.532 115.175 108.104 115.572 108.723C116.012 109.408 115.665 110.61 114.649 111.915C114.145 112.562 113.81 113.211 113.904 113.356C113.997 113.502 113.771 114.174 113.402 114.852C112.441 116.61 111.766 116.567 109.759 114.62C108.865 113.753 107.821 112.655 107.438 112.18C106.759 111.337 104.636 110.254 104.347 110.605C104.268 110.701 104.447 111.267 104.745 111.862C105.112 112.593 105.485 112.941 105.897 112.937C106.232 112.934 107.059 113.415 107.736 114.006C108.412 114.596 109.572 115.466 110.313 115.939C111.741 116.848 112.097 117.792 111.313 118.588C110.976 118.93 110.429 118.657 107.926 116.899C105.465 115.171 104.955 114.685 105.018 114.126C105.101 113.383 104.853 113.31 104.062 113.845C103.761 114.049 103.554 114.51 103.571 114.939C103.596 115.566 103.677 115.63 104.093 115.349C104.761 114.897 106.047 115.639 108.159 117.697C109.792 119.289 110.354 120.32 110.077 121.22C109.869 121.897 109.18 121.842 108.088 121.062C106.561 119.971 106.236 120.536 107.662 121.804L108.899 122.904L108.396 124.108C107.732 125.701 104.948 130.273 103.634 131.93C102.957 132.783 102.413 133.215 102.095 133.153C101.732 133.082 101.402 133.489 100.835 134.709C99.2698 138.078 92.567 144.115 88.4441 145.868C86.3662 146.752 85.1806 146.848 83.8448 146.239C81.2597 145.062 73.3549 138.536 64.5168 130.283C60.5703 126.597 54.6971 121.195 51.4651 118.278C41.779 109.536 34.1704 102.311 29.2747 97.2061C23.4733 91.1575 22.2343 90.0417 18.1148 87.1586C13.6974 84.0667 10.3384 81.0495 10.9579 80.7301C11.2071 80.6015 13.0665 80.2226 15.0903 79.8878C20.6425 78.9693 24.5196 76.9509 31.2681 71.4659C35.113 68.341 37.8854 65.5439 44.652 57.9638C54.5721 46.8512 56.4509 45.0654 60.137 43.2472C63.0848 41.7932 68.793 39.7741 72.5155 38.8687C76.4928 37.9013 84.0119 37.1842 86.8641 37.5007C88.5952 37.6925 88.8775 37.8123 89.0483 38.4266C89.2708 39.2272 89.6113 39.2414 92.5848 38.5737C94.1948 38.2122 94.6232 37.9667 96.06 36.5829L97.6986 35.0044L98.8978 36.3815C101.514 39.3854 109.104 45.3422 109.065 44.3608C109.043 43.7965 106.329 41.1996 104.855 40.3314C104.023 39.8414 103.339 39.3653 103.335 39.2735C103.324 38.9761 104.095 37.2845 104.249 37.2715C104.676 37.2355 105.834 38.0237 107.62 39.5666C109.44 41.1386 110.338 41.6125 110.313 40.9885C110.308 40.8573 109.862 40.3427 109.322 39.8446C108.689 39.2606 108.391 38.763 108.484 38.4421C108.805 37.3272 110.261 35.1002 113.245 31.1586C114.976 28.8717 116.389 26.9273 116.386 26.8373C116.356 26.0768 110.402 33.2964 109.234 35.5109C107.726 38.3675 107.885 38.2579 106.297 37.54C105.221 37.0538 104.894 36.7489 104.872 36.2131C104.834 35.2373 105.858 33.5036 108.229 30.5322C111.004 27.0531 111.634 25.5774 109.528 27.4888C107.612 29.2271 106.342 30.9644 105.557 32.919C105.056 34.1666 104.467 35.1215 103.985 35.4664C103.487 35.8236 103.271 36.1831 103.374 36.4848C103.461 36.741 103.302 37.2906 103.021 37.706C102.603 38.3211 102.414 38.4077 101.996 38.1742C101.715 38.0166 101.433 37.6617 101.371 37.3855C101.241 36.8115 101.994 35.6745 102.534 35.629C102.738 35.6118 102.821 35.4151 102.725 35.1781C102.468 34.5492 103.593 31.8151 105.252 29.0342C106.063 27.6762 106.643 26.4879 106.542 26.3937C106.218 26.0904 103.676 29.6842 102.81 31.669C101.942 33.6604 101.238 34.1445 100.358 33.3552C100.149 33.1682 100.295 33.553 100.682 34.2104C101.336 35.322 101.355 35.4434 100.95 35.9347C100.545 36.4263 100.454 36.4308 99.6487 35.9968C98.6317 35.449 98.303 34.8411 98.869 34.5545C99.4792 34.2457 99.327 33.7469 98.7048 34.0159C97.1083 34.706 98.8356 32.5132 104.889 26.165C107.662 23.257 111.548 18.9778 113.524 16.6556C118.346 10.9899 120.321 9.61683 125.465 8.35179C129.697 7.31075 134.019 7.11766 137.88 7.79668C140.542 8.26448 141.836 8.33139 144.251 8.12602L147.281 7.86785L149.822 6.24446C152.632 4.44913 153.239 4.29935 154.95 4.97871ZM116.869 35.8223C114.226 39.4814 113.859 40.5227 116.35 37.2936C118.147 34.9649 119.365 33.0185 119.007 33.0487C118.928 33.0553 117.966 34.3034 116.869 35.8223ZM188.596 28.6596C188.223 28.8206 186.942 29.4692 185.751 30.101C183.908 31.0784 183.268 31.271 181.449 31.3936C179.308 31.5384 178.615 31.976 180.159 32.2089C181.715 32.4438 183.936 32.0834 185.607 31.3251C187.567 30.4354 190.209 28.8697 190.407 28.4801C190.574 28.1514 189.535 28.2546 188.596 28.6596ZM103.561 43.876C104.261 44.3048 105.072 44.9066 105.362 45.2133C105.875 45.7551 105.874 45.7721 105.337 45.8174C104.662 45.8744 102.577 44.5058 102.134 43.7139C101.689 42.9181 102.066 42.961 103.561 43.876ZM198.02 36.9372C197.959 37.0117 196.345 37.3402 194.434 37.6669C191.953 38.0912 190.567 38.4806 189.584 39.029C188.828 39.4511 188.213 39.914 188.219 40.057C188.232 40.3767 188.129 40.3881 189.891 39.8749C190.695 39.6409 192.761 39.1969 194.481 38.888C198.036 38.2502 199.849 37.6712 200.286 37.0339C200.535 36.6703 200.376 36.6126 199.359 36.6983C198.684 36.7552 198.082 36.8626 198.02 36.9372ZM63.9666 50.162C59.9565 51.9134 55.9675 55.1752 52.8441 59.2573C50.6263 62.156 46.9924 68.1983 47.0218 68.9387C47.0513 69.6835 47.7931 69.5921 47.985 68.8197C48.2725 67.6642 51.3126 63.0289 53.8937 59.811C56.9418 56.0114 59.8889 53.311 63.437 51.0668C66.2045 49.3165 66.308 49.1395 63.9666 50.162ZM135.575 46.7675C133.874 48.8387 131.318 53.0394 131.597 53.3054C131.671 53.3757 132.041 52.8668 132.419 52.1743C132.797 51.4821 133.96 49.7393 135.003 48.3018C136.046 46.8643 137.059 45.4397 137.255 45.1367C137.984 44.005 137.295 44.674 135.575 46.7675ZM143.889 48.8961C141.339 51.8925 138.673 55.8597 137.821 57.9284C136.915 60.1266 137.025 60.5426 138.025 58.6983C139.412 56.1414 141.871 52.4841 143.76 50.1687C147.813 45.1992 147.919 44.1615 143.889 48.8961ZM207.193 43.1644C208.311 44.205 209.51 45.1088 209.858 45.173C210.206 45.2371 211.171 45.8376 212.002 46.5074C213.533 47.7418 214.026 47.8542 214.145 46.9954C214.187 46.6904 213.648 46.2128 212.643 45.6632C211.436 45.0042 211.106 44.6796 211.211 44.2565C211.324 43.8032 211.235 43.7466 210.707 43.9362C210.275 44.0909 209.769 43.9664 209.164 43.5566C208.669 43.2213 207.691 42.5598 206.99 42.0863C204.931 40.6948 205.014 41.1348 207.193 43.1644ZM70.4585 53.6418C68.0504 55.2701 64.81 58.5325 63.265 60.8845C62.4158 62.1773 61.7241 63.3177 61.7282 63.4189C61.7322 63.5198 62.8344 62.2992 64.1773 60.706C66.2585 58.2374 68.776 55.7376 71.5636 53.3717C72.5498 52.535 71.8386 52.7088 70.4585 53.6418ZM214.239 41.0509C214.256 41.4867 215.502 42.4013 216.944 43.0371C219.944 44.3604 220.562 44.0536 217.958 42.5335C216.318 41.5765 214.66 40.7695 214.381 40.793C214.297 40.8 214.234 40.9162 214.239 41.0509ZM152.484 52.1718C148.039 56.4684 145.843 59.664 145.57 62.2321C145.448 63.378 145.471 63.3529 146.042 61.6925C146.907 59.1786 147.907 57.8094 151.412 54.3364C154.226 51.5484 155.545 49.9237 154.956 49.9734C154.837 49.9835 153.725 50.9726 152.484 52.1718ZM229.535 46.2913C229.482 47.5652 229.328 49.1508 229.194 49.8147C228.884 51.3534 226.986 53.7291 226.002 53.8121C225.343 53.8676 225.307 53.798 225.382 52.5985C225.71 47.3087 226.02 46.2526 227.374 45.8137C227.811 45.6724 228.44 45.2056 228.773 44.7764C229.105 44.3474 229.435 43.9914 229.505 43.9855C229.575 43.9796 229.589 45.0173 229.535 46.2913ZM233.445 47.0913L234.185 47.6378L232.308 49.1978C229.686 51.3769 229.546 51.3464 229.907 48.6764C230.382 45.1565 230.292 45.3014 231.592 45.9713C232.205 46.2869 233.039 46.7911 233.445 47.0913ZM224.641 49.8314C224.516 54.8277 224.181 55.4578 220.35 57.9087L218.196 59.2874L218.309 57.8371C218.516 55.2004 218.994 50.7864 219.086 50.6753C219.395 50.302 223.821 47.7411 224.215 47.7079C224.641 47.672 224.69 47.9139 224.641 49.8314ZM81.4326 61.9666C80.2555 62.951 78.7008 64.5192 77.9777 65.4514C76.994 66.7198 76.9295 66.8506 77.7219 65.9713C78.3043 65.325 79.9664 63.7444 81.4154 62.4592C84.5097 59.7142 84.5212 59.3841 81.4326 61.9666ZM217.875 51.3958C218.087 51.9141 217.559 58.8973 217.225 59.9938C217.017 60.6794 214.002 63.0005 213.52 62.8457C213.213 62.7465 213.322 60.8212 213.815 57.6832C214.048 56.197 214.219 54.4943 214.196 53.8997C214.15 52.7526 214.603 52.0402 215.762 51.4337C216.779 50.9018 217.667 50.8858 217.875 51.3958ZM213.577 52.2535C213.584 52.4578 213.398 54.0194 213.162 55.7242C212.926 57.4291 212.755 59.4018 212.783 60.108C212.811 60.8142 212.78 62.0202 212.713 62.7883C212.597 64.1367 212.525 64.2375 210.639 65.7023C209.564 66.5369 208.544 67.425 208.372 67.676C207.76 68.5685 207.302 68.263 207.249 66.9272C207.167 64.8495 207.527 60.805 208.119 57.1636C208.424 55.2849 208.597 53.6286 208.503 53.4826C208.409 53.3365 208.494 53.1947 208.692 53.1676C208.89 53.1402 209.788 52.8747 210.688 52.5775C212.803 51.8789 213.56 51.7942 213.577 52.2535ZM201.928 53.6209C202.18 54.2391 201.616 59.9505 200.379 69.3055C200.198 70.6709 200.216 71.2749 200.443 71.4913C201.178 72.191 201.709 68.9357 202.296 60.1297C202.504 56.9996 202.771 54.1234 202.888 53.7383C203.089 53.0759 203.223 53.0324 205.379 52.9325L207.658 52.8271L207.78 53.7586C207.847 54.2709 207.506 57.1143 207.022 60.0774C206.538 63.0404 206.083 66.1787 206.011 67.0518C205.835 69.1928 205.139 70.1113 201.415 73.1149C194.465 78.7221 193.911 79.0279 193.839 77.299C193.817 76.7682 194.492 71.4049 195.338 65.3804C197.039 53.2757 196.711 54.3032 198.716 54.7921C199.292 54.9324 199.349 54.8769 199.17 54.3535C199.008 53.8828 199.099 53.7143 199.591 53.5701C200.96 53.169 201.751 53.186 201.928 53.6209ZM195.998 55.0111C196.008 55.2611 195.695 56.8584 195.302 58.5606C194.456 62.2297 193.136 73.1195 193.2 75.9077C193.276 79.2012 193.157 79.5189 191.28 81.0434C189.135 82.7856 188.313 83.3392 188.13 83.1652C188.05 83.0889 188.165 81.4818 188.385 79.5939C188.606 77.706 188.995 73.262 189.251 69.7184C189.871 61.1044 190.284 57.2255 190.639 56.6753C190.979 56.1471 194.109 54.7555 195.223 54.6369C195.726 54.5834 195.986 54.7089 195.998 55.0111ZM189.163 56.7756C189.46 57.1181 189.445 57.9196 189.086 61.0264C188.843 63.1321 188.357 68.7662 188.005 73.5465C187.654 78.3269 187.268 82.7366 187.148 83.3463C186.814 85.0471 183.918 87.8034 182.834 87.4522C182.478 87.3369 182.462 87.0144 182.712 84.963C183.334 79.8518 184.568 65.6073 184.671 62.3604C184.787 58.6865 184.926 57.8712 185.44 57.8279C185.618 57.8128 186.241 57.4923 186.822 57.1156C188.088 56.2955 188.673 56.2104 189.163 56.7756ZM184.531 58.6066C184.537 58.7933 184.364 60.7705 184.145 63.0005C183.926 65.2305 183.407 70.9036 182.991 75.6075C181.946 87.4169 181.889 87.8071 181.032 88.9879C179.905 90.5415 177.343 92.6182 176.98 92.2721C176.65 91.9582 177.309 82.5991 178.513 70.4748C179.641 59.1234 179.471 59.9565 180.783 59.3101C183.291 58.0737 184.503 57.8461 184.531 58.6066ZM241.829 54.9006C241.781 55.4303 241.564 55.6524 240.973 55.7754C240.263 55.9235 240.196 55.8677 240.326 55.2343C240.405 54.8458 240.468 54.4375 240.466 54.3269C240.46 54.0295 241.378 53.7758 241.655 53.9985C241.786 54.1042 241.864 54.5101 241.829 54.9006ZM160.068 62.006C160.08 62.3162 162.704 64.7899 163.389 65.1372C163.797 65.3438 163.768 65.2267 163.235 64.508C161.74 62.4917 160.034 61.1442 160.068 62.006ZM178.411 60.8212C178.517 60.9856 178.448 62.2314 178.258 63.5892C177.244 70.8168 175.509 88.9827 175.604 91.3739C175.711 94.0566 175.521 94.7394 174.544 95.1977C174.165 95.3754 173.744 95.1389 172.918 94.2843C171.603 92.9224 171.526 92.3436 172.173 88.6806C172.662 85.9086 172.77 84.4639 173.353 72.8618C173.85 62.9667 173.997 62.4544 176.752 61.0594C177.832 60.5126 178.18 60.4627 178.411 60.8212ZM173.308 65.5524C173.253 66.3762 172.928 69.1428 172.587 71.7003C172.246 74.2581 171.862 78.5126 171.733 81.1546C171.442 87.1434 171 92.1573 170.737 92.4771C170.534 92.7236 167.73 92.3717 167.114 92.0222C166.501 91.6748 166.58 87.4288 167.323 80.8007C167.721 77.245 168.091 72.5986 168.146 70.4751C168.261 65.9786 168.265 65.9705 171.082 64.4557C173.273 63.2783 173.453 63.3673 173.308 65.5524ZM93.5193 74.1913C91.4565 76.287 86.7627 82.0917 84.9685 84.7661C84.3278 85.7211 85.698 84.1833 88.0132 81.3492C90.3287 78.5147 92.982 75.3688 93.9093 74.358C94.8366 73.3472 95.5454 72.4726 95.4842 72.4143C95.4228 72.356 94.5388 73.1558 93.5193 74.1913ZM166.899 74.8874C166.217 80.5591 166.06 82.9343 166.104 86.945C166.164 92.499 166.243 92.266 164.119 92.8281C162.966 93.1332 162.947 93.1244 162.446 92.0357C162.05 91.1729 161.911 90.0665 161.805 86.925C161.589 80.4606 162.364 74.9356 163.951 71.644C164.705 70.0798 167.173 67.2768 167.513 67.6C167.642 67.7234 167.366 71.0028 166.899 74.8874ZM155.926 69.0711C155.928 69.1353 156.126 69.2512 156.365 69.3287C156.614 69.4092 156.722 69.3501 156.619 69.1902C156.446 68.9215 155.916 68.8307 155.926 69.0711ZM230.579 62.8024C230.582 62.8805 230.1 63.2592 229.507 63.6434C228.914 64.0276 228.425 64.23 228.419 64.0931C228.414 63.956 228.804 63.594 229.286 63.2883C230.209 62.7025 230.57 62.5673 230.579 62.8024ZM227.338 64.7091C227.354 65.1131 225.44 66.6747 225.138 66.5039C224.667 66.2368 225.882 65.0615 227.259 64.4531C227.296 64.4365 227.332 64.5518 227.338 64.7091ZM223.577 67.4341C223.597 67.942 222.196 69.3617 221.927 69.1056C221.565 68.76 221.885 67.9815 222.561 67.5632C223.336 67.0848 223.562 67.0562 223.577 67.4341ZM110.517 77.5127C106.201 79.591 103.382 82.4954 100.318 88.0185C98.4229 91.4365 96.6179 96.2935 97.2636 96.2391C97.4146 96.2263 97.7133 95.4306 97.9276 94.4704C98.889 90.1641 103.308 84.0915 108.146 80.429C111.052 78.2286 112.654 76.7901 112.149 76.8354C111.997 76.8488 111.263 77.1537 110.517 77.5127ZM158.278 76.7813C158.304 78.1248 157.824 78.8122 157.2 78.3242C156.687 77.9236 156.684 76.4734 157.194 75.8547C157.853 75.0548 158.252 75.3955 158.278 76.7813ZM219.84 70.7065C219.506 71.4676 218.603 72.113 218.372 71.7554C218.201 71.4887 219.413 70.1537 219.861 70.1159C219.997 70.1044 219.988 70.3703 219.84 70.7065ZM216.344 73.2369C216.347 73.3159 215.743 73.771 215.002 74.2487C214.261 74.7264 213.65 74.9844 213.643 74.8223C213.637 74.6602 214.086 74.2238 214.641 73.8526C215.618 73.1996 216.332 72.9416 216.344 73.2369ZM161.027 84.2501C161.046 89.0263 160.919 89.4207 159.898 87.7461C159.373 86.8847 159.372 86.8386 159.868 85.9854C160.229 85.3641 160.399 84.3803 160.452 82.5999C160.522 80.2991 160.664 79.3766 160.913 79.6136C160.966 79.6639 161.017 81.7502 161.027 84.2501ZM210.432 77.4776C209.227 78.7706 208.387 79.3251 208.079 79.0313C207.82 78.785 208.806 77.6016 209.856 76.8986C211.425 75.848 211.696 76.1204 210.432 77.4776ZM143.812 84.2098C143.823 84.5019 143.686 85.4854 143.506 86.395C142.783 90.0494 142.194 101.187 142.153 111.963C142.128 118.478 141.947 119.682 140.742 121.332C139.895 122.491 136.995 124.813 136.72 124.551C136.475 124.318 136.414 121.373 136.597 118.538C136.687 117.138 136.796 111.968 136.84 107.05C136.926 97.3092 137.239 89.1712 137.594 87.4373C137.882 86.0301 138.234 85.6906 140.456 84.6809C142.765 83.6317 143.783 83.4887 143.812 84.2098ZM148.322 84.0707C149.045 84.2719 149.778 84.6911 149.952 85.0023C150.354 85.721 150.267 88.381 149.489 99.1308C149.155 103.745 148.936 108.899 149.003 110.584C149.07 112.269 149.007 113.917 148.863 114.246C148.576 114.899 144.023 118.805 143.496 118.849C143.142 118.879 143.107 115.787 143.376 108.137C143.509 104.352 143.64 102.107 144.279 92.6471C144.422 90.5466 144.527 87.7233 144.514 86.3734L144.491 83.919L145.75 83.8119C146.443 83.7529 147.6 83.8694 148.322 84.0707ZM154.526 84.4546C155.031 84.8096 155.936 85.6683 156.536 86.3631C157.137 87.058 158.104 87.8456 158.684 88.1136C159.265 88.3812 159.76 88.6966 159.784 88.814C159.809 88.9317 159.873 89.6757 159.927 90.4673C160.014 91.7499 160.141 91.9945 161.085 92.7068C161.668 93.1467 162.154 93.7081 162.163 93.9539C162.173 94.1997 161.667 95.0939 161.038 95.9407C159.11 98.5373 157.637 105.63 158.758 106.923C159.05 107.261 158.946 107.511 158.169 108.343C157.651 108.898 156.921 109.378 156.547 109.409C155.921 109.462 155.864 109.358 155.812 108.048C155.781 107.268 155.93 104.742 156.143 102.435C156.356 100.129 156.528 96.5661 156.525 94.5186C156.52 90.9877 156.501 90.8565 156.153 91.9691C155.648 93.5846 155.25 98.992 155.256 104.13C155.26 106.552 155.127 108.754 154.953 109.186C154.596 110.068 150.324 113.992 150.027 113.71C149.816 113.508 150.108 104.956 150.636 95.9088C150.813 92.8632 150.919 89.3437 150.872 88.0879C150.824 86.832 150.897 85.7182 151.034 85.6125C151.171 85.5068 152.606 86.4027 154.222 87.6037C155.839 88.8045 157.324 89.9066 157.524 90.0527C158.182 90.5355 158.208 89.9575 157.573 88.9716C156.761 87.7119 152.773 84.1124 152.239 84.1575C152.012 84.1766 151.821 84.0479 151.814 83.8719C151.793 83.3628 153.491 83.7278 154.526 84.4546ZM206.104 79.8557C206.129 80.4883 204.23 83.0152 203.675 83.0873C203.254 83.1421 203.431 81.683 203.939 80.9008C204.395 80.2009 204.697 80.0107 205.889 79.6743C206.002 79.6424 206.098 79.7242 206.104 79.8557ZM136.743 87.1787C136.754 87.4655 136.655 88.1774 136.523 88.761C135.37 93.8401 134.829 111.031 135.518 120.74C135.722 123.619 135.73 125.275 135.541 125.705C135.386 126.06 134.503 126.915 133.579 127.606C131.415 129.226 124.632 134.925 119.914 139.087C117.882 140.88 116.134 142.265 116.028 142.164C115.392 141.559 115.396 124.053 116.034 118.484C116.419 115.13 117.616 112.115 118.84 111.418C119.585 110.994 119.712 110.763 119.678 109.902C119.655 109.302 120.027 107.979 120.587 106.677L121.536 104.468L121.678 105.797C121.756 106.527 121.734 108.406 121.63 109.971C121.401 113.4 121.592 130.722 121.885 133.107C122.165 135.39 122.311 135.8 122.626 135.195C122.758 134.943 122.774 132.376 122.662 129.49C122.427 123.45 122.514 107.726 122.798 104.741C122.903 103.63 123.215 102.01 123.49 101.14C124.028 99.4399 125.519 96.5465 126.224 95.8354C126.619 95.4363 126.647 95.5915 126.552 97.6416C126.29 103.27 126.236 108.074 126.331 117.467C126.387 123.032 126.33 127.983 126.205 128.468C125.651 130.617 126.349 133.527 127.141 132.369C127.312 132.121 127.33 128.225 127.189 122.012C126.941 111.036 126.955 101.019 127.222 97.6512C127.317 96.4512 127.613 94.9519 127.881 94.3193C129.301 90.9595 136.658 85.0318 136.743 87.1787ZM6.80816 100.351C6.82716 100.831 6.74902 100.924 6.51435 100.7C6.33856 100.533 6.27237 100.243 6.36698 100.057C6.63239 99.5362 6.77974 99.6345 6.80816 100.351ZM201.288 83.8726C201.313 84.4975 199.73 86.7058 199.227 86.7482C198.605 86.8006 198.883 85.4422 199.705 84.4138C200.653 83.2277 201.254 83.0221 201.288 83.8726ZM9.82156 102.517C10.4025 102.99 10.5355 103.272 10.3587 103.656C10.1432 104.125 10.0475 104.125 9.21237 103.66C8.34668 103.178 8.05902 102.608 8.44535 102.14C8.73726 101.785 9.01335 101.861 9.82156 102.517ZM197.339 86.2503C197.568 86.6051 196.613 88.9749 195.886 89.8577C194.72 91.2728 194.566 90.9766 194.977 88.105C195.027 87.7489 195.462 87.1449 195.942 86.7628C196.902 85.9979 197.124 85.9167 197.339 86.2503ZM131.221 93.7482C129.998 102.115 129.634 126.396 130.711 127.809C131.609 128.989 131.727 127.972 131.464 121.261C131.206 114.649 131.346 107.443 131.867 100.479C132.179 96.3096 132.099 92.1104 131.708 92.1434C131.567 92.1553 131.348 92.8773 131.221 93.7482ZM12.1751 104.681C12.6974 105.284 12.9641 106.623 12.5685 106.657C11.9735 106.707 11.1711 105.827 11.142 105.093C11.1121 104.339 11.6824 104.112 12.1751 104.681ZM192.882 91.1237C192.309 92.6913 191.023 94.2241 190.611 93.8314C190.161 93.4029 190.971 91.1651 191.934 90.1748C193.038 89.0405 193.482 89.485 192.882 91.1237ZM113.094 98.2658C112.706 98.6613 112.207 99.5305 111.986 100.198L111.583 101.41L112.265 100.632C112.794 100.027 113.054 99.9121 113.429 100.119C113.694 100.266 114.673 100.763 115.603 101.225C117.173 102.004 117.233 102.013 116.437 101.348C115.965 100.953 115.102 100.339 114.517 99.9826C113.385 99.2909 113.28 99.0526 113.693 98.1105C114.021 97.3623 113.966 97.3768 113.094 98.2658ZM15.7057 108.66C15.7452 109.658 15.2462 109.857 14.4611 109.157C13.7199 108.496 13.4914 107.313 14.0522 107.041C14.5583 106.796 15.6751 107.89 15.7057 108.66ZM188.957 93.5375C188.983 94.2025 187.499 96.9404 186.839 97.4436C186.509 97.6951 186.282 97.7059 186.046 97.4808C185.551 97.0098 186.653 94.4364 187.686 93.6503C188.732 92.8538 188.929 92.8363 188.957 93.5375ZM169.407 97.7045C170.073 98.9291 169.739 98.9191 168.569 97.6802C167.31 96.3477 167.029 95.1773 168.222 96.2356C168.631 96.5982 169.164 97.2592 169.407 97.7045ZM18.0839 110.183C18.7592 111.538 18.7989 113.056 18.1573 112.983C17.4854 112.907 16.5279 110.954 16.7048 110.02C16.9042 108.969 17.5145 109.041 18.0839 110.183ZM166.722 98.269C167.867 99.4562 168.198 100.087 167.699 100.129C167.275 100.165 164.809 97.9513 164.792 97.5194C164.761 96.7342 165.529 97.0323 166.722 98.269ZM184.49 96.5819C184.734 96.9591 184.233 98.917 183.687 99.7253C183.305 100.291 183.11 100.387 182.847 100.14C182.585 99.8956 182.569 99.5821 182.78 98.8188C183.302 96.9317 184.069 95.9279 184.49 96.5819ZM164.59 100.105C165.893 100.986 166.289 101.61 165.868 102.12C165.223 102.903 163.01 101.363 162.96 100.096C162.921 99.1247 163.139 99.1259 164.59 100.105ZM21.1382 113.368C21.7932 114.595 21.982 115.99 21.4983 116.031C21.0209 116.071 19.5265 114.405 19.5027 113.806C19.484 113.333 20.1085 112.276 20.4225 112.249C20.4845 112.244 20.8063 112.748 21.1382 113.368ZM181.17 99.2945C181.2 100.049 180.273 102.497 179.761 103.016C178.712 104.081 178.544 101.761 179.528 99.8019C180.11 98.6427 181.131 98.3273 181.17 99.2945ZM177.168 103.128L177.227 104.836L175.648 106.248C173.266 108.378 170.827 109.906 170.534 109.451C170.156 108.865 171.044 104.911 171.563 104.867C171.623 104.862 171.854 104.765 172.078 104.652C172.408 104.485 172.486 104.714 172.494 105.872C172.502 107.037 172.597 107.311 173.011 107.367C173.919 107.489 174.511 106.46 174.635 104.541C174.738 102.959 174.848 102.678 175.585 102.116C176.916 101.103 177.101 101.221 177.168 103.128ZM163.074 103.188C163.303 103.321 163.422 103.513 163.338 103.615C163.13 103.867 162.268 103.566 162.255 103.237C162.241 102.899 162.545 102.88 163.074 103.188ZM24.6596 116.65C25.9931 119.143 25.6625 120.496 24.1065 118.914C23.5518 118.351 23.3914 117.873 23.3251 116.591C23.2219 114.588 23.5647 114.603 24.6596 116.65ZM160.361 105.652C160.771 106.506 160.349 106.983 159.898 106.176C159.726 105.869 159.58 105.476 159.573 105.302C159.55 104.727 160.017 104.934 160.361 105.652ZM111.148 111.133C111.693 111.589 112.251 111.953 112.389 111.941C112.807 111.906 112.092 111.255 111.097 110.765L110.159 110.303L111.148 111.133ZM27.6772 119.171C28.3609 119.866 29.0924 121.571 28.8387 121.879C28.2382 122.608 26.1082 120.13 26.4314 119.079C26.6392 118.402 26.9428 118.425 27.6772 119.171ZM168.346 109.014C168.299 109.512 168.429 110.305 168.636 110.777C168.935 111.46 168.946 111.732 168.687 112.109C168.222 112.788 167.332 112.792 167.306 112.117C167.293 111.812 167.01 111.229 166.675 110.82C165.926 109.908 166.082 109.305 167.233 108.656C168.432 107.981 168.445 107.985 168.346 109.014ZM31.4507 123.095C31.9438 123.632 32.3584 124.35 32.3718 124.69C32.3956 125.289 32.3734 125.294 31.6186 124.862C30.5492 124.249 29.8336 123.412 29.8071 122.743C29.7726 121.873 30.4656 122.021 31.4507 123.095ZM165.181 111.516C164.88 112.071 164.819 112.63 164.97 113.426C165.204 114.655 164.927 115.125 163.505 115.913L162.749 116.332L162.89 115.266C162.993 114.489 162.904 114.066 162.562 113.704C162.128 113.245 162.128 113.171 162.559 112.706C163.265 111.946 164.859 110.796 165.254 110.761C165.511 110.739 165.491 110.941 165.181 111.516ZM115.231 119.222C114.765 123.543 114.652 129.394 114.909 135.941L115.198 143.3L114.073 144.564C111.289 147.693 111.008 147.396 111.287 141.608C111.405 139.175 111.389 134.379 111.254 130.95C110.976 123.94 110.878 124.459 113.252 120.283C114.76 117.629 115.443 117.264 115.231 119.222ZM160.819 115.825C160.87 117.124 160.163 119.044 159.572 119.213C159.302 119.29 158.978 118.86 158.624 117.954L158.086 116.577L158.884 115.69C159.323 115.203 159.928 114.783 160.229 114.758C160.676 114.72 160.783 114.913 160.819 115.825ZM34.7691 126.296C35.0193 126.639 35.2336 127.157 35.2451 127.448C35.2762 128.234 34.5786 128.143 34.1785 127.308C33.4731 125.838 33.9005 125.106 34.7691 126.296ZM156.922 118.09C156.493 120.984 156.263 121.96 155.931 122.296C155.469 122.765 155.504 122.8 154.699 121.054C153.982 119.498 154.003 119.433 155.582 118.261C156.892 117.287 157.044 117.267 156.922 118.09ZM37.3447 128.867C37.6554 129.628 37.5851 130.162 37.1691 130.198C36.9521 130.216 36.6856 129.971 36.5771 129.654C36.239 128.668 36.9611 127.927 37.3447 128.867ZM153.02 121.27C153.063 122.374 152.394 124.82 151.916 125.306C151.618 125.608 151.533 125.601 151.52 125.272C151.511 125.042 151.235 124.35 150.906 123.735C150.578 123.12 150.305 122.521 150.301 122.405C150.292 122.195 152.386 120.57 152.781 120.479C152.894 120.453 153.001 120.809 153.02 121.27ZM40.402 131.911C41.3075 132.63 41.8918 133.619 41.6749 134.067C41.531 134.363 39.4919 133.02 39.046 132.336C38.7129 131.824 38.8219 131.25 39.2588 131.213C39.3899 131.202 39.9043 131.516 40.402 131.911ZM110.218 129.64C110.398 135.029 110.187 147.141 109.901 147.79C109.74 148.156 109.096 148.934 108.47 149.519C107.845 150.104 107.127 150.862 106.875 151.204C106.597 151.581 106.235 151.766 105.955 151.676C105.544 151.543 105.494 151.059 105.501 147.288C105.513 140.011 105.687 134.296 105.932 133.113C106.202 131.804 109.448 126.672 109.859 126.904C110.009 126.989 110.171 128.221 110.218 129.64ZM149.247 123.711C149.305 125.17 148.311 128.868 147.85 128.907C147.568 128.931 146.765 125.161 146.967 124.762C147.125 124.453 148.604 123.518 149.03 123.458C149.143 123.442 149.241 123.556 149.247 123.711ZM44.4388 136.502C45.0798 137.198 45.6078 137.856 45.6121 137.964C45.6163 138.072 44.7913 137.458 43.7786 136.6C42.7658 135.742 41.9955 134.926 42.0666 134.786C42.2496 134.427 43.0879 135.033 44.4388 136.502ZM145.416 127.251C145.354 127.707 145.245 128.687 145.172 129.431C145.1 130.174 144.904 131.105 144.737 131.5C144.475 132.12 144.386 132.162 144.077 131.805C143.791 131.475 143.797 131.162 144.106 130.245C144.452 129.22 144.447 129.048 144.056 128.636C143.459 128.005 143.491 127.641 144.196 127.033C145.138 126.222 145.546 126.295 145.416 127.251ZM141.412 130.506C141 130.947 140.525 131.23 140.355 131.134C139.968 130.914 141.069 129.773 141.708 129.732C142.043 129.711 141.966 129.912 141.412 130.506ZM48.5612 139.96C49.6567 141.12 49.8081 141.482 49.3463 141.838C48.9804 142.12 46.4062 139.667 46.6224 139.243C46.9311 138.637 47.5146 138.853 48.5612 139.96ZM105.007 134.549C105.089 134.676 104.986 136.527 104.779 138.664C104.519 141.341 104.464 144.183 104.604 147.807C104.835 153.832 104.978 153.403 102.005 155.626C101.119 156.289 99.8094 157.339 99.0942 157.96C98.331 158.623 97.6875 158.989 97.5372 158.846C97.3867 158.702 97.3625 157.986 97.4788 157.113C97.5879 156.295 97.6703 153.548 97.6622 151.01C97.6351 142.441 97.663 142.168 98.7105 140.764C100.225 138.734 100.463 138.965 100.362 142.368C100.242 146.377 100.505 153.149 100.813 153.995C101.324 155.398 101.454 153.787 101.37 147.123C101.265 138.735 101.359 138.113 103.068 135.997C104.384 134.366 104.725 134.111 105.007 134.549ZM138.816 132.573C138.818 132.696 138.401 133.134 137.887 133.547C137.373 133.961 136.947 134.163 136.941 133.995C136.934 133.828 137.321 133.393 137.8 133.028C138.787 132.277 138.808 132.267 138.816 132.573ZM141.869 132.911C141.896 133.741 141.626 134.793 141.382 134.814C140.98 134.848 140.76 133.713 141.044 133.067C141.383 132.294 141.846 132.206 141.869 132.911ZM52.4935 143.532C53.4744 144.535 53.7051 145.691 52.8415 145.275C52.0782 144.908 50.7681 143.347 50.9397 143.01C51.1956 142.508 51.6371 142.656 52.4935 143.532ZM138.957 136.056C138.997 137.077 137.571 138.985 137.099 138.542C136.648 138.118 137.143 136.528 137.942 135.837C138.721 135.163 138.923 135.207 138.957 136.056ZM134.95 139.6C134.979 140.37 133.927 142.036 133.449 141.978C132.753 141.894 132.678 140.852 133.31 140.031C133.899 139.265 134.928 138.995 134.95 139.6ZM96.8831 144.366C97.0808 145.078 96.9773 146.77 96.3601 152.907C96.0499 155.993 96.1628 159.141 96.6168 160.073C96.7946 160.438 96.2889 161.018 94.3077 162.725C91.6008 165.056 90.6728 165.457 90.5678 164.341C90.4041 162.605 90.0973 150.458 90.1893 149.354C90.2813 148.244 90.4557 147.967 91.7094 146.935C92.4883 146.294 93.204 145.844 93.3 145.935C93.6243 146.244 93.5867 149.102 93.2027 153.313C92.7894 157.849 92.8209 161.697 93.2738 161.954C93.7474 162.222 93.9716 160.864 94.022 157.423C94.1368 149.613 94.2794 146.324 94.5406 145.465C95.0633 143.745 96.5205 143.061 96.8831 144.366ZM131.076 143.203C130.821 144.307 130.194 145.334 129.837 145.238C129.245 145.078 129.262 144.139 129.872 143.353C130.646 142.354 131.292 142.274 131.076 143.203ZM60.0221 150.838C60.7442 151.601 61.7386 153.874 61.4162 154.024C60.7535 154.333 58.3477 151.401 58.6982 150.712C58.9359 150.246 59.5132 150.3 60.0221 150.838ZM89.7909 156.882C90.0138 164.647 89.9962 165.22 89.5219 165.631C88.911 166.159 88.8835 167.536 89.4848 167.485C90.1664 167.428 89.9773 167.943 88.9291 169C87.8413 170.096 87.3098 170.279 87.0505 169.643C86.8809 169.228 87.3625 163.68 87.7421 161.675C87.9241 160.715 87.9435 160.767 87.9506 162.228C87.9559 163.367 88.0701 163.87 88.34 163.944C88.6538 164.029 88.6666 163.564 88.4113 161.321C88.2407 159.821 87.9484 157.048 87.7619 155.159C87.4748 152.255 87.4262 152.046 87.4463 153.807C87.4662 155.552 87.4192 155.774 87.1579 155.172C86.8508 154.466 86.8749 151.266 87.1918 150.644C87.2938 150.443 87.4468 150.467 87.6065 150.709C87.7958 150.996 87.8542 150.941 87.8396 150.49C87.8116 149.63 88.5639 148.451 89.0989 148.517C89.5083 148.567 89.5757 149.382 89.7909 156.882ZM128.039 146.495C128.059 146.998 127.788 147.236 126.698 147.67C125.547 148.128 125.395 147.602 126.448 146.801C127.493 146.005 128.015 145.905 128.039 146.495ZM64.3575 154.587C64.8544 155.06 64.7429 155.573 64.1316 155.624C63.8785 155.646 63.8118 155.833 63.9398 156.162C64.1162 156.615 64.0727 156.614 63.5163 156.151C62.6366 155.42 62.6599 154.259 63.5557 154.183C63.7469 154.167 64.1076 154.349 64.3575 154.587ZM123.693 150.081C123.217 150.958 122 151.853 121.691 151.553C121.417 151.288 123.121 149.459 123.686 149.411C124.014 149.384 124.016 149.487 123.693 150.081ZM68.3195 158.386C68.5945 158.697 68.8272 159.075 68.8365 159.226C68.8595 159.597 67.4475 158.322 67.0495 157.612C66.7545 157.085 66.7711 157.072 67.2751 157.431C67.5746 157.645 68.0443 158.074 68.3195 158.386ZM120.015 153.259C120.03 153.638 119.246 154.37 119.038 154.172C118.829 153.973 119.411 153.048 119.763 153.018C119.896 153.007 120.009 153.115 120.015 153.259ZM117.092 156.212C117.098 156.369 116.861 156.662 116.565 156.862C115.972 157.263 115.825 156.951 116.323 156.346C116.705 155.884 117.076 155.818 117.092 156.212ZM81.1963 172.288C81.9257 172.95 82.1366 173.298 81.8801 173.418C81.6764 173.513 80.9178 173.028 80.1945 172.339C79.1613 171.355 79.0146 171.112 79.5107 171.209C79.8578 171.277 80.6164 171.763 81.1963 172.288ZM84.126 175.235C85.4115 176.483 85.4695 176.734 84.3541 176.221C83.4405 175.8 82.4535 174.879 82.4358 174.432C82.4093 173.764 82.8065 173.953 84.126 175.235ZM94.2396 175.357C93.783 175.887 93.7752 175.879 94.0644 175.19C94.2308 174.794 94.4456 174.544 94.5418 174.636C94.6383 174.727 94.5022 175.052 94.2396 175.357Z"/>
</mask>
<path fill-rule="evenodd" clip-rule="evenodd" d="M149.813 2.03239C148.769 2.53712 147.244 3.2885 146.425 3.70193C145.08 4.38005 144.49 4.48013 140.385 4.72708C129.835 5.36194 125.446 5.83504 123.596 6.53698C121.294 7.41055 117.857 9.52583 116.177 11.1037C113.727 13.4035 108.234 19.1819 105.696 22.1268C104.315 23.7292 101.72 26.6156 99.9283 28.5413C96.4343 32.2963 95.6399 33.3962 95.6805 34.421C95.7062 35.0693 94.1613 37.2285 93.6404 37.2725C93.4906 37.2851 93.0907 36.7347 92.7523 36.0493C92.1687 34.8681 92.053 34.7933 90.5228 34.6095C86.6717 34.1473 83.7854 34.1566 80.0731 34.643C71.7126 35.7378 63.3089 38.7502 56.4002 43.1286C50.2278 47.0403 45.9055 51.2569 38.2177 60.8671C31.2557 69.5699 29.4129 71.2753 23.473 74.5119C19.0741 76.9091 15.1657 78.2334 11.3366 78.6248C9.51974 78.8105 7.89262 78.9917 7.72048 79.028C7.53053 79.0681 7.39605 79.9427 7.37763 81.2559C7.35438 82.9077 7.09501 84.2088 6.27971 86.7691C5.00251 90.7786 4.52028 91.4498 2.60318 91.8879C0.863576 92.2856 0.163106 93.0851 0.22332 94.6042C0.280085 96.0362 0.391146 96.1674 9.79059 105.906C19.2618 115.718 23.1541 119.479 30.2394 125.665C33.1754 128.228 42.1608 136.641 50.2069 144.36C58.2529 152.079 68.0037 161.344 71.8751 164.949C75.7925 168.597 79.7421 172.556 80.7803 173.876C83.7651 177.67 90.1245 183.463 90.6283 182.846C90.6852 182.776 90.612 182.157 90.4656 181.469C90.164 180.051 89.9956 180.266 93.8749 177.13C94.9796 176.238 96.8447 174.655 98.0196 173.614C99.1944 172.573 103.29 169.215 107.121 166.151C111.351 162.769 117.385 157.529 122.485 152.808C136.206 140.105 146.334 131.323 165.104 115.848C170.992 110.994 178.404 105.007 181.575 102.544C186.55 98.6791 196.089 90.9322 200.854 86.8853C207.503 81.2401 210.126 79.1451 211.258 78.5771C212.717 77.8446 215.352 75.95 227.561 66.8542C232.139 63.4444 237.218 59.8035 238.849 58.7638C242.615 56.3632 243.185 55.8549 243.342 54.761C243.531 53.4498 247.919 49.8833 249.526 49.734C250.545 49.6395 250.6 49.5961 250.125 49.2589C249.764 49.003 249.651 48.6867 249.762 48.2419C250.063 47.0329 249.431 46.7731 246.744 46.9997C244.363 47.2005 244.181 47.1675 242.202 46.1808C240.263 45.2134 237.393 44.3227 237.153 44.6139C237.093 44.6863 238.279 45.2746 239.788 45.9212C241.298 46.5674 242.965 47.2859 243.493 47.5168C244.723 48.0553 245.185 48.7374 244.815 49.4706C244.665 49.7699 243.327 50.8536 241.843 51.8783C239.696 53.3615 238.994 54.0227 238.4 55.1182C237.502 56.774 235.443 58.3859 231.525 60.5007C226.011 63.4765 223.142 65.3915 219.137 68.7675C216.894 70.6579 213.241 73.405 211.019 74.8719C205.428 78.5635 200.53 82.0744 188.981 90.6692C173.778 101.985 172.928 102.639 163.904 109.981C159.265 113.756 153.296 118.476 150.639 120.471C147.981 122.466 144.845 124.93 143.669 125.946C139.18 129.825 125.893 141.933 115.037 152.036C112.74 154.173 108.032 158.277 104.574 161.154C96.3741 167.979 94.1672 170.024 91.7695 173.022C89.4832 175.882 89.0302 176.055 87.1214 174.801C85.165 173.515 67.3804 156.526 66.7181 155.31C66.3452 154.626 65.8171 154.133 65.2954 153.983C64.83 153.85 64.0836 153.213 63.5964 152.533C63.0926 151.83 62.1041 150.996 61.2445 150.549C60.4289 150.126 59.1263 149.074 58.3495 148.212C56.8286 146.526 56.3784 146.59 56.7354 148.444C56.8875 149.233 56.8439 149.437 56.5397 149.356C55.9238 149.192 54.8082 147.121 54.8045 146.135C54.8025 145.643 54.7813 145.062 54.7572 144.843C54.7333 144.624 53.025 142.807 50.9612 140.806C48.7019 138.615 47.1115 136.835 46.9644 136.333C46.8231 135.85 46.3101 135.257 45.749 134.927C43.6933 133.717 43.2135 133.237 43.1787 132.359C43.143 131.458 42.4997 130.939 41.5207 131.022C40.9629 131.069 40.4273 130.547 36.1467 125.788C34.7154 124.197 32.9248 122.437 32.1677 121.876C31.4103 121.316 30.596 120.416 30.3577 119.877C30.1184 119.336 29.4519 118.62 28.867 118.277C27.805 117.654 25.9696 115.879 21.849 111.49C20.63 110.192 19.2349 108.988 18.7485 108.815C18.1379 108.597 17.6619 108.094 17.2103 107.187C16.7568 106.276 16.3631 105.86 15.9238 105.83C15.576 105.806 14.4915 105.091 13.5145 104.241C12.5374 103.39 10.9998 102.112 10.0974 101.401C9.1564 100.659 8.44727 99.8659 8.43444 99.5424C8.41975 99.1719 7.73289 98.5644 6.43658 97.7757C4.52765 96.6142 3.89257 96.5254 3.92823 97.4248C3.93756 97.6603 3.83555 97.8619 3.70167 97.8732C3.41628 97.8972 1.28139 95.6929 1.42326 95.5207C1.47627 95.4564 1.9785 95.3316 2.53939 95.2432C3.73644 95.055 3.80181 94.8353 2.83503 94.2505C1.56864 93.4846 1.92613 93.069 4.51074 92.304C7.45104 91.4332 7.80185 91.2118 7.25065 90.5756C6.91292 90.1856 6.92065 89.8716 7.30312 88.4478C7.95054 86.0379 8.2467 86.0695 8.11998 88.5344C8.04903 89.9171 8.10908 90.651 8.29199 90.6356C8.61897 90.608 8.7232 90.0997 9.05887 86.8954C9.20862 85.4647 9.45096 84.4662 9.67585 84.3525C10.2985 84.0373 11.7109 84.7203 12.5068 85.7216C12.9219 86.2439 14.6881 87.8484 16.4316 89.2874C18.1752 90.7265 28.7099 100.467 39.8419 110.932C64.9236 134.513 68.0109 137.282 77.9727 145.121C80.2568 146.918 82.4666 148.818 82.8838 149.343C84.1568 150.944 84.352 152.147 84.4116 158.748C84.4651 164.684 84.3459 165.834 83.6713 165.891C83.4842 165.906 80.9331 163.409 78.0022 160.34C75.0713 157.272 67.4257 149.774 61.0117 143.679C48.5099 131.797 19.1431 103.54 14.256 98.6899C12.6238 97.0699 11.0352 95.6226 10.7259 95.4738C10.1871 95.2143 10.1819 95.2364 10.5982 96.0055C12.4618 99.447 17.4805 104.731 33.8619 120.5C41.6863 128.032 49.4483 135.556 51.1104 137.219C52.7725 138.883 60.1959 146.136 67.607 153.337C78.5389 163.959 81.5825 166.754 83.7351 168.148C85.1943 169.093 86.4743 170 86.5797 170.164C86.6849 170.327 86.4367 170.788 86.0277 171.187C85.0961 172.097 85.519 172.418 87.0926 171.996C87.8603 171.79 88.4294 171.393 88.874 170.754C89.7905 169.436 96.1926 163.617 105.595 155.555C110.006 151.773 116.736 145.848 120.551 142.387C128.131 135.511 131.682 132.361 135.771 128.887C137.241 127.637 140.585 124.766 143.201 122.506L147.958 118.397L148.639 119.005C149.48 119.755 149.908 119.471 149.858 118.198C149.807 116.914 150.475 116.202 153.308 114.527C154.891 113.59 156.641 112.154 158.93 109.913C163.19 105.742 163.757 105.336 165.831 104.97C168.956 104.42 172.26 101.77 173.797 98.5817C174.655 96.8021 175.815 95.6163 178.928 93.3344C180.369 92.2779 184.203 89.3568 187.448 86.8428C190.692 84.3288 196.67 79.8074 200.731 76.795C217.236 64.552 239.566 47.7932 239.896 47.4008C239.956 47.329 239.934 47.2013 239.845 47.1173C239.757 47.033 238.145 47.9826 236.264 49.2276C234.382 50.4722 232.772 51.4243 232.687 51.343C232.509 51.1734 233.172 50.6939 236.376 48.6769C237.842 47.7535 238.694 47.0327 238.741 46.6749C238.858 45.7783 238.389 45.5674 237.17 45.9692C236.561 46.1701 235.909 46.2471 235.721 46.1408C235.182 45.8348 235.614 44.6663 236.301 44.5735C236.756 44.5122 236.676 44.4344 235.975 44.2543C235.384 44.1022 234.305 43.2284 232.991 41.836L230.932 39.656L229.636 39.9592C228.486 40.228 228.138 40.1605 226.558 39.3632C225.579 38.8689 222.896 37.7378 220.595 36.8497C218.295 35.9615 214.752 34.4247 212.721 33.4346C210.69 32.4442 206.621 30.498 203.677 29.1095C191.954 23.5793 189.04 21.9759 174.716 13.173C169.652 10.0612 163.502 6.36491 161.049 4.95887C158.596 3.55284 156.514 2.2859 156.422 2.14323C156.33 2.00056 156.4 1.67333 156.576 1.41601C157.061 0.709451 156.682 0.584136 155.615 1.09764C154.869 1.45655 154.498 1.49384 153.929 1.26715C152.853 0.837866 151.928 1.00965 149.813 2.03239ZM151.549 3.97845C149.633 5.79781 146.362 7.03775 143.772 6.92612C141.67 6.83531 141.918 6.54546 144.276 6.3359C146.04 6.17912 146.781 5.94034 148.82 4.87123C151.524 3.45423 152.404 3.1662 151.549 3.97845ZM158.516 5.42205C159.907 5.99667 161.222 6.67444 161.439 6.92808C161.846 7.40339 156.254 5.22075 155.187 4.48753C154.603 4.08671 154.604 4.08241 155.29 4.22862C155.673 4.31008 157.125 4.84712 158.516 5.42205ZM154.95 4.97871C155.592 5.23427 157.816 6.42819 159.892 7.63224C161.967 8.83598 165.828 11.0517 168.472 12.5557C171.116 14.0597 175.507 16.5789 178.23 18.154C185.42 22.313 189.87 24.5041 198.199 27.9872C202.271 29.6898 207.948 32.2459 210.815 33.6673C216.625 36.548 223.644 39.5938 226.305 40.3889C227.267 40.6763 228.058 41.0215 228.063 41.156C228.092 41.8878 222.679 44.9453 218.17 46.7442C215.657 47.7468 214.697 47.9776 211.899 48.2531C208.718 48.566 208.539 48.5501 207.096 47.8274C205.97 47.2635 205.624 46.9406 205.706 46.5298C205.795 46.0824 205.646 45.9973 204.885 46.0614C204.152 46.1232 203.484 45.7798 201.737 44.4409C199.586 42.7931 198.518 42.1305 198.073 42.168C197.612 42.2069 201.141 45.3527 203.81 47.2817L206.62 49.3124L205.705 49.7532C205.202 49.9955 204.276 50.2475 203.648 50.313C202.631 50.419 202.261 50.2384 200.266 48.6636C197.615 46.5716 195.824 45.5485 195.157 45.7448C194.688 45.8829 195.542 46.6568 199.092 49.313C200.011 50.0007 200.05 50.0894 199.618 50.4943C199.36 50.7353 198.565 51.0686 197.851 51.2351C196.526 51.5446 195.975 51.384 193.117 49.8556C191.782 49.1416 191.67 49.7062 192.907 50.9145C193.504 51.4977 193.884 52.0587 193.75 52.1617C193.617 52.2644 192.248 52.5951 190.708 52.8965C181.803 54.6398 171.735 59.6155 165.588 65.3101C164.122 66.6686 162.672 67.8729 162.367 67.9865C161.146 68.4403 158.038 66.5698 157.989 65.353C157.969 64.8415 157.809 64.6254 157.47 64.6539C157.201 64.6766 156.697 64.5104 156.35 64.2844C155.432 63.6868 155.056 64.1501 155.761 65.0098C156.109 65.4347 156.26 65.8681 156.132 66.0746C156.013 66.2664 155.611 67.0726 155.238 67.8659C154.612 69.2013 154.602 69.2939 155.102 69.1087C155.399 68.9985 155.633 68.6666 155.621 68.3709C155.602 67.8841 156.737 66.5029 157.188 66.4649C157.622 66.4282 161.192 69.4587 161.209 69.8784C161.219 70.1322 160.871 70.7721 160.436 71.3003C159.934 71.91 159.657 72.5639 159.678 73.0917C159.716 74.0402 159.123 74.7907 158.497 74.5879C157.952 74.4114 157.934 73.707 158.427 71.8772C158.804 70.4764 158.798 70.3864 158.301 70.0476C157.493 69.4957 156.972 69.6355 157.347 70.3039C157.795 71.1054 157.797 72.836 157.35 73.2898C156.455 74.1978 155.013 72.8506 154.584 70.7054C154.382 69.6972 154.325 69.6293 154.174 70.2187C154.078 70.5956 153.92 70.9103 153.824 70.9184C153.727 70.9266 153.01 70.5072 152.23 69.9865C151.45 69.4658 150.448 68.8685 150.004 68.6591C149.211 68.2859 149.204 68.2898 149.62 68.8591C150.357 69.8698 153.917 72.6952 155.323 73.3854C156.495 73.9606 156.681 74.1734 156.713 74.9814C156.795 77.0692 155.547 77.2403 152.783 75.5201C151.66 74.821 150.424 74.1013 150.037 73.921L149.333 73.5932L149.901 74.205C150.214 74.5414 151.495 75.4774 152.748 76.2852C155.996 78.3787 157.445 79.5244 157.465 80.0136C157.508 81.0951 155.166 79.9552 151.028 76.88C150.014 76.127 149.235 75.7731 148.69 75.819C147.668 75.9052 145.955 74.8368 140.082 70.4478C137.579 68.5772 133.696 65.9226 131.454 64.5485C126.863 61.7352 125.315 60.5227 125.037 59.5233C124.895 59.0143 124.367 58.6607 122.994 58.1569C121.822 57.727 120.879 57.1474 120.428 56.5802C120.037 56.0869 119.433 55.6314 119.088 55.5676C118.435 55.4475 114.667 53.2049 112.323 51.5416C111.341 50.8449 110.917 50.3198 110.763 49.6111C110.529 48.53 109.923 48.1114 108.738 48.2113C107.719 48.2972 107.268 47.847 107.223 46.6982C107.203 46.1906 107.023 45.5749 106.823 45.3299C106.221 44.5911 100.818 40.864 100.597 41.0345C100.484 41.1215 100.039 40.6482 99.6087 39.9821C98.6079 38.4328 97.4319 37.2277 97.1403 37.4524C96.553 37.9049 97.0995 38.8561 98.7057 40.1756C100.977 42.0417 100.297 42.3695 97.5973 40.7099C95.345 39.3251 94.6244 39.155 94.6585 40.0162C94.6764 40.4683 94.9132 40.6262 95.6521 40.6776C96.6263 40.7456 96.7885 41.0637 96.5193 42.3824C96.4517 42.7133 96.7692 42.8438 97.7497 42.8889C98.9154 42.9422 99.2978 43.1614 101.002 44.7527C102.064 45.7446 103.503 46.8058 104.199 47.111C106.008 47.9042 106.208 48.0943 105.921 48.7481C105.645 49.3791 106.073 49.6274 107.262 49.5271C108.045 49.4611 109.068 50.1115 111.917 52.4878C112.964 53.3602 114.168 54.1444 114.594 54.2303C115.766 54.4663 115.799 55.0622 114.645 55.1594C113.63 55.2451 113.135 55.7321 113.607 56.1819C113.76 56.327 114.994 56.5326 116.351 56.6386C120.254 56.9437 121.573 57.8138 118.997 58.3837L117.785 58.6515L118.627 58.9672C119.09 59.1408 120.287 59.5381 121.287 59.8502C125.444 61.1469 125.804 61.4244 124.009 61.9428C121.933 62.5426 122.746 63.2067 125.889 63.4784C127.57 63.6235 128.199 63.8433 129.426 64.7144C131.304 66.0465 131.351 66.4128 129.626 66.2571C127.384 66.0548 126.673 66.1602 126.595 66.7074C126.5 67.3683 127.749 67.6687 130.58 67.6659C134.83 67.662 135.58 68.0768 132.417 68.6819C131.03 68.9475 130.501 69.1663 130.513 69.4708C130.538 70.1025 131.733 70.2041 134.221 69.787L136.453 69.4126L138.091 70.6613C138.992 71.3481 139.677 71.9736 139.613 72.0514C139.549 72.1295 138.452 72.1142 137.176 72.0177C135.341 71.8794 134.726 71.93 134.238 72.2598C133.883 72.4997 133.729 72.7793 133.874 72.9175C134.202 73.2302 137.572 73.4662 139.51 73.3125C141.595 73.1472 142.865 73.4713 143.807 74.4091C144.791 75.3892 144.498 75.7257 142.515 75.8929C141.229 76.0013 141.139 76.0587 141.167 76.7512C141.194 77.4355 141.293 77.484 142.435 77.3719C143.116 77.3052 144.421 77.0803 145.334 76.8723L146.994 76.4937L149.128 78.4716C150.303 79.5599 151.012 80.3755 150.704 80.2846C148.438 79.6155 146.182 79.5168 144.197 79.9996C139.039 81.2554 131.74 85.5943 127.498 89.9277C126.863 90.576 126.076 91.1281 125.75 91.1545C125.423 91.1808 124.214 90.6078 123.063 89.881C121.913 89.1541 120.899 88.6475 120.81 88.7551C120.65 88.95 122.524 90.6565 124.19 91.8319C124.673 92.1722 125.072 92.5695 125.078 92.7147C125.083 92.8598 124.75 93.4476 124.338 94.0203C123.925 94.5933 123.344 95.6478 123.047 96.3635C122.402 97.92 122.178 97.9029 120.014 96.135C116.753 93.4705 115.838 92.8942 115 92.9764L114.174 93.0574L114.812 93.4709C115.605 93.9849 115.616 94.2139 114.907 95.4501C114.387 96.3571 114.385 96.3913 114.877 95.8709C115.6 95.1052 115.781 95.1188 117.99 96.1102C120.267 97.132 121.702 98.206 121.73 98.9098C121.755 99.5249 120.5 101.959 119.732 102.788C119.414 103.131 119.03 103.301 118.83 103.188C118.594 103.054 118.539 103.131 118.658 103.425C118.876 103.958 118.05 106.313 117.31 107.268L116.766 107.969L115.326 107.327C113.105 106.338 110.904 104.693 110.876 104C110.863 103.669 110.734 103.49 110.588 103.602C110.443 103.714 109.364 103.142 108.191 102.332C107.018 101.522 105.933 100.869 105.78 100.882C105.192 100.932 105.576 101.509 106.848 102.49C107.576 103.051 108.489 103.758 108.878 104.062L109.585 104.613L108.424 106.809C107.116 109.284 106.369 110.96 106.582 110.942C106.661 110.935 107.374 109.735 108.167 108.276C109.065 106.625 109.791 105.608 110.091 105.582C110.686 105.532 115.175 108.104 115.572 108.723C116.012 109.408 115.665 110.61 114.649 111.915C114.145 112.562 113.81 113.211 113.904 113.356C113.997 113.502 113.771 114.174 113.402 114.852C112.441 116.61 111.766 116.567 109.759 114.62C108.865 113.753 107.821 112.655 107.438 112.18C106.759 111.337 104.636 110.254 104.347 110.605C104.268 110.701 104.447 111.267 104.745 111.862C105.112 112.593 105.485 112.941 105.897 112.937C106.232 112.934 107.059 113.415 107.736 114.006C108.412 114.596 109.572 115.466 110.313 115.939C111.741 116.848 112.097 117.792 111.313 118.588C110.976 118.93 110.429 118.657 107.926 116.899C105.465 115.171 104.955 114.685 105.018 114.126C105.101 113.383 104.853 113.31 104.062 113.845C103.761 114.049 103.554 114.51 103.571 114.939C103.596 115.566 103.677 115.63 104.093 115.349C104.761 114.897 106.047 115.639 108.159 117.697C109.792 119.289 110.354 120.32 110.077 121.22C109.869 121.897 109.18 121.842 108.088 121.062C106.561 119.971 106.236 120.536 107.662 121.804L108.899 122.904L108.396 124.108C107.732 125.701 104.948 130.273 103.634 131.93C102.957 132.783 102.413 133.215 102.095 133.153C101.732 133.082 101.402 133.489 100.835 134.709C99.2698 138.078 92.567 144.115 88.4441 145.868C86.3662 146.752 85.1806 146.848 83.8448 146.239C81.2597 145.062 73.3549 138.536 64.5168 130.283C60.5703 126.597 54.6971 121.195 51.4651 118.278C41.779 109.536 34.1704 102.311 29.2747 97.2061C23.4733 91.1575 22.2343 90.0417 18.1148 87.1586C13.6974 84.0667 10.3384 81.0495 10.9579 80.7301C11.2071 80.6015 13.0665 80.2226 15.0903 79.8878C20.6425 78.9693 24.5196 76.9509 31.2681 71.4659C35.113 68.341 37.8854 65.5439 44.652 57.9638C54.5721 46.8512 56.4509 45.0654 60.137 43.2472C63.0848 41.7932 68.793 39.7741 72.5155 38.8687C76.4928 37.9013 84.0119 37.1842 86.8641 37.5007C88.5952 37.6925 88.8775 37.8123 89.0483 38.4266C89.2708 39.2272 89.6113 39.2414 92.5848 38.5737C94.1948 38.2122 94.6232 37.9667 96.06 36.5829L97.6986 35.0044L98.8978 36.3815C101.514 39.3854 109.104 45.3422 109.065 44.3608C109.043 43.7965 106.329 41.1996 104.855 40.3314C104.023 39.8414 103.339 39.3653 103.335 39.2735C103.324 38.9761 104.095 37.2845 104.249 37.2715C104.676 37.2355 105.834 38.0237 107.62 39.5666C109.44 41.1386 110.338 41.6125 110.313 40.9885C110.308 40.8573 109.862 40.3427 109.322 39.8446C108.689 39.2606 108.391 38.763 108.484 38.4421C108.805 37.3272 110.261 35.1002 113.245 31.1586C114.976 28.8717 116.389 26.9273 116.386 26.8373C116.356 26.0768 110.402 33.2964 109.234 35.5109C107.726 38.3675 107.885 38.2579 106.297 37.54C105.221 37.0538 104.894 36.7489 104.872 36.2131C104.834 35.2373 105.858 33.5036 108.229 30.5322C111.004 27.0531 111.634 25.5774 109.528 27.4888C107.612 29.2271 106.342 30.9644 105.557 32.919C105.056 34.1666 104.467 35.1215 103.985 35.4664C103.487 35.8236 103.271 36.1831 103.374 36.4848C103.461 36.741 103.302 37.2906 103.021 37.706C102.603 38.3211 102.414 38.4077 101.996 38.1742C101.715 38.0166 101.433 37.6617 101.371 37.3855C101.241 36.8115 101.994 35.6745 102.534 35.629C102.738 35.6118 102.821 35.4151 102.725 35.1781C102.468 34.5492 103.593 31.8151 105.252 29.0342C106.063 27.6762 106.643 26.4879 106.542 26.3937C106.218 26.0904 103.676 29.6842 102.81 31.669C101.942 33.6604 101.238 34.1445 100.358 33.3552C100.149 33.1682 100.295 33.553 100.682 34.2104C101.336 35.322 101.355 35.4434 100.95 35.9347C100.545 36.4263 100.454 36.4308 99.6487 35.9968C98.6317 35.449 98.303 34.8411 98.869 34.5545C99.4792 34.2457 99.327 33.7469 98.7048 34.0159C97.1083 34.706 98.8356 32.5132 104.889 26.165C107.662 23.257 111.548 18.9778 113.524 16.6556C118.346 10.9899 120.321 9.61683 125.465 8.35179C129.697 7.31075 134.019 7.11766 137.88 7.79668C140.542 8.26448 141.836 8.33139 144.251 8.12602L147.281 7.86785L149.822 6.24446C152.632 4.44913 153.239 4.29935 154.95 4.97871ZM116.869 35.8223C114.226 39.4814 113.859 40.5227 116.35 37.2936C118.147 34.9649 119.365 33.0185 119.007 33.0487C118.928 33.0553 117.966 34.3034 116.869 35.8223ZM188.596 28.6596C188.223 28.8206 186.942 29.4692 185.751 30.101C183.908 31.0784 183.268 31.271 181.449 31.3936C179.308 31.5384 178.615 31.976 180.159 32.2089C181.715 32.4438 183.936 32.0834 185.607 31.3251C187.567 30.4354 190.209 28.8697 190.407 28.4801C190.574 28.1514 189.535 28.2546 188.596 28.6596ZM103.561 43.876C104.261 44.3048 105.072 44.9066 105.362 45.2133C105.875 45.7551 105.874 45.7721 105.337 45.8174C104.662 45.8744 102.577 44.5058 102.134 43.7139C101.689 42.9181 102.066 42.961 103.561 43.876ZM198.02 36.9372C197.959 37.0117 196.345 37.3402 194.434 37.6669C191.953 38.0912 190.567 38.4806 189.584 39.029C188.828 39.4511 188.213 39.914 188.219 40.057C188.232 40.3767 188.129 40.3881 189.891 39.8749C190.695 39.6409 192.761 39.1969 194.481 38.888C198.036 38.2502 199.849 37.6712 200.286 37.0339C200.535 36.6703 200.376 36.6126 199.359 36.6983C198.684 36.7552 198.082 36.8626 198.02 36.9372ZM63.9666 50.162C59.9565 51.9134 55.9675 55.1752 52.8441 59.2573C50.6263 62.156 46.9924 68.1983 47.0218 68.9387C47.0513 69.6835 47.7931 69.5921 47.985 68.8197C48.2725 67.6642 51.3126 63.0289 53.8937 59.811C56.9418 56.0114 59.8889 53.311 63.437 51.0668C66.2045 49.3165 66.308 49.1395 63.9666 50.162ZM135.575 46.7675C133.874 48.8387 131.318 53.0394 131.597 53.3054C131.671 53.3757 132.041 52.8668 132.419 52.1743C132.797 51.4821 133.96 49.7393 135.003 48.3018C136.046 46.8643 137.059 45.4397 137.255 45.1367C137.984 44.005 137.295 44.674 135.575 46.7675ZM143.889 48.8961C141.339 51.8925 138.673 55.8597 137.821 57.9284C136.915 60.1266 137.025 60.5426 138.025 58.6983C139.412 56.1414 141.871 52.4841 143.76 50.1687C147.813 45.1992 147.919 44.1615 143.889 48.8961ZM207.193 43.1644C208.311 44.205 209.51 45.1088 209.858 45.173C210.206 45.2371 211.171 45.8376 212.002 46.5074C213.533 47.7418 214.026 47.8542 214.145 46.9954C214.187 46.6904 213.648 46.2128 212.643 45.6632C211.436 45.0042 211.106 44.6796 211.211 44.2565C211.324 43.8032 211.235 43.7466 210.707 43.9362C210.275 44.0909 209.769 43.9664 209.164 43.5566C208.669 43.2213 207.691 42.5598 206.99 42.0863C204.931 40.6948 205.014 41.1348 207.193 43.1644ZM70.4585 53.6418C68.0504 55.2701 64.81 58.5325 63.265 60.8845C62.4158 62.1773 61.7241 63.3177 61.7282 63.4189C61.7322 63.5198 62.8344 62.2992 64.1773 60.706C66.2585 58.2374 68.776 55.7376 71.5636 53.3717C72.5498 52.535 71.8386 52.7088 70.4585 53.6418ZM214.239 41.0509C214.256 41.4867 215.502 42.4013 216.944 43.0371C219.944 44.3604 220.562 44.0536 217.958 42.5335C216.318 41.5765 214.66 40.7695 214.381 40.793C214.297 40.8 214.234 40.9162 214.239 41.0509ZM152.484 52.1718C148.039 56.4684 145.843 59.664 145.57 62.2321C145.448 63.378 145.471 63.3529 146.042 61.6925C146.907 59.1786 147.907 57.8094 151.412 54.3364C154.226 51.5484 155.545 49.9237 154.956 49.9734C154.837 49.9835 153.725 50.9726 152.484 52.1718ZM229.535 46.2913C229.482 47.5652 229.328 49.1508 229.194 49.8147C228.884 51.3534 226.986 53.7291 226.002 53.8121C225.343 53.8676 225.307 53.798 225.382 52.5985C225.71 47.3087 226.02 46.2526 227.374 45.8137C227.811 45.6724 228.44 45.2056 228.773 44.7764C229.105 44.3474 229.435 43.9914 229.505 43.9855C229.575 43.9796 229.589 45.0173 229.535 46.2913ZM233.445 47.0913L234.185 47.6378L232.308 49.1978C229.686 51.3769 229.546 51.3464 229.907 48.6764C230.382 45.1565 230.292 45.3014 231.592 45.9713C232.205 46.2869 233.039 46.7911 233.445 47.0913ZM224.641 49.8314C224.516 54.8277 224.181 55.4578 220.35 57.9087L218.196 59.2874L218.309 57.8371C218.516 55.2004 218.994 50.7864 219.086 50.6753C219.395 50.302 223.821 47.7411 224.215 47.7079C224.641 47.672 224.69 47.9139 224.641 49.8314ZM81.4326 61.9666C80.2555 62.951 78.7008 64.5192 77.9777 65.4514C76.994 66.7198 76.9295 66.8506 77.7219 65.9713C78.3043 65.325 79.9664 63.7444 81.4154 62.4592C84.5097 59.7142 84.5212 59.3841 81.4326 61.9666ZM217.875 51.3958C218.087 51.9141 217.559 58.8973 217.225 59.9938C217.017 60.6794 214.002 63.0005 213.52 62.8457C213.213 62.7465 213.322 60.8212 213.815 57.6832C214.048 56.197 214.219 54.4943 214.196 53.8997C214.15 52.7526 214.603 52.0402 215.762 51.4337C216.779 50.9018 217.667 50.8858 217.875 51.3958ZM213.577 52.2535C213.584 52.4578 213.398 54.0194 213.162 55.7242C212.926 57.4291 212.755 59.4018 212.783 60.108C212.811 60.8142 212.78 62.0202 212.713 62.7883C212.597 64.1367 212.525 64.2375 210.639 65.7023C209.564 66.5369 208.544 67.425 208.372 67.676C207.76 68.5685 207.302 68.263 207.249 66.9272C207.167 64.8495 207.527 60.805 208.119 57.1636C208.424 55.2849 208.597 53.6286 208.503 53.4826C208.409 53.3365 208.494 53.1947 208.692 53.1676C208.89 53.1402 209.788 52.8747 210.688 52.5775C212.803 51.8789 213.56 51.7942 213.577 52.2535ZM201.928 53.6209C202.18 54.2391 201.616 59.9505 200.379 69.3055C200.198 70.6709 200.216 71.2749 200.443 71.4913C201.178 72.191 201.709 68.9357 202.296 60.1297C202.504 56.9996 202.771 54.1234 202.888 53.7383C203.089 53.0759 203.223 53.0324 205.379 52.9325L207.658 52.8271L207.78 53.7586C207.847 54.2709 207.506 57.1143 207.022 60.0774C206.538 63.0404 206.083 66.1787 206.011 67.0518C205.835 69.1928 205.139 70.1113 201.415 73.1149C194.465 78.7221 193.911 79.0279 193.839 77.299C193.817 76.7682 194.492 71.4049 195.338 65.3804C197.039 53.2757 196.711 54.3032 198.716 54.7921C199.292 54.9324 199.349 54.8769 199.17 54.3535C199.008 53.8828 199.099 53.7143 199.591 53.5701C200.96 53.169 201.751 53.186 201.928 53.6209ZM195.998 55.0111C196.008 55.2611 195.695 56.8584 195.302 58.5606C194.456 62.2297 193.136 73.1195 193.2 75.9077C193.276 79.2012 193.157 79.5189 191.28 81.0434C189.135 82.7856 188.313 83.3392 188.13 83.1652C188.05 83.0889 188.165 81.4818 188.385 79.5939C188.606 77.706 188.995 73.262 189.251 69.7184C189.871 61.1044 190.284 57.2255 190.639 56.6753C190.979 56.1471 194.109 54.7555 195.223 54.6369C195.726 54.5834 195.986 54.7089 195.998 55.0111ZM189.163 56.7756C189.46 57.1181 189.445 57.9196 189.086 61.0264C188.843 63.1321 188.357 68.7662 188.005 73.5465C187.654 78.3269 187.268 82.7366 187.148 83.3463C186.814 85.0471 183.918 87.8034 182.834 87.4522C182.478 87.3369 182.462 87.0144 182.712 84.963C183.334 79.8518 184.568 65.6073 184.671 62.3604C184.787 58.6865 184.926 57.8712 185.44 57.8279C185.618 57.8128 186.241 57.4923 186.822 57.1156C188.088 56.2955 188.673 56.2104 189.163 56.7756ZM184.531 58.6066C184.537 58.7933 184.364 60.7705 184.145 63.0005C183.926 65.2305 183.407 70.9036 182.991 75.6075C181.946 87.4169 181.889 87.8071 181.032 88.9879C179.905 90.5415 177.343 92.6182 176.98 92.2721C176.65 91.9582 177.309 82.5991 178.513 70.4748C179.641 59.1234 179.471 59.9565 180.783 59.3101C183.291 58.0737 184.503 57.8461 184.531 58.6066ZM241.829 54.9006C241.781 55.4303 241.564 55.6524 240.973 55.7754C240.263 55.9235 240.196 55.8677 240.326 55.2343C240.405 54.8458 240.468 54.4375 240.466 54.3269C240.46 54.0295 241.378 53.7758 241.655 53.9985C241.786 54.1042 241.864 54.5101 241.829 54.9006ZM160.068 62.006C160.08 62.3162 162.704 64.7899 163.389 65.1372C163.797 65.3438 163.768 65.2267 163.235 64.508C161.74 62.4917 160.034 61.1442 160.068 62.006ZM178.411 60.8212C178.517 60.9856 178.448 62.2314 178.258 63.5892C177.244 70.8168 175.509 88.9827 175.604 91.3739C175.711 94.0566 175.521 94.7394 174.544 95.1977C174.165 95.3754 173.744 95.1389 172.918 94.2843C171.603 92.9224 171.526 92.3436 172.173 88.6806C172.662 85.9086 172.77 84.4639 173.353 72.8618C173.85 62.9667 173.997 62.4544 176.752 61.0594C177.832 60.5126 178.18 60.4627 178.411 60.8212ZM173.308 65.5524C173.253 66.3762 172.928 69.1428 172.587 71.7003C172.246 74.2581 171.862 78.5126 171.733 81.1546C171.442 87.1434 171 92.1573 170.737 92.4771C170.534 92.7236 167.73 92.3717 167.114 92.0222C166.501 91.6748 166.58 87.4288 167.323 80.8007C167.721 77.245 168.091 72.5986 168.146 70.4751C168.261 65.9786 168.265 65.9705 171.082 64.4557C173.273 63.2783 173.453 63.3673 173.308 65.5524ZM93.5193 74.1913C91.4565 76.287 86.7627 82.0917 84.9685 84.7661C84.3278 85.7211 85.698 84.1833 88.0132 81.3492C90.3287 78.5147 92.982 75.3688 93.9093 74.358C94.8366 73.3472 95.5454 72.4726 95.4842 72.4143C95.4228 72.356 94.5388 73.1558 93.5193 74.1913ZM166.899 74.8874C166.217 80.5591 166.06 82.9343 166.104 86.945C166.164 92.499 166.243 92.266 164.119 92.8281C162.966 93.1332 162.947 93.1244 162.446 92.0357C162.05 91.1729 161.911 90.0665 161.805 86.925C161.589 80.4606 162.364 74.9356 163.951 71.644C164.705 70.0798 167.173 67.2768 167.513 67.6C167.642 67.7234 167.366 71.0028 166.899 74.8874ZM155.926 69.0711C155.928 69.1353 156.126 69.2512 156.365 69.3287C156.614 69.4092 156.722 69.3501 156.619 69.1902C156.446 68.9215 155.916 68.8307 155.926 69.0711ZM230.579 62.8024C230.582 62.8805 230.1 63.2592 229.507 63.6434C228.914 64.0276 228.425 64.23 228.419 64.0931C228.414 63.956 228.804 63.594 229.286 63.2883C230.209 62.7025 230.57 62.5673 230.579 62.8024ZM227.338 64.7091C227.354 65.1131 225.44 66.6747 225.138 66.5039C224.667 66.2368 225.882 65.0615 227.259 64.4531C227.296 64.4365 227.332 64.5518 227.338 64.7091ZM223.577 67.4341C223.597 67.942 222.196 69.3617 221.927 69.1056C221.565 68.76 221.885 67.9815 222.561 67.5632C223.336 67.0848 223.562 67.0562 223.577 67.4341ZM110.517 77.5127C106.201 79.591 103.382 82.4954 100.318 88.0185C98.4229 91.4365 96.6179 96.2935 97.2636 96.2391C97.4146 96.2263 97.7133 95.4306 97.9276 94.4704C98.889 90.1641 103.308 84.0915 108.146 80.429C111.052 78.2286 112.654 76.7901 112.149 76.8354C111.997 76.8488 111.263 77.1537 110.517 77.5127ZM158.278 76.7813C158.304 78.1248 157.824 78.8122 157.2 78.3242C156.687 77.9236 156.684 76.4734 157.194 75.8547C157.853 75.0548 158.252 75.3955 158.278 76.7813ZM219.84 70.7065C219.506 71.4676 218.603 72.113 218.372 71.7554C218.201 71.4887 219.413 70.1537 219.861 70.1159C219.997 70.1044 219.988 70.3703 219.84 70.7065ZM216.344 73.2369C216.347 73.3159 215.743 73.771 215.002 74.2487C214.261 74.7264 213.65 74.9844 213.643 74.8223C213.637 74.6602 214.086 74.2238 214.641 73.8526C215.618 73.1996 216.332 72.9416 216.344 73.2369ZM161.027 84.2501C161.046 89.0263 160.919 89.4207 159.898 87.7461C159.373 86.8847 159.372 86.8386 159.868 85.9854C160.229 85.3641 160.399 84.3803 160.452 82.5999C160.522 80.2991 160.664 79.3766 160.913 79.6136C160.966 79.6639 161.017 81.7502 161.027 84.2501ZM210.432 77.4776C209.227 78.7706 208.387 79.3251 208.079 79.0313C207.82 78.785 208.806 77.6016 209.856 76.8986C211.425 75.848 211.696 76.1204 210.432 77.4776ZM143.812 84.2098C143.823 84.5019 143.686 85.4854 143.506 86.395C142.783 90.0494 142.194 101.187 142.153 111.963C142.128 118.478 141.947 119.682 140.742 121.332C139.895 122.491 136.995 124.813 136.72 124.551C136.475 124.318 136.414 121.373 136.597 118.538C136.687 117.138 136.796 111.968 136.84 107.05C136.926 97.3092 137.239 89.1712 137.594 87.4373C137.882 86.0301 138.234 85.6906 140.456 84.6809C142.765 83.6317 143.783 83.4887 143.812 84.2098ZM148.322 84.0707C149.045 84.2719 149.778 84.6911 149.952 85.0023C150.354 85.721 150.267 88.381 149.489 99.1308C149.155 103.745 148.936 108.899 149.003 110.584C149.07 112.269 149.007 113.917 148.863 114.246C148.576 114.899 144.023 118.805 143.496 118.849C143.142 118.879 143.107 115.787 143.376 108.137C143.509 104.352 143.64 102.107 144.279 92.6471C144.422 90.5466 144.527 87.7233 144.514 86.3734L144.491 83.919L145.75 83.8119C146.443 83.7529 147.6 83.8694 148.322 84.0707ZM154.526 84.4546C155.031 84.8096 155.936 85.6683 156.536 86.3631C157.137 87.058 158.104 87.8456 158.684 88.1136C159.265 88.3812 159.76 88.6966 159.784 88.814C159.809 88.9317 159.873 89.6757 159.927 90.4673C160.014 91.7499 160.141 91.9945 161.085 92.7068C161.668 93.1467 162.154 93.7081 162.163 93.9539C162.173 94.1997 161.667 95.0939 161.038 95.9407C159.11 98.5373 157.637 105.63 158.758 106.923C159.05 107.261 158.946 107.511 158.169 108.343C157.651 108.898 156.921 109.378 156.547 109.409C155.921 109.462 155.864 109.358 155.812 108.048C155.781 107.268 155.93 104.742 156.143 102.435C156.356 100.129 156.528 96.5661 156.525 94.5186C156.52 90.9877 156.501 90.8565 156.153 91.9691C155.648 93.5846 155.25 98.992 155.256 104.13C155.26 106.552 155.127 108.754 154.953 109.186C154.596 110.068 150.324 113.992 150.027 113.71C149.816 113.508 150.108 104.956 150.636 95.9088C150.813 92.8632 150.919 89.3437 150.872 88.0879C150.824 86.832 150.897 85.7182 151.034 85.6125C151.171 85.5068 152.606 86.4027 154.222 87.6037C155.839 88.8045 157.324 89.9066 157.524 90.0527C158.182 90.5355 158.208 89.9575 157.573 88.9716C156.761 87.7119 152.773 84.1124 152.239 84.1575C152.012 84.1766 151.821 84.0479 151.814 83.8719C151.793 83.3628 153.491 83.7278 154.526 84.4546ZM206.104 79.8557C206.129 80.4883 204.23 83.0152 203.675 83.0873C203.254 83.1421 203.431 81.683 203.939 80.9008C204.395 80.2009 204.697 80.0107 205.889 79.6743C206.002 79.6424 206.098 79.7242 206.104 79.8557ZM136.743 87.1787C136.754 87.4655 136.655 88.1774 136.523 88.761C135.37 93.8401 134.829 111.031 135.518 120.74C135.722 123.619 135.73 125.275 135.541 125.705C135.386 126.06 134.503 126.915 133.579 127.606C131.415 129.226 124.632 134.925 119.914 139.087C117.882 140.88 116.134 142.265 116.028 142.164C115.392 141.559 115.396 124.053 116.034 118.484C116.419 115.13 117.616 112.115 118.84 111.418C119.585 110.994 119.712 110.763 119.678 109.902C119.655 109.302 120.027 107.979 120.587 106.677L121.536 104.468L121.678 105.797C121.756 106.527 121.734 108.406 121.63 109.971C121.401 113.4 121.592 130.722 121.885 133.107C122.165 135.39 122.311 135.8 122.626 135.195C122.758 134.943 122.774 132.376 122.662 129.49C122.427 123.45 122.514 107.726 122.798 104.741C122.903 103.63 123.215 102.01 123.49 101.14C124.028 99.4399 125.519 96.5465 126.224 95.8354C126.619 95.4363 126.647 95.5915 126.552 97.6416C126.29 103.27 126.236 108.074 126.331 117.467C126.387 123.032 126.33 127.983 126.205 128.468C125.651 130.617 126.349 133.527 127.141 132.369C127.312 132.121 127.33 128.225 127.189 122.012C126.941 111.036 126.955 101.019 127.222 97.6512C127.317 96.4512 127.613 94.9519 127.881 94.3193C129.301 90.9595 136.658 85.0318 136.743 87.1787ZM6.80816 100.351C6.82716 100.831 6.74902 100.924 6.51435 100.7C6.33856 100.533 6.27237 100.243 6.36698 100.057C6.63239 99.5362 6.77974 99.6345 6.80816 100.351ZM201.288 83.8726C201.313 84.4975 199.73 86.7058 199.227 86.7482C198.605 86.8006 198.883 85.4422 199.705 84.4138C200.653 83.2277 201.254 83.0221 201.288 83.8726ZM9.82156 102.517C10.4025 102.99 10.5355 103.272 10.3587 103.656C10.1432 104.125 10.0475 104.125 9.21237 103.66C8.34668 103.178 8.05902 102.608 8.44535 102.14C8.73726 101.785 9.01335 101.861 9.82156 102.517ZM197.339 86.2503C197.568 86.6051 196.613 88.9749 195.886 89.8577C194.72 91.2728 194.566 90.9766 194.977 88.105C195.027 87.7489 195.462 87.1449 195.942 86.7628C196.902 85.9979 197.124 85.9167 197.339 86.2503ZM131.221 93.7482C129.998 102.115 129.634 126.396 130.711 127.809C131.609 128.989 131.727 127.972 131.464 121.261C131.206 114.649 131.346 107.443 131.867 100.479C132.179 96.3096 132.099 92.1104 131.708 92.1434C131.567 92.1553 131.348 92.8773 131.221 93.7482ZM12.1751 104.681C12.6974 105.284 12.9641 106.623 12.5685 106.657C11.9735 106.707 11.1711 105.827 11.142 105.093C11.1121 104.339 11.6824 104.112 12.1751 104.681ZM192.882 91.1237C192.309 92.6913 191.023 94.2241 190.611 93.8314C190.161 93.4029 190.971 91.1651 191.934 90.1748C193.038 89.0405 193.482 89.485 192.882 91.1237ZM113.094 98.2658C112.706 98.6613 112.207 99.5305 111.986 100.198L111.583 101.41L112.265 100.632C112.794 100.027 113.054 99.9121 113.429 100.119C113.694 100.266 114.673 100.763 115.603 101.225C117.173 102.004 117.233 102.013 116.437 101.348C115.965 100.953 115.102 100.339 114.517 99.9826C113.385 99.2909 113.28 99.0526 113.693 98.1105C114.021 97.3623 113.966 97.3768 113.094 98.2658ZM15.7057 108.66C15.7452 109.658 15.2462 109.857 14.4611 109.157C13.7199 108.496 13.4914 107.313 14.0522 107.041C14.5583 106.796 15.6751 107.89 15.7057 108.66ZM188.957 93.5375C188.983 94.2025 187.499 96.9404 186.839 97.4436C186.509 97.6951 186.282 97.7059 186.046 97.4808C185.551 97.0098 186.653 94.4364 187.686 93.6503C188.732 92.8538 188.929 92.8363 188.957 93.5375ZM169.407 97.7045C170.073 98.9291 169.739 98.9191 168.569 97.6802C167.31 96.3477 167.029 95.1773 168.222 96.2356C168.631 96.5982 169.164 97.2592 169.407 97.7045ZM18.0839 110.183C18.7592 111.538 18.7989 113.056 18.1573 112.983C17.4854 112.907 16.5279 110.954 16.7048 110.02C16.9042 108.969 17.5145 109.041 18.0839 110.183ZM166.722 98.269C167.867 99.4562 168.198 100.087 167.699 100.129C167.275 100.165 164.809 97.9513 164.792 97.5194C164.761 96.7342 165.529 97.0323 166.722 98.269ZM184.49 96.5819C184.734 96.9591 184.233 98.917 183.687 99.7253C183.305 100.291 183.11 100.387 182.847 100.14C182.585 99.8956 182.569 99.5821 182.78 98.8188C183.302 96.9317 184.069 95.9279 184.49 96.5819ZM164.59 100.105C165.893 100.986 166.289 101.61 165.868 102.12C165.223 102.903 163.01 101.363 162.96 100.096C162.921 99.1247 163.139 99.1259 164.59 100.105ZM21.1382 113.368C21.7932 114.595 21.982 115.99 21.4983 116.031C21.0209 116.071 19.5265 114.405 19.5027 113.806C19.484 113.333 20.1085 112.276 20.4225 112.249C20.4845 112.244 20.8063 112.748 21.1382 113.368ZM181.17 99.2945C181.2 100.049 180.273 102.497 179.761 103.016C178.712 104.081 178.544 101.761 179.528 99.8019C180.11 98.6427 181.131 98.3273 181.17 99.2945ZM177.168 103.128L177.227 104.836L175.648 106.248C173.266 108.378 170.827 109.906 170.534 109.451C170.156 108.865 171.044 104.911 171.563 104.867C171.623 104.862 171.854 104.765 172.078 104.652C172.408 104.485 172.486 104.714 172.494 105.872C172.502 107.037 172.597 107.311 173.011 107.367C173.919 107.489 174.511 106.46 174.635 104.541C174.738 102.959 174.848 102.678 175.585 102.116C176.916 101.103 177.101 101.221 177.168 103.128ZM163.074 103.188C163.303 103.321 163.422 103.513 163.338 103.615C163.13 103.867 162.268 103.566 162.255 103.237C162.241 102.899 162.545 102.88 163.074 103.188ZM24.6596 116.65C25.9931 119.143 25.6625 120.496 24.1065 118.914C23.5518 118.351 23.3914 117.873 23.3251 116.591C23.2219 114.588 23.5647 114.603 24.6596 116.65ZM160.361 105.652C160.771 106.506 160.349 106.983 159.898 106.176C159.726 105.869 159.58 105.476 159.573 105.302C159.55 104.727 160.017 104.934 160.361 105.652ZM111.148 111.133C111.693 111.589 112.251 111.953 112.389 111.941C112.807 111.906 112.092 111.255 111.097 110.765L110.159 110.303L111.148 111.133ZM27.6772 119.171C28.3609 119.866 29.0924 121.571 28.8387 121.879C28.2382 122.608 26.1082 120.13 26.4314 119.079C26.6392 118.402 26.9428 118.425 27.6772 119.171ZM168.346 109.014C168.299 109.512 168.429 110.305 168.636 110.777C168.935 111.46 168.946 111.732 168.687 112.109C168.222 112.788 167.332 112.792 167.306 112.117C167.293 111.812 167.01 111.229 166.675 110.82C165.926 109.908 166.082 109.305 167.233 108.656C168.432 107.981 168.445 107.985 168.346 109.014ZM31.4507 123.095C31.9438 123.632 32.3584 124.35 32.3718 124.69C32.3956 125.289 32.3734 125.294 31.6186 124.862C30.5492 124.249 29.8336 123.412 29.8071 122.743C29.7726 121.873 30.4656 122.021 31.4507 123.095ZM165.181 111.516C164.88 112.071 164.819 112.63 164.97 113.426C165.204 114.655 164.927 115.125 163.505 115.913L162.749 116.332L162.89 115.266C162.993 114.489 162.904 114.066 162.562 113.704C162.128 113.245 162.128 113.171 162.559 112.706C163.265 111.946 164.859 110.796 165.254 110.761C165.511 110.739 165.491 110.941 165.181 111.516ZM115.231 119.222C114.765 123.543 114.652 129.394 114.909 135.941L115.198 143.3L114.073 144.564C111.289 147.693 111.008 147.396 111.287 141.608C111.405 139.175 111.389 134.379 111.254 130.95C110.976 123.94 110.878 124.459 113.252 120.283C114.76 117.629 115.443 117.264 115.231 119.222ZM160.819 115.825C160.87 117.124 160.163 119.044 159.572 119.213C159.302 119.29 158.978 118.86 158.624 117.954L158.086 116.577L158.884 115.69C159.323 115.203 159.928 114.783 160.229 114.758C160.676 114.72 160.783 114.913 160.819 115.825ZM34.7691 126.296C35.0193 126.639 35.2336 127.157 35.2451 127.448C35.2762 128.234 34.5786 128.143 34.1785 127.308C33.4731 125.838 33.9005 125.106 34.7691 126.296ZM156.922 118.09C156.493 120.984 156.263 121.96 155.931 122.296C155.469 122.765 155.504 122.8 154.699 121.054C153.982 119.498 154.003 119.433 155.582 118.261C156.892 117.287 157.044 117.267 156.922 118.09ZM37.3447 128.867C37.6554 129.628 37.5851 130.162 37.1691 130.198C36.9521 130.216 36.6856 129.971 36.5771 129.654C36.239 128.668 36.9611 127.927 37.3447 128.867ZM153.02 121.27C153.063 122.374 152.394 124.82 151.916 125.306C151.618 125.608 151.533 125.601 151.52 125.272C151.511 125.042 151.235 124.35 150.906 123.735C150.578 123.12 150.305 122.521 150.301 122.405C150.292 122.195 152.386 120.57 152.781 120.479C152.894 120.453 153.001 120.809 153.02 121.27ZM40.402 131.911C41.3075 132.63 41.8918 133.619 41.6749 134.067C41.531 134.363 39.4919 133.02 39.046 132.336C38.7129 131.824 38.8219 131.25 39.2588 131.213C39.3899 131.202 39.9043 131.516 40.402 131.911ZM110.218 129.64C110.398 135.029 110.187 147.141 109.901 147.79C109.74 148.156 109.096 148.934 108.47 149.519C107.845 150.104 107.127 150.862 106.875 151.204C106.597 151.581 106.235 151.766 105.955 151.676C105.544 151.543 105.494 151.059 105.501 147.288C105.513 140.011 105.687 134.296 105.932 133.113C106.202 131.804 109.448 126.672 109.859 126.904C110.009 126.989 110.171 128.221 110.218 129.64ZM149.247 123.711C149.305 125.17 148.311 128.868 147.85 128.907C147.568 128.931 146.765 125.161 146.967 124.762C147.125 124.453 148.604 123.518 149.03 123.458C149.143 123.442 149.241 123.556 149.247 123.711ZM44.4388 136.502C45.0798 137.198 45.6078 137.856 45.6121 137.964C45.6163 138.072 44.7913 137.458 43.7786 136.6C42.7658 135.742 41.9955 134.926 42.0666 134.786C42.2496 134.427 43.0879 135.033 44.4388 136.502ZM145.416 127.251C145.354 127.707 145.245 128.687 145.172 129.431C145.1 130.174 144.904 131.105 144.737 131.5C144.475 132.12 144.386 132.162 144.077 131.805C143.791 131.475 143.797 131.162 144.106 130.245C144.452 129.22 144.447 129.048 144.056 128.636C143.459 128.005 143.491 127.641 144.196 127.033C145.138 126.222 145.546 126.295 145.416 127.251ZM141.412 130.506C141 130.947 140.525 131.23 140.355 131.134C139.968 130.914 141.069 129.773 141.708 129.732C142.043 129.711 141.966 129.912 141.412 130.506ZM48.5612 139.96C49.6567 141.12 49.8081 141.482 49.3463 141.838C48.9804 142.12 46.4062 139.667 46.6224 139.243C46.9311 138.637 47.5146 138.853 48.5612 139.96ZM105.007 134.549C105.089 134.676 104.986 136.527 104.779 138.664C104.519 141.341 104.464 144.183 104.604 147.807C104.835 153.832 104.978 153.403 102.005 155.626C101.119 156.289 99.8094 157.339 99.0942 157.96C98.331 158.623 97.6875 158.989 97.5372 158.846C97.3867 158.702 97.3625 157.986 97.4788 157.113C97.5879 156.295 97.6703 153.548 97.6622 151.01C97.6351 142.441 97.663 142.168 98.7105 140.764C100.225 138.734 100.463 138.965 100.362 142.368C100.242 146.377 100.505 153.149 100.813 153.995C101.324 155.398 101.454 153.787 101.37 147.123C101.265 138.735 101.359 138.113 103.068 135.997C104.384 134.366 104.725 134.111 105.007 134.549ZM138.816 132.573C138.818 132.696 138.401 133.134 137.887 133.547C137.373 133.961 136.947 134.163 136.941 133.995C136.934 133.828 137.321 133.393 137.8 133.028C138.787 132.277 138.808 132.267 138.816 132.573ZM141.869 132.911C141.896 133.741 141.626 134.793 141.382 134.814C140.98 134.848 140.76 133.713 141.044 133.067C141.383 132.294 141.846 132.206 141.869 132.911ZM52.4935 143.532C53.4744 144.535 53.7051 145.691 52.8415 145.275C52.0782 144.908 50.7681 143.347 50.9397 143.01C51.1956 142.508 51.6371 142.656 52.4935 143.532ZM138.957 136.056C138.997 137.077 137.571 138.985 137.099 138.542C136.648 138.118 137.143 136.528 137.942 135.837C138.721 135.163 138.923 135.207 138.957 136.056ZM134.95 139.6C134.979 140.37 133.927 142.036 133.449 141.978C132.753 141.894 132.678 140.852 133.31 140.031C133.899 139.265 134.928 138.995 134.95 139.6ZM96.8831 144.366C97.0808 145.078 96.9773 146.77 96.3601 152.907C96.0499 155.993 96.1628 159.141 96.6168 160.073C96.7946 160.438 96.2889 161.018 94.3077 162.725C91.6008 165.056 90.6728 165.457 90.5678 164.341C90.4041 162.605 90.0973 150.458 90.1893 149.354C90.2813 148.244 90.4557 147.967 91.7094 146.935C92.4883 146.294 93.204 145.844 93.3 145.935C93.6243 146.244 93.5867 149.102 93.2027 153.313C92.7894 157.849 92.8209 161.697 93.2738 161.954C93.7474 162.222 93.9716 160.864 94.022 157.423C94.1368 149.613 94.2794 146.324 94.5406 145.465C95.0633 143.745 96.5205 143.061 96.8831 144.366ZM131.076 143.203C130.821 144.307 130.194 145.334 129.837 145.238C129.245 145.078 129.262 144.139 129.872 143.353C130.646 142.354 131.292 142.274 131.076 143.203ZM60.0221 150.838C60.7442 151.601 61.7386 153.874 61.4162 154.024C60.7535 154.333 58.3477 151.401 58.6982 150.712C58.9359 150.246 59.5132 150.3 60.0221 150.838ZM89.7909 156.882C90.0138 164.647 89.9962 165.22 89.5219 165.631C88.911 166.159 88.8835 167.536 89.4848 167.485C90.1664 167.428 89.9773 167.943 88.9291 169C87.8413 170.096 87.3098 170.279 87.0505 169.643C86.8809 169.228 87.3625 163.68 87.7421 161.675C87.9241 160.715 87.9435 160.767 87.9506 162.228C87.9559 163.367 88.0701 163.87 88.34 163.944C88.6538 164.029 88.6666 163.564 88.4113 161.321C88.2407 159.821 87.9484 157.048 87.7619 155.159C87.4748 152.255 87.4262 152.046 87.4463 153.807C87.4662 155.552 87.4192 155.774 87.1579 155.172C86.8508 154.466 86.8749 151.266 87.1918 150.644C87.2938 150.443 87.4468 150.467 87.6065 150.709C87.7958 150.996 87.8542 150.941 87.8396 150.49C87.8116 149.63 88.5639 148.451 89.0989 148.517C89.5083 148.567 89.5757 149.382 89.7909 156.882ZM128.039 146.495C128.059 146.998 127.788 147.236 126.698 147.67C125.547 148.128 125.395 147.602 126.448 146.801C127.493 146.005 128.015 145.905 128.039 146.495ZM64.3575 154.587C64.8544 155.06 64.7429 155.573 64.1316 155.624C63.8785 155.646 63.8118 155.833 63.9398 156.162C64.1162 156.615 64.0727 156.614 63.5163 156.151C62.6366 155.42 62.6599 154.259 63.5557 154.183C63.7469 154.167 64.1076 154.349 64.3575 154.587ZM123.693 150.081C123.217 150.958 122 151.853 121.691 151.553C121.417 151.288 123.121 149.459 123.686 149.411C124.014 149.384 124.016 149.487 123.693 150.081ZM68.3195 158.386C68.5945 158.697 68.8272 159.075 68.8365 159.226C68.8595 159.597 67.4475 158.322 67.0495 157.612C66.7545 157.085 66.7711 157.072 67.2751 157.431C67.5746 157.645 68.0443 158.074 68.3195 158.386ZM120.015 153.259C120.03 153.638 119.246 154.37 119.038 154.172C118.829 153.973 119.411 153.048 119.763 153.018C119.896 153.007 120.009 153.115 120.015 153.259ZM117.092 156.212C117.098 156.369 116.861 156.662 116.565 156.862C115.972 157.263 115.825 156.951 116.323 156.346C116.705 155.884 117.076 155.818 117.092 156.212ZM81.1963 172.288C81.9257 172.95 82.1366 173.298 81.8801 173.418C81.6764 173.513 80.9178 173.028 80.1945 172.339C79.1613 171.355 79.0146 171.112 79.5107 171.209C79.8578 171.277 80.6164 171.763 81.1963 172.288ZM84.126 175.235C85.4115 176.483 85.4695 176.734 84.3541 176.221C83.4405 175.8 82.4535 174.879 82.4358 174.432C82.4093 173.764 82.8065 173.953 84.126 175.235ZM94.2396 175.357C93.783 175.887 93.7752 175.879 94.0644 175.19C94.2308 174.794 94.4456 174.544 94.5418 174.636C94.6383 174.727 94.5022 175.052 94.2396 175.357Z" fill="white" stroke="white" stroke-width="4" mask="url(#path-1-inside-1_411_3026)"/>
</svg>
