<svg width="280" height="223" viewBox="0 0 280 223" fill="none" xmlns="http://www.w3.org/2000/svg">
<path fill-rule="evenodd" clip-rule="evenodd" d="M55.3385 1.73769C52.9858 2.62785 49.9461 3.3884 48.5833 3.42631C47.2193 3.46421 44.8824 4.35193 43.3889 5.3986C40.8405 7.18259 40.6719 7.14224 40.6719 4.7481C40.6719 1.26082 37.9475 0.499048 33.5732 2.76236C30.2757 4.46809 29.8418 5.39983 29.1182 12.3267C28.6782 16.5476 27.4768 25.2732 26.4501 31.7158C24.376 44.7259 25.4735 55.7746 29.2539 59.954C31.691 62.6489 32.2129 62.0962 21.9254 67.7319C6.35309 76.2642 -0.177238 85.924 0.00365097 100.158C0.113651 108.83 2.01421 114.504 7.8601 123.618C9.97332 126.912 11.2799 130.274 10.8655 131.353C10.4634 132.402 9.71665 133.016 9.20821 132.716C7.01554 131.424 2.96387 134.39 2.2061 137.843C1.12198 142.779 3.22299 146.284 8.00554 147.522L11.9497 148.543L13.343 171.7C14.1105 184.435 15.1323 197.127 15.6151 199.904L16.4926 204.951L10.274 208.337C-6.32135 217.373 8.00432 224.277 29.0608 217.391C33.0941 216.072 37.125 214.53 38.0172 213.964C39.1343 213.255 39.974 207.896 40.7122 196.756C41.7878 180.543 44.9668 163.675 46.948 163.675C47.5298 163.675 48.0052 164.27 48.0052 164.998C48.0052 165.727 49.7542 170.266 51.8907 175.086C54.0283 179.907 58.113 190.707 60.9681 199.088L66.1589 214.327L75.1092 218.238C83.9092 222.081 86.8865 222.772 93.4902 222.503C97.3268 222.346 99.8678 218.623 98.6834 214.893C98.2495 213.523 95.5985 211.418 92.7935 210.215C89.9885 209.012 87.0858 207.265 86.3451 206.333C85.6032 205.4 84.6303 198.23 84.1818 190.398C83.732 182.566 82.5403 169.636 81.5308 161.663C79.7378 147.489 78.9665 142.523 76.2459 127.604C75.5101 123.569 74.9051 115.204 74.9014 109.014L74.8941 97.7614L79.4774 96.4763C81.9989 95.7683 96.118 93.7887 110.856 92.0756C147.042 87.8693 145.925 88.1518 148.689 82.521C150.437 78.9641 151.021 74.8789 151.134 65.4319C151.216 58.6028 150.859 51.0206 150.339 48.5824C149.502 44.6476 148.791 43.9788 144.028 42.6448C139.93 41.4966 137.656 41.4721 134.42 42.5408C130.002 43.9996 128.672 46.8816 128.672 55.0031C128.672 57.9157 128.16 58.5185 125.686 58.5185C124.014 58.5185 121.887 59.6776 120.855 61.1535C119.011 63.7861 118.999 63.7873 96.6912 62.2393C84.4152 61.3883 73.2514 60.2658 71.8825 59.7449C69.509 58.8425 69.5408 58.73 72.5743 57.3226C74.7144 56.3285 77.0146 53.1237 79.6082 47.5235C84.9383 36.015 85.602 29.7949 82.5146 20.31C81.1458 16.105 79.6767 11.1162 79.2501 9.22214C78.7086 6.82188 77.2163 5.25432 74.3233 4.0438C72.0402 3.09005 69.8268 1.74992 69.4051 1.06763C68.365 -0.616098 60.577 -0.245606 55.3385 1.73769ZM65.7274 3.49478C66.143 4.16729 65.4879 4.72609 64.2718 4.73587C62.3969 4.75177 62.3394 4.93518 63.8941 5.94028C64.9024 6.59201 67.4471 7.13368 69.5505 7.14469C73.5716 7.16425 78.0548 10.7824 75.2351 11.7312C74.184 12.0858 74.6558 13.9823 76.8301 18.1421C79.244 22.7604 79.8368 25.4786 79.5459 30.586C79.2733 35.3486 78.7172 37.0238 77.4938 36.7646C76.4268 36.5383 76.0797 37.0935 76.5392 38.293C77.605 41.0711 76.4194 40.5832 74.8147 37.5838C73.8405 35.7619 73.8271 35.2386 74.7719 35.8218C76.6761 36.9993 76.4402 35.6947 74.1009 32.123C72.5841 29.8071 72.4325 28.7005 73.4898 27.6429C75.3206 25.8112 75.2877 21.4961 73.4274 19.6351C72.6208 18.8281 70.5063 18.1678 68.728 18.1678C66.9497 18.1678 64.4539 17.0172 63.1815 15.6098C61.3983 13.6387 59.9255 13.2046 56.7698 13.717C54.5025 14.085 51.6157 13.7255 50.3067 12.9124C48.3572 11.7007 47.1191 11.9146 43.2642 14.1266C37.7887 17.269 33.627 16.6858 32.6101 12.6336C31.8927 9.7736 33.8384 4.71753 35.6571 4.71753C36.212 4.71753 36.4039 6.09312 36.0824 7.7744C35.5886 10.3556 35.959 10.8313 38.4621 10.8313C40.0925 10.8313 42.4942 10.023 43.7995 9.03628C45.1036 8.0483 48.0969 7.21072 50.4497 7.17526C52.8024 7.13858 56.1024 6.03321 57.783 4.71753C61.1221 2.10452 64.5431 1.57751 65.7274 3.49478ZM49.7811 15.9191C52.041 16.9487 53.6849 16.9768 55.781 16.0218C58.1631 14.936 59.1103 15.1488 61.1979 17.236C62.7513 18.7914 65.2007 19.7256 67.5461 19.6583C71.9326 19.5336 73.6059 22.1478 71.401 25.6803C70.2558 27.5157 70.389 28.6504 72.0634 31.3258L74.1595 34.6749L70.554 31.6363C68.5715 29.9649 67.6378 29.3877 68.4774 30.3525C70.3034 32.4495 70.5075 34.5184 68.783 33.4521C66.869 32.2685 67.3346 34.0207 70.1445 38.5693C71.566 40.8693 73.0155 42.465 73.3663 42.1141C73.7159 41.7632 73.0595 40.0354 71.907 38.2747C70.7532 36.5151 70.0883 34.7959 70.4281 34.4548C71.6308 33.2516 75.0652 41.6335 74.1962 43.6499C73.7147 44.7662 73.4397 47.1726 73.5839 48.9969C73.799 51.7151 73.2245 52.4671 70.3975 53.1641C68.5019 53.6312 64.823 55.8223 62.2233 58.0343C59.6237 60.2462 55.9167 62.4019 53.9868 62.8262C50.2737 63.6418 47.9771 65.8012 50.6831 65.932C51.5631 65.9748 51.0987 66.4884 49.6515 67.0716C46.6815 68.2711 41.8941 67.3871 41.8941 65.6398C41.8941 65.0064 42.3304 64.757 42.8621 65.0871C43.395 65.416 43.9205 64.4928 44.0305 63.0341C44.1625 61.2856 43.9022 60.9151 43.2667 61.9434C42.581 63.0537 41.4492 63.1784 39.3482 62.375C31.6543 59.4319 27.6063 48.7328 29.8564 37.2891C31.4355 29.2581 36.3403 19.3905 38.7542 19.3905C39.6 19.3905 41.2891 18.29 42.5052 16.945C45.0804 14.0972 45.6194 14.0214 49.7811 15.9191ZM33.638 21.2246C33.3165 22.9059 32.5673 24.2815 31.9733 24.2815C30.7132 24.2815 30.5946 22.8179 31.636 20.1022C32.813 17.0331 34.2809 17.8572 33.638 21.2246ZM37.8204 21.4288C37.3719 21.8764 37.0052 22.6504 37.0052 23.148C37.0052 24.3231 41.7303 23.0906 42.5969 21.6881C43.3644 20.4445 39.039 20.2085 37.8204 21.4288ZM55.3777 22.6516C55.3984 23.2116 56.2185 24.7303 57.1975 26.0264C59.2973 28.802 61.3348 27.534 59.4855 24.6019C58.08 22.3716 55.3165 21.0596 55.3777 22.6516ZM34.7025 30.7009C34.6243 32.551 34.7905 34.0635 35.0717 34.0635C37.1922 34.0635 39.4325 32.2355 39.3531 30.5701C39.292 29.3009 39.0292 29.1248 38.6405 30.0896C37.752 32.2905 36.0543 31.9702 35.4029 29.4782C35.0594 28.1613 34.7893 28.6321 34.7025 30.7009ZM42.1068 33.2247C38.9889 36.5469 38.5477 41.4 41.3649 41.4C42.6555 41.4 43.0528 40.6798 42.581 39.1929C42.1654 37.8834 42.878 35.9135 44.3312 34.3521C45.6793 32.9043 46.783 31.4224 46.783 31.058C46.783 29.5589 44.6001 30.5701 42.1068 33.2247ZM51.942 32.8408C52.316 36.1874 56.5265 37.2243 57.5288 34.2164C57.8685 33.1954 57.4285 32.7576 56.408 33.1012C55.484 33.4118 54.0234 32.7931 53.1642 31.7256C51.8027 30.0345 51.6438 30.1801 51.942 32.8408ZM67.6109 41.4709C69.0739 43.5264 70.5308 44.9496 70.8473 44.6329C71.6723 43.8076 67.5058 37.7318 66.1149 37.7318C65.4744 37.7318 66.1479 39.4142 67.6109 41.4709ZM139.59 46.2091C141.261 47.8806 142.219 51.1918 142.864 57.5195C143.521 63.9597 144.006 65.6092 144.595 63.4095C145.046 61.7282 145.147 57.3263 144.82 53.6275C144.16 46.1809 145.389 45.9633 147.099 53.2252C148.515 59.2338 146.053 81.2262 143.752 83.1373C142.844 83.8918 140.317 84.8773 138.137 85.3285C134.922 85.9937 133.767 85.6378 132.033 83.4516C130.856 81.9671 129.889 80.0156 129.882 79.112C129.876 78.2096 128.501 74.5279 126.826 70.9306C123.602 64.0001 123.033 60.964 124.958 60.964C126.516 60.964 131.137 65.8892 132.215 68.6966C132.686 69.9231 132.84 65.6569 132.559 59.2154C132.2 51.0194 132.502 46.9562 133.564 45.6747C135.566 43.2622 136.748 43.3662 139.59 46.2091ZM198.004 48.3721C196.222 50.1549 195.443 50.2661 193.446 49.0177C189.548 46.5832 186.356 47.2655 182.765 51.3006C177.623 57.0781 175.228 57.9976 173.128 54.9994C170.469 51.2028 165.644 53.8048 164.556 59.6226C164.104 62.0412 162.857 64.675 161.787 65.4747C160.254 66.6192 160.131 67.4091 161.211 69.1833C161.965 70.4232 162.998 73.3272 163.505 75.637C164.012 77.9467 164.868 80.6796 165.406 81.7104C165.944 82.7411 166.989 87.6285 167.727 92.572C169.104 101.794 171.772 108.651 173.983 108.651C174.67 108.651 173.464 110.852 171.303 113.542C169.142 116.232 166.764 118.433 166.017 118.433C165.271 118.433 163.213 116.782 161.443 114.765C158.236 111.108 151.716 109.639 150.124 112.215C149.744 112.832 145.284 113.724 140.213 114.2C129.454 115.208 126.854 116.985 127.972 122.572C128.382 124.628 129.53 126.764 130.52 127.319C132.1 128.203 132.09 128.68 130.44 131.199C127.781 135.259 129.312 139.89 134.622 143.847C137.064 145.665 139.391 147.606 139.794 148.159C140.197 148.712 142.63 149.887 145.2 150.771C150.441 152.574 156.606 151.461 158.316 148.404C160.226 144.988 166.249 146.953 173.575 153.384C176.875 156.281 177.205 157.114 176.153 159.883C175.489 161.629 174.219 163.885 173.329 164.895C168.717 170.136 170.191 189.431 176.182 202.242L179.779 209.931L176.805 210.677C173.229 211.576 169.005 215.565 169.005 218.044C169.005 223.301 182.704 224.137 191.957 219.447C198.592 216.083 199.486 213.914 199.577 200.969C199.624 194.169 201.251 185.95 202.871 184.33C203.452 183.748 207.956 181.865 212.881 180.143L221.833 177.014L230.558 185.978C239.493 195.157 252.747 205.377 258.608 207.606C262.876 209.23 262.786 210.878 258.381 211.759C251.99 213.038 252.122 219.191 258.571 220.609C263.025 221.587 272.177 221.537 275.391 220.516C278.586 219.502 280.966 207.634 279.169 201.675C278.444 199.269 274.261 192.506 269.872 186.647C262.861 177.285 261.606 174.758 259.524 165.829C258.221 160.239 255.182 151.002 252.77 145.303C250.358 139.604 247.834 131.105 247.16 126.417C246.488 121.73 244.646 115.072 243.068 111.624C240.646 106.329 239.186 104.848 233.695 102.112C230.119 100.328 225.969 98.8692 224.476 98.8692C219.636 98.8692 217.634 97.6 219.302 95.5873C220.897 93.6652 221.329 79.9961 220.197 67.2391C219.598 60.4871 219.075 59.191 216.256 57.4791C212.966 55.4824 211.99 53.6275 214.227 53.6275C216.841 53.6275 215.275 51.4033 212.101 50.6061C210.259 50.1439 208.375 49.1571 207.916 48.4125C207.323 47.4526 206.509 47.5345 205.116 48.6912C203.457 50.0681 202.918 50.0033 201.652 48.2718C200.255 46.3595 200.009 46.3656 198.004 48.3721ZM136.655 53.0161C137.17 56.3787 137.517 60.3404 137.428 61.8199C137.339 63.3007 137.889 64.8963 138.65 65.3683C140.586 66.5642 139.21 50.2038 137.216 48.3183C136.041 47.2056 135.92 48.2119 136.655 53.0161ZM37.0052 49.6181C37.0052 50.8592 49.2079 52.8315 50.2761 51.764C51.4274 50.6122 49.4499 49.87 43.2825 49.14C39.4167 48.6815 37.0052 48.8661 37.0052 49.6181ZM191.005 52.4047C191.005 54.0224 195.058 53.9747 196.693 52.3387C197.494 51.5378 200.375 51.3678 204.302 51.8887C209.733 52.6102 210.522 53.0479 209.902 55.0019C209.379 56.6489 210.055 57.6748 212.35 58.7202C214.207 59.5664 214.974 60.503 214.202 60.9799C213.289 61.5436 213.528 64.104 214.982 69.3349C216.633 75.2787 216.799 77.7804 215.767 81.1467C214.999 83.6496 214.916 85.7002 215.565 86.1012C217.409 87.2421 216.805 92.7811 214.751 93.5698C213.693 93.9758 211.525 97.2564 209.931 100.861C208.339 104.466 205.491 108.882 203.603 110.677C201.348 112.821 200.927 113.666 202.374 113.144C203.586 112.706 204.296 112.802 203.952 113.358C203.609 113.914 199.523 114.272 194.872 114.155C179.205 113.76 173.15 106.798 172.115 87.9855C171.805 82.3719 171.274 77.498 170.931 77.1568C170.59 76.8145 171.605 75.5159 173.188 74.2712C174.769 73.0264 176.402 70.6579 176.816 69.0084C177.469 66.404 178.091 66.0946 181.551 66.6571C184.551 67.1438 186.087 66.6913 187.776 64.8242C189.627 62.7785 190.521 62.5756 192.901 63.6601C195.034 64.6322 196.774 64.565 199.586 63.3985C202.818 62.0596 203.669 62.1048 205.26 63.6968C206.791 65.2289 206.864 66.0738 205.652 68.3372C204.4 70.6775 204.507 71.2925 206.347 72.3221C208.4 73.4715 208.404 73.6255 206.413 75.0818C205.145 76.0099 204.799 76.9319 205.545 77.3928C206.228 77.8147 206.565 78.8308 206.295 79.65C206.024 80.4693 207.305 82.3217 209.142 83.767C212.04 86.0462 212.509 86.1269 212.694 84.3784C212.81 83.2694 213.25 80.6833 213.67 78.6315C214.323 75.4426 213.974 74.6918 211.275 73.4605C208.78 72.3233 208.116 71.1483 208.116 67.8652C208.116 62.4423 205.661 60.4651 200.202 61.4885C197.852 61.93 194.86 61.7196 193.555 61.0202C191.673 60.0127 190.47 60.3453 187.732 62.633C185.315 64.6542 183.552 65.2473 181.839 64.6163C178.878 63.5269 175.116 65.2693 175.116 67.7294C175.116 68.7125 173.284 71.4613 171.045 73.8359L166.974 78.1546L167.541 74.2846C167.943 71.5444 167.526 70.0881 166.112 69.297C163.608 67.8945 163.472 65.685 165.95 66.6351C167.323 67.1633 167.783 66.437 167.783 63.7445C167.783 58.9575 169.008 57.978 171.158 61.0496C172.68 63.2224 173.193 63.3373 174.934 61.8896C176.043 60.9676 178.433 59.5823 180.246 58.8107C182.06 58.0392 184.46 56.007 185.581 54.2951C187.594 51.2211 191.005 50.0326 191.005 52.4047ZM39.4497 55.9911C39.4497 57.4168 44.2432 59.021 45.3114 57.9523C46.2281 57.0353 43.2202 54.8967 40.9774 54.8686C40.1378 54.8588 39.4497 55.3638 39.4497 55.9911ZM61.4497 65.1849C61.4497 66.1619 59.0394 68.6184 56.0939 70.6469C49.6625 75.0733 49.5134 75.6627 48.4428 101.009L47.6544 119.656H59.2875H70.9219L71.6858 123.477C73.1903 131.004 72.8933 131.509 66.4571 132.364C57.9517 133.493 23.3408 133.394 22.2909 132.237C21.8081 131.706 21.1395 128.658 20.8047 125.464L20.1948 119.656H26.587H32.978L33.7969 106.511C34.2479 99.2825 35.244 88.7791 36.0115 83.1716C37.2338 74.2333 37.1555 72.5544 35.3784 69.544C33.5414 66.4321 33.5329 66.0421 35.2868 65.3683C36.3562 64.9575 38.6137 65.7205 40.3345 67.0741C44.2762 70.1762 50.9422 70.2532 53.9635 67.2306C57.7488 63.4437 61.4497 62.4325 61.4497 65.1849ZM101.783 67.1156C107.497 67.8114 114.465 68.6636 117.266 69.0109C120.069 69.3594 122.861 70.3033 123.473 71.1116C125.091 73.2489 129.2 84.7085 128.584 85.3688C128.297 85.6782 125.586 86.1013 122.561 86.3116C102.516 87.6994 72.4166 92.3813 70.3682 94.4294C70.0993 94.6984 69.7705 99.6285 69.6373 105.384C69.421 114.703 69.1264 115.922 66.9497 116.513C63.6558 117.407 56.6048 117.352 53.064 116.405L50.1783 115.632L50.9165 100.219C51.9567 78.4603 52.4908 76.5271 58.6997 72.0396C61.5572 69.9744 63.8941 67.5925 63.8941 66.7451C63.8941 64.9 85.283 65.1091 101.783 67.1156ZM33.2127 70.9061C34.5913 74.0193 34.6353 75.9011 33.4485 80.9938C32.6468 84.4359 31.6629 93.6762 31.2608 101.525C30.4993 116.414 30.0275 117.462 24.6278 116.296C22.594 115.857 21.1554 110.365 21.1298 102.943C21.1139 98.2101 20.0481 95.201 18.3908 95.201C17.5865 95.201 17.3519 100.376 17.7259 109.878C18.5704 131.333 15.6151 131.517 6.36532 110.582C1.74287 100.121 4.89376 86.8435 13.9333 78.6938C17.5865 75.3998 29.3419 67.4201 30.9014 67.1743C31.2412 67.1217 32.2813 68.8006 33.2127 70.9061ZM186.116 69.0317L183.061 70.8988L186.116 70.2275C187.797 69.8583 190.167 69.5489 191.383 69.5403C192.599 69.5306 193.254 68.973 192.839 68.3005C191.794 66.6094 189.71 66.8356 186.116 69.0317ZM177.561 70.7081C177.561 71.3586 178.386 71.575 179.394 71.1886C180.402 70.801 181.227 70.2679 181.227 70.0038C181.227 69.7396 180.402 69.5232 179.394 69.5232C178.386 69.5232 177.561 70.0563 177.561 70.7081ZM184.487 74.007C183.372 75.121 183.453 79.3052 184.589 79.3052C185.092 79.3052 185.505 77.9296 185.505 76.2483C185.505 74.5671 185.46 73.1915 185.404 73.1915C185.348 73.1915 184.934 73.5583 184.487 74.007ZM194.721 76.2117C192.543 77.8196 189.991 78.8393 189.05 78.4774C188.109 78.1167 187.339 78.4102 187.339 79.1316C187.339 80.6454 192.188 83.5445 192.304 82.0992C192.347 81.571 192.88 82.378 193.488 83.8905C194.096 85.4031 195.161 86.6417 195.855 86.6417C197.103 86.6417 197.444 85.2368 197.631 79.3052C197.708 76.8866 198.302 76.3095 200.477 76.5394C203.821 76.894 203.999 76.1358 200.954 74.5059C199.206 73.5705 197.767 73.9642 194.721 76.2117ZM210.15 75.2322C209.702 75.6822 210.266 77.081 211.407 78.3417C213.371 80.5133 213.355 80.5867 211.103 79.7405C208.927 78.9225 208.88 79.0362 210.561 81.1063C212.295 83.2437 212.244 83.273 209.632 81.6456C208.113 80.6992 207.488 79.7185 208.242 79.4666C209.16 79.1609 209.062 78.6523 207.949 77.9345C206.563 77.0407 206.591 76.658 208.116 75.6553C210.23 74.2675 211.347 74.0352 210.15 75.2322ZM174.081 81.7972C173.864 85.4887 174.247 86.6417 175.697 86.6417C177.066 86.6417 177.519 85.5938 177.315 82.9025C176.86 76.9392 174.416 76.1041 174.081 81.7972ZM178.341 79.9166C177.954 80.9254 178.171 81.7507 178.821 81.7507C179.472 81.7507 180.005 80.9254 180.005 79.9166C180.005 78.9078 179.789 78.0825 179.525 78.0825C179.261 78.0825 178.728 78.9078 178.341 79.9166ZM200.46 80.0364C199.509 80.9865 200.744 84.1962 202.06 84.1962C202.619 84.1962 202.993 83.0957 202.891 81.7507C202.707 79.2967 201.822 78.6731 200.46 80.0364ZM182.035 85.3921C180.006 89.4601 180.621 93.9782 183.204 93.9782C185.245 93.9782 185.389 92.517 183.531 90.6584C182.528 89.6546 182.665 88.2973 184.048 85.5229C185.082 83.4479 185.461 81.7507 184.89 81.7507C184.318 81.7507 183.034 83.3892 182.035 85.3921ZM197.154 93.6725C197.21 95.0065 203.227 99.1883 203.227 97.8934C203.227 96.6658 199.2 92.7555 197.936 92.7555C197.485 92.7555 197.133 93.1687 197.154 93.6725ZM177.154 96.0165C176.705 96.4641 176.339 97.3995 176.339 98.0952C176.339 98.8606 176.908 98.7885 177.784 97.9118C178.58 97.1158 178.947 96.1804 178.6 95.8331C178.253 95.4858 177.601 95.5678 177.154 96.0165ZM183.647 96.8566C181.98 97.5547 180.453 98.2285 180.251 98.3544C180.05 98.4791 180.239 99.9843 180.669 101.701C181.999 107 192.551 109.354 196.316 105.192C200.404 100.674 197.883 96.4751 190.74 95.9089C188.507 95.7316 185.316 96.1584 183.647 96.8566ZM196.195 99.9036C196.877 100.586 196.678 102.081 195.689 103.714C194.332 105.953 193.268 106.297 189.301 105.785C182.984 104.967 179.695 99.8376 184.589 98.4351C187.505 97.6 194.817 98.5256 196.195 99.9036ZM186.445 102.162C187.634 102.473 189.284 102.452 190.112 102.117C190.939 101.782 189.966 101.529 187.95 101.553C185.933 101.578 185.256 101.851 186.445 102.162ZM233.999 108.279C236.617 110.82 239.587 115.567 241.113 119.646C243.473 125.959 243.593 127.413 242.326 134.396C239.831 148.163 234.311 155.776 224.005 159.664C220.98 160.805 216.666 162.81 214.417 164.119C210.99 166.114 210.153 166.222 209.241 164.781C208.643 163.836 208.146 162.132 208.135 160.993C208.125 159.855 207.004 157.038 205.645 154.733L203.174 150.543L211.717 142.255C216.415 137.698 219.954 133.472 219.58 132.867C219.201 132.254 218.119 132.412 217.145 133.221C215.059 134.954 214.984 134.885 213.186 129.561C211.125 123.456 211.433 120.677 214.9 114.156C216.614 110.93 217.82 107.134 217.58 105.72C217.255 103.812 216.772 104.423 215.706 108.092C214.916 110.812 213.113 114.278 211.697 115.797C209.479 118.18 209.246 119.43 209.995 124.915C210.474 128.412 211.344 132.54 211.93 134.09C212.824 136.455 212.26 137.584 208.417 141.115C205.899 143.429 203.447 145.325 202.97 145.328C202.49 145.331 201.527 142.996 200.829 140.137C200.13 137.278 199.01 133.25 198.337 131.185C197.666 129.12 197.116 126.48 197.116 125.318C197.116 124.158 195.736 121.928 194.05 120.364L190.983 117.521L194.814 116.754C196.921 116.332 199.872 115.988 201.373 115.988C203.383 115.988 205.264 114.106 208.504 108.853L212.905 101.719L221.205 102.817C228.323 103.759 230.146 104.537 233.999 108.279ZM187.95 111.097C188.365 111.769 189.805 112.319 191.149 112.319C192.494 112.319 193.254 111.769 192.839 111.097C192.423 110.424 190.983 109.874 189.639 109.874C188.294 109.874 187.534 110.424 187.95 111.097ZM181.872 114.009C183.198 114.937 184.724 115.731 185.262 115.771C185.801 115.812 188.17 117.538 190.526 119.607C193.937 122.605 195.15 124.92 196.486 130.99C197.407 135.18 198.714 140.397 199.387 142.582C200.061 144.768 200.339 146.556 200.006 146.556C198.122 146.556 194.672 143.767 194.672 142.245C194.672 139.588 187.177 123.324 185.953 123.324C185.371 123.324 185.031 124.013 185.2 124.853C185.535 126.529 182.745 126.666 176.673 125.271C172.806 124.383 172.715 124.463 171.934 129.347C171.039 134.943 170.724 135.157 167.574 132.305C164.692 129.696 164.742 131.503 167.765 139.175C170.438 145.957 170 146.406 163.076 143.991C158.61 142.433 158.631 142.491 161.159 138.631C162.221 137.008 162.993 133.589 162.873 131.031C162.529 123.632 162.804 121.901 164.186 122.756C166.786 124.364 170.912 121.994 173.834 117.217C177.091 111.893 178.213 111.445 181.872 114.009ZM156.294 115.7C159.186 117.632 160.59 121.999 159.174 124.648C157.873 127.078 157.702 127.098 155.463 125.07C153.567 123.354 153.116 123.287 153.116 124.724C153.116 127.162 155.595 129.438 158.25 129.438C159.797 129.438 160.45 130.37 160.45 132.576C160.45 136.793 158.338 140.494 156.364 139.736C154.2 138.906 148.227 141.269 148.227 142.955C148.227 143.819 149.547 144.016 151.894 143.5C155.714 142.661 156.606 143.799 154.094 146.312C151.865 148.542 146.069 148.065 143.44 145.435C141.053 143.047 141.222 141.427 143.764 142.339C144.538 142.618 146.474 141.84 148.065 140.613C150.204 138.963 150.74 137.694 150.122 135.744C149.408 133.495 148.441 133.136 143.562 133.302C138.623 133.471 138.425 133.566 142.116 134C144.469 134.278 146.893 134.99 147.504 135.587C149.31 137.353 145.811 140.443 142.005 140.443C139.245 140.443 138.668 140.001 139.215 138.303C139.754 136.625 139.64 136.531 138.688 137.87C136.901 140.382 133.561 138.545 133.561 135.05C133.561 131.229 135.399 130.097 140.952 130.499C146.428 130.894 149.05 128.368 147.047 124.625C145.507 121.747 142.69 121.145 143.819 123.936C144.227 124.944 144.854 126.49 145.213 127.371C146.062 129.454 140.046 129.114 135.238 126.809C131.278 124.91 130.168 121.661 132.512 118.834C133.782 117.305 135.667 117.054 141.676 117.615C147.464 118.156 149.59 117.904 150.718 116.543C152.334 114.596 154.215 114.311 156.294 115.7ZM182.755 129.065C184.603 129.438 186.116 130.51 186.116 131.448C186.116 132.632 185.229 132.93 183.215 132.424C180.646 131.779 180.215 132.212 179.47 136.189C178.653 140.542 178.554 140.615 176.26 138.538C172.514 135.147 173.47 126.092 177.413 127.62C178.503 128.042 180.907 128.692 182.755 129.065ZM18.2343 130.355C17.9031 131.532 17.2749 134.421 16.8385 136.774C15.147 145.895 14.9221 146.05 7.67187 143.053L4.61632 141.79L7.54721 140.927C10.3278 140.108 10.362 139.978 8.23043 138.419C6.09643 136.858 6.11843 136.774 8.66065 136.774C10.5233 136.774 11.3385 137.519 11.3385 139.22C11.3385 140.592 12.1538 141.665 13.1951 141.665C14.5689 141.665 14.8512 140.865 14.2792 138.585C13.4505 135.283 15.7691 128.215 17.6806 128.215C18.3162 128.215 18.5655 129.177 18.2343 130.355ZM190.685 136.162C191.465 138.704 191.544 140.721 190.879 141.132C188.958 142.32 184.899 140.377 184.798 138.221C184.744 137.061 184.442 136.8 184.107 137.624C183.781 138.428 184.12 140.22 184.864 141.609C185.88 143.511 186.956 143.947 189.221 143.378C191.781 142.735 192.225 143.051 192.21 145.507C192.181 150.699 190.848 153.573 187.829 154.948C185.361 156.073 184.448 155.892 182.431 153.875C181.097 152.539 179.225 151.447 178.272 151.447C176.441 151.447 172.316 145.44 170.87 140.669L170.012 137.837L174.96 140.363C177.682 141.752 180.204 142.888 180.567 142.888C180.93 142.888 181.227 141.174 181.227 139.077C181.227 135.671 181.553 135.329 184.283 135.851C186.657 136.305 187.339 135.928 187.339 134.159C187.339 130.417 189.279 131.579 190.685 136.162ZM74.6778 143.458C75.4441 148.189 76.6382 157.836 77.3312 164.898C78.0242 171.959 79.3845 183.763 80.3538 191.129C82.4279 206.891 82.0013 207.99 74.0214 207.447L68.6571 207.082L64.5969 195.466C62.3626 189.077 58.6495 179.173 56.3432 173.457C50.1221 158.034 38.9302 144.309 41.2329 154.926C41.6203 156.711 40.821 163.265 39.4594 169.49C38.0967 175.714 36.6275 186.582 36.1961 193.64L35.4114 206.471L31.0139 206.454C24.3246 206.43 21.4133 205.287 20.636 202.385C20.2473 200.933 19.0202 191.783 17.9092 182.053C16.0038 165.371 16.0123 163.588 18.0412 150.887C19.2255 143.478 20.4086 136.859 20.6726 136.178C20.9733 135.399 30.7975 134.924 47.2169 134.899L73.2844 134.857L74.6778 143.458ZM248.067 150.681C247.419 152.369 236.438 158.784 234.195 158.784C233.705 158.784 235.011 156.995 237.099 154.81C239.186 152.625 241.823 148.635 242.957 145.945L245.02 141.054L246.906 144.922C247.944 147.049 248.467 149.64 248.067 150.681ZM201.873 153.097C203.172 155.216 204.609 159.483 205.066 162.581C205.823 167.72 205.608 168.439 202.604 170.802C198.864 173.745 192.342 175.298 188.264 174.217C186.43 173.732 184.602 171.416 182.811 167.31C179.822 160.455 180.14 157.506 183.767 158.455C186.89 159.272 194.897 153.876 194.02 151.545C193.25 149.501 195.59 147.739 197.897 148.625C198.785 148.965 200.574 150.978 201.873 153.097ZM253.834 166.426C257.45 179.519 258.418 181.987 260.987 184.672C261.842 185.565 264.408 188.686 266.69 191.609C270.209 196.114 270.667 197.412 269.707 200.146C268.037 204.894 263.148 206.213 258.715 203.112C256.767 201.748 252.14 198.676 248.433 196.287C244.726 193.898 237.12 186.954 231.528 180.855C225.938 174.755 220.849 170.085 220.22 170.473C219.592 170.862 219.345 171.615 219.674 172.146C220.001 172.678 216.792 174.055 212.541 175.205C197.308 179.331 194.688 183.125 194.654 201.111C194.633 211.856 194.132 213.168 189.05 215.813C184.683 218.085 173.894 219.521 173.894 217.832C173.894 216.286 181.627 213.007 187.95 211.87L192.839 210.99L188.402 209.867C183.655 208.665 182.235 206.389 178.265 193.632C174.631 181.954 174.002 175.943 175.929 171.327L177.709 167.068L181.301 171.095C183.277 173.309 184.894 175.527 184.894 176.026C184.894 176.524 186.539 177.293 188.55 177.734C191.901 178.47 199.018 175.933 206.894 171.194C210.718 168.892 227.38 162.099 235.005 159.733C239.375 158.376 244.035 156.507 245.361 155.579C246.686 154.652 248.357 153.893 249.072 153.893C249.787 153.893 251.929 159.533 253.834 166.426ZM275.191 209.551C274.46 212.229 273.302 215.107 272.618 215.947C271.223 217.658 259.953 218.058 258.949 216.432C257.829 214.619 263.994 212.683 268.534 213.42C271.38 213.882 272.894 213.647 272.894 212.745C272.894 211.98 270.984 211.362 268.616 211.362C263.474 211.362 263.144 209.733 267.7 206.834C269.548 205.658 271.533 203.936 272.111 203.008C273 201.578 273.415 201.576 274.84 203.002C276.172 204.336 276.245 205.69 275.191 209.551ZM35.783 208.979C35.783 210.778 28.7405 213.523 18.7061 215.634C5.35332 218.444 2.57276 216.247 12.8077 210.971C17.8689 208.361 20.8584 207.694 27.4743 207.694C32.4671 207.694 35.783 208.206 35.783 208.979ZM84.9848 210.627C85.8868 211.53 88.385 213.179 90.5373 214.292C95.1231 216.664 95.5521 218.372 91.6996 218.919C87.4744 219.519 71.3741 213.354 69.5909 210.454C68.5275 208.722 83.2468 208.887 84.9848 210.627Z" fill="white"/>
</svg>
