<svg width="146" height="216" viewBox="0 0 146 216" fill="none" xmlns="http://www.w3.org/2000/svg">
<path fill-rule="evenodd" clip-rule="evenodd" d="M68.0475 2.03445C66.0822 3.98859 65.8477 4.50456 65.8499 6.87913C65.8521 10.1218 67.2617 12.6313 69.6268 13.6053L71.339 14.3108V33.8336C71.339 50.5211 71.4587 53.4553 72.1627 54.0363C72.82 54.5785 73.1528 54.5785 73.8101 54.0363C74.5141 53.4553 74.6338 50.5277 74.6338 33.8915V14.4265L76.4569 13.4503C78.8835 12.1508 80.1251 9.91709 80.1251 6.85128C80.1251 4.75955 79.8159 3.99842 78.2937 2.34676C76.6925 0.609381 76.0714 0.327643 73.3543 0.103782C70.3253 -0.146287 70.1919 -0.0976913 68.0475 2.03445ZM76.0313 4.05247C78.7556 6.76065 76.8254 11.4481 72.9864 11.4481C70.7289 11.4481 68.5934 9.32467 68.5934 7.08006C68.5934 4.83544 70.7289 2.71204 72.9864 2.71204C74.0561 2.71204 75.1818 3.20726 76.0313 4.05247ZM32.5079 8.77758C29.8957 9.52888 27.775 12.5849 27.775 15.5982C27.775 18.361 28.9913 20.3796 31.6892 22.0951L33.4068 23.1871L33.4277 30.3174C33.4436 35.5803 33.6528 37.725 34.2272 38.5074C34.9384 39.4755 35.9246 39.5907 45.6217 39.8402L56.238 40.1132L56.5125 47.2112C56.7865 54.2962 56.8195 54.3999 58.709 54.1182C59.0446 54.0679 59.2582 51.0977 59.2582 46.4769C59.2582 39.8855 59.1313 38.8033 58.2676 38.0264C57.4389 37.2805 55.5818 37.1107 46.8731 36.9863L36.4693 36.8372L36.3167 29.9843L36.1635 23.1314L38.1046 22.2109C43.5273 19.6398 43.6316 11.9187 38.2787 9.34214C35.6314 8.06777 35.1443 8.02027 32.5079 8.77758ZM107.838 9.24386C106.621 9.85375 105.199 11.067 104.68 11.94C102.598 15.4454 104.151 20.4478 107.868 22.2109L109.809 23.1314L109.656 29.9843L109.503 36.8372L99.0997 36.9863C90.391 37.1107 88.5339 37.2805 87.7052 38.0264C86.842 38.8028 86.7146 39.8834 86.7146 46.4185C86.7146 52.7717 86.8481 53.9702 87.5877 54.2525C88.0682 54.436 88.686 54.4474 88.9606 54.2787C89.2357 54.11 89.4603 50.7925 89.4603 46.906V39.8402H99.8937C113.303 39.8402 112.524 40.431 112.524 30.2715C112.524 23.1183 112.562 22.8721 113.759 22.4124C115.546 21.7266 117.411 19.5469 118.02 17.435C119.713 11.5677 113.376 6.46963 107.838 9.24386ZM37.6763 12.2676C39.1194 13.2728 39.774 15.9056 38.9574 17.4219C38.0107 19.1817 35.8433 20.3517 34.2629 19.9575C30.8803 19.1134 29.6826 15.6157 31.8418 12.8868C33.1564 11.2248 35.7791 10.9463 37.6763 12.2676ZM113.999 12.6351C116.274 14.7607 115.516 18.4058 112.545 19.6294C109.238 20.9917 105.903 18.0329 106.789 14.5221C107.552 11.5005 111.638 10.4309 113.999 12.6351ZM3.03561 46.9863C-2.57539 51.3751 0.0763509 60.0461 7.02777 60.0401C10.1232 60.0379 12.7173 58.5823 13.7469 56.2694L14.4976 54.5823H27.2681H40.0387L40.0919 55.8108C40.121 56.4867 40.1018 57.9631 40.0497 59.0923C39.8833 62.6648 40.5241 64.4966 41.8739 64.305C42.9781 64.1488 43.0699 63.789 43.2176 59.0082C43.362 54.347 43.2659 53.7622 42.1611 52.5927C40.9497 51.3106 40.9024 51.3063 27.7217 51.3063H14.4976L13.7469 49.6191C12.1517 46.0357 6.13984 44.5582 3.03561 46.9863ZM134.657 46.9819C133.692 47.5962 132.582 48.8203 132.189 49.7027L131.475 51.3063H118.504C106.159 51.3063 105.462 51.3614 104.067 52.4529C102.637 53.5716 102.605 53.7272 102.757 58.8624C102.896 63.5105 103.034 64.1477 103.946 64.3213C105.502 64.6173 105.917 63.4647 105.926 58.8138L105.934 54.5823H118.705H131.475L132.226 56.2694C134.375 61.0966 142.065 61.2987 144.944 56.603C148.867 50.2077 141.058 42.9049 134.657 46.9819ZM10.037 49.7081C13.1303 52.1275 11.1364 57.3123 7.11234 57.3123C3.46613 57.3123 1.73857 52.2672 4.5589 49.855C6.40452 48.276 8.1469 48.2295 10.037 49.7081ZM140.762 49.2025C142.74 50.0991 143.589 52.9399 142.503 55.0289C141.16 57.6115 138.387 58.098 135.936 56.1804C133.892 54.5823 133.892 51.3063 135.936 49.7081C137.577 48.4245 138.769 48.3 140.762 49.2025ZM66.6714 62.0516C66.0674 62.1859 63.967 62.7996 62.0038 63.415C40.5746 70.1357 30.1214 94.6845 40.3929 114.166C43.9479 120.909 49.9307 127.042 55.5516 129.704L57.6108 130.679V164.515V198.351L60.9934 204.682C65.6715 213.436 66.7714 215.068 68.4116 215.688C70.5604 216.5 71.613 215.916 75.6887 211.647C86.5147 200.308 87.0457 199.292 83.969 195.807C83.0629 194.782 82.3216 193.798 82.3216 193.623C82.3216 193.447 83.2969 191.804 84.4885 189.97L86.6559 186.636L84.7125 183.947C83.6439 182.467 82.5577 181.127 82.2991 180.968C82.0404 180.809 82.9284 177.488 84.2721 173.588C85.6153 169.688 86.7146 166.106 86.7146 165.628C86.7146 165.149 85.7262 163.524 84.5181 162.015C83.31 160.506 82.3216 159.046 82.3216 158.768C82.3216 158.491 82.9394 157.361 83.6944 156.256C84.6845 154.808 85.0672 153.521 85.0672 151.644C85.0672 149.143 85.1287 149.041 86.6405 149.041C87.5059 149.041 88.865 148.531 89.6607 147.909C91.5332 146.445 91.5124 144.978 89.508 137.166L87.932 131.023L91.2977 129.249C96.4512 126.531 102.403 120.298 105.247 114.641C106.529 112.089 107.962 108.527 108.428 106.726C109.432 102.855 109.573 94.1948 108.696 90.37C104.788 73.3304 89.9699 61.5252 72.7613 61.7436C70.0162 61.7786 67.2755 61.9167 66.6714 62.0516ZM82.1563 65.8196C83.7268 66.2536 85.1293 66.798 85.2732 67.0301C85.417 67.2616 85.5905 71.4969 85.6581 76.4415C85.7262 81.3861 85.9854 85.984 86.2347 86.6599C86.6015 87.6558 87.1062 87.8884 88.8974 87.8884H91.1077L91.0862 92.666C91.0654 97.4424 91.0648 97.4435 89.3016 98.5464C83.1634 102.385 88.3082 111.919 95.0257 109.152C96.9411 108.363 98.7905 105.738 98.7933 103.805C98.7971 101.661 97.1728 98.951 95.4622 98.2466L93.8533 97.5838V91.984C93.8533 85.8999 93.6941 85.5423 90.6958 84.9051L88.9111 84.5256V76.6064C88.9111 71.706 89.1149 68.7565 89.446 68.8695C89.7403 68.9695 91.4827 70.1401 93.3179 71.4707C96.6961 73.9195 100.722 78.6916 102.759 82.661C107.636 92.1664 107.645 103.413 102.783 113.143C100.19 118.333 93.9697 124.591 88.781 127.23C86.7465 128.265 84.9794 129.375 84.8547 129.696C84.7301 130.018 85.4654 133.458 86.4884 137.34C87.512 141.223 88.3521 144.707 88.3554 145.082C88.3598 145.536 87.4636 145.765 85.6834 145.765C82.2134 145.765 81.6132 146.491 82.0959 150.109C82.4347 152.65 82.3161 153.132 80.8406 155.209C79.9444 156.471 79.0488 157.783 78.8505 158.124C78.6523 158.465 79.7121 160.411 81.2052 162.447C82.6983 164.483 83.813 166.322 83.6823 166.532C83.5516 166.742 82.3567 170.019 81.0262 173.813L78.6078 180.712L80.7818 183.73L82.9553 186.748L81.5358 189.052C80.7555 190.319 79.7396 191.876 79.2783 192.512C78.4936 193.595 78.5831 193.848 80.6923 196.5L82.9437 199.333L80.8823 201.623C73.0111 210.368 70.5214 212.923 69.8706 212.923C69.2556 212.923 69.1332 205.88 69.1496 171.331C69.1617 144.825 68.9734 129.544 68.6296 129.202C68.2771 128.852 67.7977 128.908 67.2436 129.366C66.4951 129.983 66.3952 134.609 66.3831 169.173L66.3694 208.282L63.5002 203.095L60.631 197.908L60.4816 163.399L60.3328 128.89L56.9123 127.108C52.1508 124.627 45.7633 118.166 43.1846 113.221C38.3128 103.88 38.1991 92.7642 42.8777 83.2234C44.8386 79.225 48.386 74.7735 51.6824 72.1745C56.2446 68.578 55.9634 68.2285 55.9634 77.4953V85.7044H54.316C53.3721 85.7044 52.1739 86.1964 51.5094 86.857C50.4337 87.9267 50.3782 88.3733 50.734 93.0968L51.1179 98.185L49.5034 99.0149C46.3081 100.658 45.1939 104.259 46.8786 107.498C47.6216 108.927 50.6088 110.821 52.1195 110.821C53.6302 110.821 56.6174 108.927 57.3604 107.498C58.9721 104.4 57.6487 99.96 54.8509 99.0771C53.8784 98.7703 53.7669 98.2341 53.7669 93.8683C53.7669 88.5715 53.5709 88.8767 57.3362 88.3127C58.3785 88.1565 58.4482 87.6225 58.709 77.8158L58.9836 67.4838L62.0038 66.4431C63.6649 65.8703 66.3216 65.2676 67.907 65.1027L70.7899 64.8035L70.7882 74.2984L70.7871 83.7934L68.7735 84.8854C65.8345 86.4797 64.465 88.595 64.5265 91.444C64.733 100.929 79.0268 100.923 79.0268 91.4375C79.0268 89.1923 77.3415 86.0151 75.6832 85.1322C74.7079 84.6135 74.6338 83.8573 74.6338 74.4442V64.3142L76.9676 64.6724C78.2509 64.869 80.5863 65.3855 82.1563 65.8196ZM75.0962 88.8172C77.4871 91.4817 75.5635 95.5325 71.9068 95.5325C69.2803 95.5325 67.4951 93.9087 67.4951 91.5204C67.4951 87.1573 72.1287 85.5095 75.0962 88.8172ZM94.1251 100.794C95.4375 101.295 96.1783 103.555 95.465 104.881C93.9186 107.754 89.4949 106.729 89.4685 103.493C89.4509 101.273 91.8045 99.9087 94.1251 100.794ZM54.4099 102.442C55.6394 103.548 55.685 104.734 54.5593 106.331C52.9163 108.664 48.8247 107.233 48.8247 104.326C48.8247 101.935 52.4775 100.703 54.4099 102.442Z" fill="white"/>
</svg>
