<svg width="84" height="71" viewBox="0 0 84 71" fill="none" xmlns="http://www.w3.org/2000/svg">
<mask id="path-1-inside-1_411_3025" fill="white">
<path fill-rule="evenodd" clip-rule="evenodd" d="M17.8144 17.7021C17.5411 18.4114 17.4726 19.5039 17.6405 20.4719L17.7727 21.2342L16.5587 21.2033C15.3741 21.1729 15.3114 21.2048 13.9604 22.5272C12.729 23.7327 12.5742 23.9716 12.5584 24.6927C12.5456 25.2647 12.7339 25.7018 13.1968 26.1764L13.853 26.8493L15.4675 25.845C17.6741 24.4725 17.7399 24.3927 17.9207 22.8743L18.0798 21.5372L18.8564 21.4941C20.5553 21.4002 22.7013 19.195 22.3962 17.8565C22.2195 17.082 20.8996 16.2235 19.9901 16.2919C19.1464 16.3556 18.0625 17.0582 17.8144 17.7021ZM4.74431 31.3588C4.90818 31.7432 4.99157 31.7897 5.02431 31.5145C5.04999 31.2988 4.94496 31.0527 4.79097 30.9669C4.63105 30.8782 4.6112 31.0463 4.74431 31.3588ZM22.1327 14.7233C21.7769 15.3966 21.9635 16.567 22.5381 17.2674C22.6839 17.445 23.34 17.528 23.9958 17.4518C24.9934 17.3361 25.2965 17.182 25.8488 16.5102C26.2122 16.0684 26.6333 15.1966 26.7845 14.5726C27.024 13.5864 26.9756 13.3349 26.4149 12.6515C25.8495 11.9624 25.6843 11.9056 25.0781 12.1899C24.011 12.6903 22.5368 13.9582 22.1327 14.7233ZM8.27595 29.213C8.17094 30.0951 8.27394 30.4516 8.82919 31.1283C9.63811 32.1142 9.41427 32.5148 8.15496 32.3344C7.05695 32.1769 5.8076 32.8564 4.47168 34.3378C3.26497 35.6756 3.00464 36.5348 3.50468 37.5289C3.80652 38.129 3.76787 38.2373 2.97191 39.0165C2.49977 39.4786 2.00026 40.0689 1.86206 40.328C1.6406 40.7429 1.61209 40.7315 1.6241 40.2333C1.64745 39.2686 1.19394 39.996 0.865938 41.4495L0.56865 42.7668L1.93106 42.7077C2.68029 42.6753 3.62673 42.7611 4.03417 42.8985C4.47364 43.0464 4.92891 42.9971 5.1536 42.7772C5.36204 42.5732 5.73038 41.3887 5.97228 40.1449C6.45581 37.6587 6.84447 37.1698 8.42849 37.0569C9.20192 37.0018 9.20573 36.9984 8.69081 36.826C7.97107 36.5852 8.07858 35.983 9.00319 35.0779C9.56827 34.5247 9.78817 34.0498 9.96029 33.0109L10.1838 31.6619L11.5655 30.6141C13.5313 29.1231 13.6265 29.006 13.5641 28.1577C13.4879 27.1192 12.435 26.3204 11.1784 26.3479C10.3856 26.365 10.0349 26.5337 9.30406 27.2491C8.568 27.9696 8.38157 28.3257 8.27595 29.213ZM2.19728 34.8889C2.02122 35.2339 1.94689 35.5144 2.03176 35.5125C2.21294 35.5088 3.34137 33.7805 3.24194 33.6593C3.13029 33.5232 2.5386 34.2197 2.19728 34.8889ZM27.2513 11.8668C27.0038 12.7433 27.8859 13.9671 28.7518 13.9483C30.202 13.9166 31.2573 12.9566 31.4291 11.5126C31.5824 10.2245 30.8862 9.15927 29.9379 9.23065C29.1627 9.28889 27.526 10.8949 27.2513 11.8668ZM1.44176 37.4636C1.42974 37.9618 1.45825 37.9732 1.67971 37.5583C1.81789 37.2991 2.07505 36.9439 2.25122 36.7688C2.52771 36.4936 2.51233 36.4651 2.13686 36.5581C1.53961 36.7061 1.45762 36.8129 1.44176 37.4636ZM42.2011 4.08771C43.4541 4.90323 44.2327 6.00697 44.8531 7.84634C45.1958 8.86212 45.4683 9.82765 45.4587 9.992C45.4423 10.2787 43.3871 11.5397 42.4146 11.8598C42.1571 11.9448 41.547 12.3088 41.0584 12.6691C40.2924 13.2342 40.0311 13.2751 39.1567 12.9685C37.9974 12.5617 35.5215 12.2796 35.4896 12.5504C35.4774 12.6503 35.8023 12.7372 36.2111 12.7442C37.102 12.7589 39.0793 13.4583 39.0451 13.7463C39.0317 13.8587 37.9198 14.5796 36.5743 15.348C35.229 16.1165 33.4101 17.2078 32.5325 17.7728C30.7994 18.8885 25.3614 23.6281 25.2206 24.1455C25.1729 24.321 24.5706 25.1153 23.8821 25.9108C21.909 28.1908 21.0505 29.6264 18.8888 34.2606C17.7777 36.6425 16.6841 38.9398 16.4586 39.3655C16.2332 39.7913 15.8693 40.9412 15.6501 41.921C15.2591 43.6688 15.13 43.9603 14.5502 44.4059C14.3915 44.5279 14.3661 44.6527 14.4938 44.6836C15.0339 44.8141 14.464 47.5237 13.8226 47.8744C13.5023 48.0495 13.4603 48.1652 13.6784 48.2718C13.8474 48.3546 13.9349 48.7312 13.8727 49.1089C13.7644 49.7658 13.6801 49.8392 11.9339 50.7977C10.9298 51.349 10.1182 51.6671 10.1302 51.5047C10.1424 51.3424 10.0919 51.3748 10.018 51.5768C9.94416 51.7785 9.82511 51.8724 9.75343 51.785C9.68189 51.6979 9.18037 51.8029 8.63902 52.019L7.6549 52.4117L8.65585 52.3579C9.2064 52.3284 10.4002 52.1632 11.3089 51.9906L12.961 51.6772L12.0975 52.7394C10.6241 54.5521 9.14847 55.921 7.9295 56.6062C6.43067 57.4487 6.39512 57.492 7.39883 57.253C7.85729 57.144 9.25123 56.4729 10.4963 55.7618C12.608 54.5559 12.7272 54.5191 12.2724 55.2143C12.0041 55.624 11.85 56.0386 11.9297 56.1358C12.1514 56.4059 10.1254 58.2801 8.98392 58.8606C8.42634 59.1443 8.01883 59.4361 8.0786 59.5089C8.13837 59.5818 9.03248 59.2284 10.0655 58.7233C11.6217 57.9626 11.9406 57.8872 11.9274 58.285C11.9166 58.6074 11.5068 59.1609 10.6794 59.9708C9.72582 60.9043 9.49657 61.2371 9.66575 61.4433C9.81525 61.6255 10.2197 61.4494 10.9489 60.8844C11.5346 60.4306 12.0543 60.1112 12.1041 60.1745C12.1536 60.2378 12.0426 60.7712 11.8572 61.3596C11.5213 62.4261 11.6094 62.9915 12.0448 62.5652C12.171 62.4417 12.2287 62.7986 12.1731 63.3584C12.0785 64.3113 12.1577 64.4791 13.4141 65.9927C14.722 67.5684 14.755 67.59 14.7231 66.845C14.7049 66.4246 14.9633 63.7391 15.2976 60.8774C15.8846 55.8513 15.9225 55.6907 16.4076 56.1652C17.1691 56.9099 19.2436 58.3912 20.6846 59.2189C25.6128 62.05 32.5866 62.3294 38.2875 59.9238C41.1101 58.733 42.8519 57.4449 46.5822 53.7895C49.5942 50.8385 50.1321 50.2182 51.531 48.0862C54.2677 43.9141 56.32 39.0219 56.9783 35.102C58.0113 28.9499 55.7458 20.0431 52.332 16.8334C51.2124 15.781 49.4171 14.5474 48.3615 14.1049C46.9546 13.5154 46.8623 13.4138 47.3225 12.9643C47.5585 12.7339 49.4522 11.8475 51.5305 10.9946C53.6088 10.1418 55.4547 9.38211 55.632 9.30678C55.8731 9.20411 55.6879 8.84421 54.9006 7.88466C53.6983 6.41932 53.8492 6.42103 51.2053 7.83838C48.8869 9.0812 48.7013 9.08993 48.7931 7.95152C48.8939 6.69784 49.5707 0.590794 48.9662 1.18258C49.0765 -0.542166 47.4497 3.73967 47.3756 6.43708C47.326 8.24441 47.159 9.50003 46.9492 9.64148C46.5335 9.92169 46.4881 9.84881 45.3373 7.04477C44.4527 4.8888 44.3947 4.80602 43.3377 4.18148C42.1695 3.49124 41.1566 3.40736 42.2011 4.08771ZM22.5902 24.3638C22.7518 24.4029 23.1378 24.3493 23.4475 24.2449C23.8515 24.109 23.928 24.035 23.7175 23.9843C23.5559 23.9453 23.1699 23.9988 22.8602 24.1032C22.4562 24.2392 22.3796 24.3131 22.5902 24.3638ZM29.479 23.3913C31.0895 22.1263 31.5685 22.0269 32.4391 22.7772C33.0351 23.2905 33.4544 23.3927 34.4161 23.2601C35.0873 23.1678 35.6248 22.9728 35.6102 22.8269C35.5959 22.6807 35.108 22.6398 34.5256 22.7359C33.2731 22.9423 32.1029 22.2229 32.2111 21.3134C32.2697 20.8219 32.4556 20.6465 33.8553 19.7602C34.7232 19.2107 35.8109 18.6844 36.2727 18.5908C36.904 18.4628 37.1346 18.3085 37.2043 17.9671C37.3227 17.3877 38.2592 17.322 38.7022 17.8619C38.9667 18.1841 39.023 18.1605 39.1201 17.6857C39.2164 17.2134 39.3514 17.1442 40.0888 17.1885C40.6038 17.2199 41.1419 17.0481 41.4378 16.7584C42.1539 16.0573 42.2942 16.4632 41.9958 18.3735C41.85 19.3053 41.8462 19.9564 41.9869 19.8206C42.3361 19.4836 42.7255 18.4972 42.8765 17.5677C43.0103 16.7452 43.5809 16.375 43.7631 16.9924C43.8367 17.243 43.9683 17.2393 44.1663 16.9822C44.3279 16.7723 44.6166 16.5595 44.8078 16.5095C45.2879 16.3836 45.5466 17.5709 45.1762 18.1979C44.6117 19.1524 45.3997 18.9403 46.4768 17.8478C47.0674 17.2488 47.5964 16.8138 47.652 16.8816C47.7076 16.9494 47.641 17.4414 47.504 17.9751C47.1873 19.2092 47.3418 19.3793 48.3912 18.9502C49.2304 18.6074 49.2267 18.6139 48.0406 19.5843C47.2246 20.2517 46.895 20.6297 47.0082 20.7676C47.0995 20.879 47.4393 20.7108 47.7637 20.3933C48.0875 20.0763 48.6949 19.6963 49.1131 19.549C49.8155 19.3017 49.9635 19.374 51.0658 20.5037C51.7216 21.176 52.246 21.8584 52.2308 22.0201C52.2157 22.1815 51.6492 22.6107 50.9723 22.9735C49.3408 23.848 49.0274 24.4443 50.6095 23.6638C52.229 22.865 52.7636 22.9057 52.8318 23.8341C52.8599 24.2174 52.9596 24.6243 53.053 24.7382C53.1466 24.8523 53.205 25.4013 53.183 25.958C53.1607 26.515 53.2467 27.0971 53.3737 27.2518C53.5512 27.4682 53.4482 27.6403 52.928 27.9966L52.2517 28.4602L52.9613 28.5679C53.3517 28.6272 53.7817 28.5719 53.9174 28.4453C54.0527 28.3181 54.2619 28.3344 54.3825 28.4813C54.5088 28.6353 54.453 28.8187 54.2509 28.9149C54.0584 29.007 53.9149 29.2255 53.9324 29.4011C53.9497 29.5764 53.7891 29.8913 53.5752 30.1006C53.2279 30.4406 53.2751 30.5746 54.016 31.3556C54.7931 32.1745 54.821 32.2729 54.4607 32.9073C54.1525 33.4505 53.893 33.6181 53.1544 33.7514C51.7203 34.0103 52.0132 34.4317 53.5578 34.3317L54.943 34.2421L54.6685 35.3739C54.4412 36.3113 54.2836 36.5589 53.7527 36.8141C53.0148 37.1687 53.1332 37.5091 54.0349 37.6262C54.8023 37.726 54.8895 38.3137 54.2319 38.9574C53.8138 39.3666 53.7435 39.5906 53.9529 39.8459C54.1224 40.0524 54.0801 40.4945 53.8462 40.9648C53.5237 41.6137 53.3467 41.766 52.7807 41.8837C51.8785 42.0714 51.3486 42.6158 51.6777 43.0169C51.8219 43.1926 51.8458 43.6212 51.7303 43.9694C51.5508 44.5133 51.4454 44.593 50.982 44.5353C50.5124 44.4766 50.447 44.5275 50.4726 44.9303C50.4889 45.1846 50.6279 45.5482 50.7811 45.7392C51.0305 46.0486 50.9396 46.1832 49.9158 47.0199C49.2863 47.534 48.7812 48.0562 48.7936 48.1807C48.8061 48.3052 48.4746 48.7161 48.0574 49.0936C47.117 49.9451 46.9819 50.4555 47.5226 51.1145C47.7538 51.3962 47.9021 51.7481 47.8523 51.8963C47.7517 52.197 47.1973 51.9918 46.7993 51.5067C46.4905 51.1303 45.0485 51.2231 44.6151 51.6473C44.4465 51.8124 44.1352 51.8321 43.9233 51.6918C43.6881 51.536 43.4612 51.5821 43.342 51.81C43.2276 52.0272 43.0915 52.0656 43.016 51.9018C42.9444 51.7466 42.7467 51.6887 42.5764 51.7732C42.406 51.8572 42.3726 52.0555 42.5025 52.2138C42.8113 52.5902 42.2958 53.0849 41.7598 52.9266C41.4432 52.8333 41.2928 52.9307 41.1435 53.3262C40.9892 53.735 40.7757 53.8459 40.1655 53.8337C39.7362 53.8255 39.2472 53.9538 39.0787 54.1187C38.9102 54.2836 38.5637 54.3647 38.3087 54.299C37.8723 54.1862 37.8454 54.2167 37.8446 54.8156C37.8442 55.1658 37.7641 55.3548 37.6666 55.236C37.5689 55.1169 37.356 55.1499 37.1933 55.3091C37.0305 55.4685 36.7447 55.5241 36.5585 55.433C36.3725 55.3422 36.1303 55.3756 36.0205 55.5071C34.9832 56.7551 34.6663 56.385 34.8854 54.1814C35.0953 52.0689 34.8393 51.636 34.4362 53.4217C34.271 54.1543 34.1951 54.8261 34.2676 54.9144C34.34 55.0027 34.2588 55.4221 34.0871 55.8463C33.7986 56.5582 33.7341 56.6036 33.2442 56.4358C32.9525 56.3363 32.5761 56.4099 32.4076 56.5995C31.9998 57.0594 31.8152 56.783 31.774 55.6501C31.7332 54.5237 31.4165 54.4158 31.2892 55.4851C31.1935 56.289 30.5828 56.792 30.228 56.3596C30.0118 56.0961 29.7834 56.2254 29.097 56.9979C28.5767 57.5832 28.4542 57.416 28.3736 56.0101C28.2813 54.3968 28.059 54.2447 27.0887 55.1311C26.0667 56.0639 25.8839 56.0721 25.949 55.1804C25.9991 54.4955 25.989 54.484 25.628 54.8269C24.735 55.6764 23.8083 55.351 23.0523 53.9228C22.9015 53.6374 22.6264 53.5768 22.2329 53.7422C21.2489 54.1554 21.0225 53.3242 21.837 52.2891C22.2121 51.8122 22.3235 51.5927 22.0847 51.8009C21.8457 52.0093 21.3157 52.2231 20.9071 52.2762C20.2509 52.3617 20.1907 52.3214 20.3928 51.933C20.58 51.5731 20.4705 51.353 19.7913 50.724C19.0148 50.0047 18.9876 49.9219 19.3705 49.4439C19.7263 49 19.699 48.8321 19.1605 48.1626C18.82 47.7387 18.552 47.3013 18.5652 47.1904C18.6035 46.8686 19.4192 46.0396 20.0627 45.6687C20.6417 45.3349 20.6376 45.3321 19.8568 45.5238C18.7213 45.8026 18.4894 45.3102 19.0368 43.7815C19.348 42.9121 19.4104 42.3263 19.2165 42.0899C18.8218 41.6088 19.1823 40.9834 20.0523 40.6402C20.9686 40.2785 22.2727 39.4415 22.1397 39.3002C22.0827 39.2396 21.5018 39.3044 20.8487 39.4442C19.6409 39.7027 19.2937 39.4179 19.9877 38.7386C20.199 38.5317 20.5963 37.85 20.8704 37.2237C21.5511 35.6682 22.9599 33.9495 23.4609 34.0638C23.7716 34.1347 23.8034 34.1059 23.6394 33.9005C23.5229 33.7547 23.596 33.5767 23.8156 33.4721C24.3382 33.2229 24.0847 33.0056 23.1525 32.9037C22.1272 32.7916 22.0438 32.2433 23.016 32.0093C23.6824 31.8487 23.7109 31.8185 23.4192 31.5845C22.6921 31.001 23.5522 30.7556 24.9258 31.1543C25.7407 31.3908 26.3624 31.4553 26.3079 31.2971C26.2531 31.1391 25.6736 30.8518 25.02 30.6586C24.3664 30.4653 23.8145 30.2865 23.7938 30.2613C23.7065 30.1548 24.5579 28.7376 25.154 27.9972C25.6217 27.4162 25.9062 27.2281 26.1909 27.3121C26.735 27.4726 26.925 27.2954 26.8412 26.7066C26.8019 26.4299 26.9773 26 27.2316 25.7512C27.4856 25.5025 27.6796 25.1593 27.6625 24.9883C27.6457 24.8174 27.809 24.5754 28.0256 24.4504C28.2422 24.3255 28.8964 23.849 29.479 23.3913ZM37.1308 20.7959C37.2203 21.5273 37.1999 22.2171 37.085 22.3297C36.9545 22.4573 37.0602 22.5485 37.3664 22.5731C37.795 22.6072 37.8197 22.4133 37.5645 21.036C37.2098 19.1203 36.9049 18.9514 37.1308 20.7959ZM38.7046 19.6803C38.6309 20.6889 39.0483 21.0465 39.1642 20.0735C39.2157 19.6414 39.1443 19.2252 39.0057 19.148C38.841 19.0566 38.7367 19.241 38.7046 19.6803ZM28.8032 31.5905C28.5463 32.0365 28.3123 32.6013 28.2831 32.846C28.2541 33.0904 28.1102 33.408 27.9638 33.5514C27.459 34.0455 26.9418 37.9403 27.1678 39.5459C27.2922 40.4295 27.3932 41.3596 27.3921 41.6135C27.3913 41.8673 27.5179 42.2593 27.6735 42.4846C27.8291 42.71 28.2782 43.5001 28.6713 44.2399C29.0643 44.9801 29.5815 45.7268 29.8208 45.8991C30.06 46.0717 30.5143 46.4017 30.8302 46.633C31.1463 46.8641 31.7256 47.0908 32.118 47.1364C32.5102 47.1822 32.891 47.2926 32.9643 47.3819C33.0377 47.4714 33.7993 47.6193 34.6569 47.711C35.8074 47.8335 36.759 47.6865 38.2862 47.1494C40.3387 46.4281 40.3741 46.4045 42.4178 44.3698C44.1867 42.609 44.5587 42.1285 45.0413 40.9825C46.2173 38.1895 46.3108 35.2765 45.3026 32.8801C44.6428 31.3121 42.9962 29.3082 41.6345 28.4162C40.3389 27.5677 37.8878 27.0808 36.2049 27.3383C35.5219 27.4428 34.7634 27.5373 34.5193 27.5483C34.2754 27.5594 33.9587 27.6829 33.8156 27.823C33.6728 27.9629 33.4616 28.0261 33.3462 27.9638C33.2315 27.9012 32.462 28.4121 31.6365 29.0992C30.811 29.7864 30.0825 30.2834 30.0175 30.2042C29.867 30.0207 29.4006 30.5532 28.8032 31.5905ZM37.9831 23.2646C37.9573 23.6856 38.0035 23.7236 38.2494 23.4829C38.4127 23.323 38.446 23.0692 38.3231 22.9193C38.0512 22.588 38.0228 22.6171 37.9831 23.2646ZM9.9573 53.3072C11.5673 52.7657 11.9016 52.4443 10.4442 52.8392C9.81716 53.0091 9.17475 53.2769 9.01641 53.4342C8.85823 53.5917 9.28165 53.5346 9.9573 53.3072ZM37.6083 30.7963C37.6666 30.9931 38.0362 31.2632 38.4301 31.3958C39.0821 31.6155 39.1473 31.7083 39.1546 32.4313C39.1649 33.4476 38.9059 33.4374 37.8894 32.3824C37.2484 31.7172 37.1075 31.4198 37.2478 31.0303C37.4823 30.3791 37.4849 30.3775 37.6083 30.7963ZM28.5397 46.3145C28.7221 46.2307 28.8834 46.0609 28.8981 45.9378C28.9127 45.8147 28.7636 45.8834 28.5664 46.0905C28.3484 46.3196 28.338 46.4075 28.5397 46.3145ZM30.8947 48.0439C30.911 48.2082 31.0165 48.2523 31.129 48.1422C31.2414 48.0321 31.2665 47.8602 31.1845 47.7603C31.1025 47.6604 30.9972 47.6161 30.9503 47.662C30.9033 47.708 30.8784 47.8797 30.8947 48.0439ZM62.9924 19.4974L62.9 20.4965L63.9014 20.5731C65.2158 20.6739 65.3847 20.4687 64.2395 20.1636C63.3022 19.9138 63.0547 19.5108 63.5446 19.0312C63.6977 18.8814 63.7222 18.6363 63.5993 18.4864C63.2702 18.0853 63.0962 18.3755 62.9924 19.4974ZM62.5302 21.9076C62.5262 22.431 62.5384 22.4306 62.6596 21.905C62.7866 21.3523 62.7665 21.1032 62.6074 21.259C62.5673 21.2982 62.5323 21.5902 62.5302 21.9076ZM62.4416 23.1051C62.4998 23.2933 62.9816 23.3837 63.5126 23.3064C64.1934 23.2077 64.3004 23.1512 63.8753 23.1153C63.5439 23.0872 63.0619 22.9965 62.8044 22.9139C62.4527 22.801 62.362 22.849 62.4416 23.1051ZM16.9563 70.329C17.3686 70.8314 17.74 70.8765 19.5683 70.6465C22.1074 70.3271 25.0718 69.4689 24.5372 69.2076C24.3421 69.1121 23.4877 69.1707 22.639 69.3379C21.7899 69.505 20.0561 69.6646 18.7856 69.6926L16.4754 69.7428L16.9563 70.329ZM51.5252 36.0381C51.6072 36.138 51.7666 36.1296 51.8791 36.0195C51.9916 35.9094 51.9628 35.7899 51.815 35.7544C51.6673 35.7188 51.5086 35.727 51.4616 35.773C51.4146 35.8189 51.4432 35.9382 51.5252 36.0381ZM36.9414 51.1448C36.817 51.65 36.8719 51.7785 37.2083 51.7712C37.545 51.7638 37.6239 51.6697 37.592 51.3129C37.5557 50.9069 37.2495 50.3247 37.1416 50.4565C37.1173 50.4855 37.0275 50.7955 36.9414 51.1448ZM62.5766 25.8012C62.3216 26.1127 62.1613 26.5324 62.2207 26.7341C62.3027 27.0126 62.5016 26.932 63.049 26.3999C63.5184 25.9435 64.4639 25.4715 65.7594 25.046C67.662 24.4217 68.3578 23.8621 66.704 24.2869C66.2689 24.3985 65.5408 24.5142 65.0858 24.5438C64.0729 24.6093 63.1908 25.0517 62.5766 25.8012ZM66.5298 22.8244C66.7796 23.1204 66.9055 23.1784 66.8097 22.9536C66.7135 22.7289 66.5091 22.487 66.3552 22.4155C66.2014 22.3446 66.28 22.5284 66.5298 22.8244ZM39.4635 49.1116C39.4842 49.3198 39.5937 49.488 39.7065 49.4855C40.0129 49.4789 40.0053 49.0552 39.6957 48.8834C39.4788 48.7625 39.4332 48.8072 39.4635 49.1116ZM51.4453 37.4266C51.4616 37.5909 51.5622 37.6401 51.6683 37.5362C51.7747 37.4321 51.8481 37.2125 51.8316 37.0485C51.8154 36.8842 51.7153 36.8351 51.6089 36.9392C51.5028 37.0431 51.4291 37.2623 51.4453 37.4266ZM62.6262 28.1519C62.6439 28.332 62.2705 29.3695 61.7967 30.457C60.6995 32.9756 60.3513 34.0413 60.0902 35.6801C59.9679 36.4455 59.4417 37.805 58.8364 38.9192C58.1999 40.0895 57.737 41.3052 57.6503 42.0338C57.4283 43.8988 55.4472 47.8576 52.3763 52.5721C51.6244 53.7272 51.6151 53.8075 51.9992 55.9036C52.4309 58.26 53.6059 60.4019 54.5058 60.4738C55.2531 60.5337 55.345 60.2237 54.7838 59.5397C53.9344 58.5045 52.8763 53.7152 53.3863 53.2159C53.6524 52.9555 54.4833 54.7708 54.8355 56.3832C55.014 57.1994 55.3167 58.06 55.5081 58.2954C55.699 58.5306 55.9009 59.1028 55.9562 59.5662C56.0112 60.0298 56.1663 60.407 56.3009 60.4041C56.731 60.3947 56.6542 59.6366 56.1349 58.7633C55.7882 58.1804 55.716 57.7713 55.9036 57.4536C56.054 57.1995 56.059 56.8479 55.9148 56.6722C55.7706 56.4965 55.3898 55.5551 55.0691 54.5801C54.7479 53.6051 54.3541 52.6473 54.1935 52.4515C54.0326 52.2554 53.9533 51.9402 54.0168 51.7504C54.1011 51.4986 54.3875 51.7735 55.0758 52.7667C55.6058 53.5316 56.5132 54.4942 57.1473 54.964L58.2758 55.8002L57.2793 54.5499C56.0129 52.9608 54.9602 50.577 55.1191 49.6552C55.24 48.9518 55.2464 48.9524 55.6395 49.6999C56.6864 51.6892 59.315 55.9295 59.4308 55.8161C59.6733 55.5787 59.3048 54.8076 58.0444 52.9157C56.9114 51.2155 56.0899 49.2663 56.1456 48.4131C56.1573 48.2367 57.0253 49.1798 58.0743 50.5087C59.9297 52.8593 60.0225 52.9402 61.4665 53.4614L62.9511 53.9968L64.2575 52.7237C64.9765 52.023 65.5085 51.3823 65.4408 51.2998C65.3732 51.2173 64.9685 51.1693 64.5415 51.1929C63.4612 51.2527 61.8526 50.6251 60.8485 49.7523C60.1181 49.1171 59.9911 48.8549 59.9206 47.8314C59.8374 46.6303 59.1441 44.6195 58.436 43.5257C58.1982 43.1582 58.1535 42.7825 58.3213 42.5553C58.6946 42.049 59.6361 42.7672 60.104 43.9161C60.5453 44.9993 61.0774 45.6872 61.3028 45.4665C61.3945 45.3767 61.2778 44.6551 61.0435 43.8632C60.7009 42.7054 60.4223 42.2401 59.6208 41.4886C58.476 40.4152 58.5736 39.9772 59.8611 40.408C60.3773 40.581 60.6292 40.5565 60.5553 40.3402C60.4894 40.1475 61.0106 40.204 61.7605 40.4708C64.7943 41.5506 65.8445 41.8214 65.6695 41.4805C65.5699 41.2863 64.3578 40.7052 62.9758 40.1898C60.6068 39.3062 60.4597 39.2114 60.4101 38.5371C60.3811 38.1434 60.2063 37.7483 60.0221 37.6579C59.2412 37.2764 60.3796 37.1943 61.5514 37.5472C62.8206 37.9294 62.9862 37.7432 61.8673 37.1914C61.5365 37.0281 61.276 36.8102 61.2884 36.7069C61.3172 36.4639 63.8145 37.4394 64.128 37.816C64.4193 38.1661 68.8243 39.9887 69.3518 39.9771C70.0409 39.962 69.4657 39.5907 67.2397 38.6137C63.5293 36.9849 60.5913 35.5263 60.5626 35.2989C60.495 34.7653 61.3504 34.3815 62.4138 34.4698C64.0783 34.607 67.6227 35.8762 68.7958 36.7552C70.1504 37.7698 70.8905 38.7344 70.8971 39.4947C70.9012 39.9442 71.3011 40.6102 72.2906 41.8161L73.6781 43.5072L76.5759 40.6705L83.6187 33.7763L78.0887 36.1598C76.713 34.4971 77.8266 35.0473 77.7991 35.8069C77.7843 36.2273 76.8726 36.4222 77.1462 36.9195C77.1533 35.9154 76.9598 34.0449 75.3849 33.4565C74.469 33.1139 74.5636 33.6566 73.9412 33.8222C73.4131 33.9631 72.8446 34.9182 72.4406 35.0293C71.7376 35.2231 71.5432 38.6433 70.2168 37.0449C68.8608 35.41 68.7811 35.3571 66.4643 34.5579C65.1625 34.1086 63.4802 33.6176 62.7258 33.4662C61.8736 33.2953 61.3698 33.0595 61.3952 32.844C61.4713 32.2044 63.3431 31.7327 64.9599 31.9459C65.827 32.0603 66.5747 32.1161 66.622 32.0698C66.8701 31.8269 63.9688 31.2031 63.0005 31.2914C61.9416 31.3884 61.8805 31.3582 62.0236 30.8095C62.1079 30.4877 62.5227 29.7862 62.946 29.2503C63.6354 28.377 63.96 28.1885 66.0939 27.4222C67.4027 26.9528 68.3842 26.5466 68.275 26.5205C68.0512 26.4662 62.8156 27.6067 62.6804 27.739C62.6327 27.7858 62.6079 27.9718 62.6262 28.1519ZM51.991 40.0402C51.9752 40.5024 52.0576 40.5689 52.5347 40.48C53.2443 40.3478 53.3705 39.9855 52.9051 39.4182C52.4871 38.9088 52.0179 39.2277 51.991 40.0402ZM46.0944 47.251C46.1764 47.351 46.3355 47.3423 46.448 47.2323C46.5604 47.1222 46.5319 47.003 46.3842 46.9673C46.2366 46.9317 46.0774 46.9399 46.0305 46.9858C45.9835 47.0318 46.0124 47.1511 46.0944 47.251ZM49.1679 44.2036C49.2499 44.3035 49.4451 44.3508 49.6022 44.3085C49.7591 44.266 49.8204 44.15 49.7384 44.05C49.6564 43.9501 49.461 43.9026 49.3041 43.9452C49.147 43.9874 49.0859 44.1037 49.1679 44.2036ZM66.4708 31.3264C66.4992 31.3609 66.9915 31.3635 67.5651 31.3315C68.4342 31.2826 68.5149 31.2418 68.0531 31.0864C67.5887 30.9303 66.3055 31.1248 66.4708 31.3264ZM67.285 32.737C67.5055 33.0119 69.513 33.4984 69.6942 33.321C69.7898 33.2274 68.2454 32.6804 67.4832 32.5372C67.1095 32.4673 67.0873 32.49 67.285 32.737ZM32.5158 68.5998C32.4557 69.1044 32.7282 69.1796 33.143 68.7736C33.7921 68.1382 37.1115 66.5429 40.7341 65.1257C42.0029 64.6295 42.2948 64.4286 42.4553 63.9441C42.6307 63.4136 46.6949 59.1953 47.0379 59.188C47.1092 59.1862 47.1206 59.7826 47.0634 60.5127C46.9371 62.1153 47.3049 63.4161 48.504 65.6115L49.4076 67.2656L50.514 66.1825L51.6204 65.0995L51.1669 64.2675C50.3503 62.7687 50.0108 60.3556 50.3658 58.5678C50.5485 57.6479 50.6472 56.4881 50.5849 55.9902L50.472 55.0857L48.3565 57.1565C43.9794 61.4413 39.1596 65.0188 35.2224 66.9046C33.0454 67.9473 32.5569 68.2533 32.5158 68.5998ZM58.9981 47.1407C59.1807 48.6134 58.8624 48.8018 57.9902 47.7387C57.3534 46.9626 57.2472 46.6382 57.354 45.7957L57.4821 44.7841L58.1839 45.5076C58.6444 45.9827 58.924 46.5433 58.9981 47.1407ZM61.2895 42.2035C62.1869 42.8837 64.7887 44.0114 64.998 43.8112C65.2287 43.5901 64.5711 43.1554 62.8031 42.3602C61.0113 41.5541 60.3398 41.4845 61.2895 42.2035ZM49.7689 59.359C49.8179 59.6619 49.8054 60.0649 49.7417 60.2556C49.6639 60.4878 49.6082 60.4674 49.5728 60.1936C49.4331 59.1127 49.6088 58.3656 49.7689 59.359ZM57.2167 57.189C58.1381 57.8609 58.3231 57.9333 58.4155 57.6574C58.54 57.2857 57.6657 56.6578 57.116 56.7245C56.7259 56.7718 56.7412 56.8421 57.2167 57.189Z"/>
</mask>
<path fill-rule="evenodd" clip-rule="evenodd" d="M17.8144 17.7021C17.5411 18.4114 17.4726 19.5039 17.6405 20.4719L17.7727 21.2342L16.5587 21.2033C15.3741 21.1729 15.3114 21.2048 13.9604 22.5272C12.729 23.7327 12.5742 23.9716 12.5584 24.6927C12.5456 25.2647 12.7339 25.7018 13.1968 26.1764L13.853 26.8493L15.4675 25.845C17.6741 24.4725 17.7399 24.3927 17.9207 22.8743L18.0798 21.5372L18.8564 21.4941C20.5553 21.4002 22.7013 19.195 22.3962 17.8565C22.2195 17.082 20.8996 16.2235 19.9901 16.2919C19.1464 16.3556 18.0625 17.0582 17.8144 17.7021ZM4.74431 31.3588C4.90818 31.7432 4.99157 31.7897 5.02431 31.5145C5.04999 31.2988 4.94496 31.0527 4.79097 30.9669C4.63105 30.8782 4.6112 31.0463 4.74431 31.3588ZM22.1327 14.7233C21.7769 15.3966 21.9635 16.567 22.5381 17.2674C22.6839 17.445 23.34 17.528 23.9958 17.4518C24.9934 17.3361 25.2965 17.182 25.8488 16.5102C26.2122 16.0684 26.6333 15.1966 26.7845 14.5726C27.024 13.5864 26.9756 13.3349 26.4149 12.6515C25.8495 11.9624 25.6843 11.9056 25.0781 12.1899C24.011 12.6903 22.5368 13.9582 22.1327 14.7233ZM8.27595 29.213C8.17094 30.0951 8.27394 30.4516 8.82919 31.1283C9.63811 32.1142 9.41427 32.5148 8.15496 32.3344C7.05695 32.1769 5.8076 32.8564 4.47168 34.3378C3.26497 35.6756 3.00464 36.5348 3.50468 37.5289C3.80652 38.129 3.76787 38.2373 2.97191 39.0165C2.49977 39.4786 2.00026 40.0689 1.86206 40.328C1.6406 40.7429 1.61209 40.7315 1.6241 40.2333C1.64745 39.2686 1.19394 39.996 0.865938 41.4495L0.56865 42.7668L1.93106 42.7077C2.68029 42.6753 3.62673 42.7611 4.03417 42.8985C4.47364 43.0464 4.92891 42.9971 5.1536 42.7772C5.36204 42.5732 5.73038 41.3887 5.97228 40.1449C6.45581 37.6587 6.84447 37.1698 8.42849 37.0569C9.20192 37.0018 9.20573 36.9984 8.69081 36.826C7.97107 36.5852 8.07858 35.983 9.00319 35.0779C9.56827 34.5247 9.78817 34.0498 9.96029 33.0109L10.1838 31.6619L11.5655 30.6141C13.5313 29.1231 13.6265 29.006 13.5641 28.1577C13.4879 27.1192 12.435 26.3204 11.1784 26.3479C10.3856 26.365 10.0349 26.5337 9.30406 27.2491C8.568 27.9696 8.38157 28.3257 8.27595 29.213ZM2.19728 34.8889C2.02122 35.2339 1.94689 35.5144 2.03176 35.5125C2.21294 35.5088 3.34137 33.7805 3.24194 33.6593C3.13029 33.5232 2.5386 34.2197 2.19728 34.8889ZM27.2513 11.8668C27.0038 12.7433 27.8859 13.9671 28.7518 13.9483C30.202 13.9166 31.2573 12.9566 31.4291 11.5126C31.5824 10.2245 30.8862 9.15927 29.9379 9.23065C29.1627 9.28889 27.526 10.8949 27.2513 11.8668ZM1.44176 37.4636C1.42974 37.9618 1.45825 37.9732 1.67971 37.5583C1.81789 37.2991 2.07505 36.9439 2.25122 36.7688C2.52771 36.4936 2.51233 36.4651 2.13686 36.5581C1.53961 36.7061 1.45762 36.8129 1.44176 37.4636ZM42.2011 4.08771C43.4541 4.90323 44.2327 6.00697 44.8531 7.84634C45.1958 8.86212 45.4683 9.82765 45.4587 9.992C45.4423 10.2787 43.3871 11.5397 42.4146 11.8598C42.1571 11.9448 41.547 12.3088 41.0584 12.6691C40.2924 13.2342 40.0311 13.2751 39.1567 12.9685C37.9974 12.5617 35.5215 12.2796 35.4896 12.5504C35.4774 12.6503 35.8023 12.7372 36.2111 12.7442C37.102 12.7589 39.0793 13.4583 39.0451 13.7463C39.0317 13.8587 37.9198 14.5796 36.5743 15.348C35.229 16.1165 33.4101 17.2078 32.5325 17.7728C30.7994 18.8885 25.3614 23.6281 25.2206 24.1455C25.1729 24.321 24.5706 25.1153 23.8821 25.9108C21.909 28.1908 21.0505 29.6264 18.8888 34.2606C17.7777 36.6425 16.6841 38.9398 16.4586 39.3655C16.2332 39.7913 15.8693 40.9412 15.6501 41.921C15.2591 43.6688 15.13 43.9603 14.5502 44.4059C14.3915 44.5279 14.3661 44.6527 14.4938 44.6836C15.0339 44.8141 14.464 47.5237 13.8226 47.8744C13.5023 48.0495 13.4603 48.1652 13.6784 48.2718C13.8474 48.3546 13.9349 48.7312 13.8727 49.1089C13.7644 49.7658 13.6801 49.8392 11.9339 50.7977C10.9298 51.349 10.1182 51.6671 10.1302 51.5047C10.1424 51.3424 10.0919 51.3748 10.018 51.5768C9.94416 51.7785 9.82511 51.8724 9.75343 51.785C9.68189 51.6979 9.18037 51.8029 8.63902 52.019L7.6549 52.4117L8.65585 52.3579C9.2064 52.3284 10.4002 52.1632 11.3089 51.9906L12.961 51.6772L12.0975 52.7394C10.6241 54.5521 9.14847 55.921 7.9295 56.6062C6.43067 57.4487 6.39512 57.492 7.39883 57.253C7.85729 57.144 9.25123 56.4729 10.4963 55.7618C12.608 54.5559 12.7272 54.5191 12.2724 55.2143C12.0041 55.624 11.85 56.0386 11.9297 56.1358C12.1514 56.4059 10.1254 58.2801 8.98392 58.8606C8.42634 59.1443 8.01883 59.4361 8.0786 59.5089C8.13837 59.5818 9.03248 59.2284 10.0655 58.7233C11.6217 57.9626 11.9406 57.8872 11.9274 58.285C11.9166 58.6074 11.5068 59.1609 10.6794 59.9708C9.72582 60.9043 9.49657 61.2371 9.66575 61.4433C9.81525 61.6255 10.2197 61.4494 10.9489 60.8844C11.5346 60.4306 12.0543 60.1112 12.1041 60.1745C12.1536 60.2378 12.0426 60.7712 11.8572 61.3596C11.5213 62.4261 11.6094 62.9915 12.0448 62.5652C12.171 62.4417 12.2287 62.7986 12.1731 63.3584C12.0785 64.3113 12.1577 64.4791 13.4141 65.9927C14.722 67.5684 14.755 67.59 14.7231 66.845C14.7049 66.4246 14.9633 63.7391 15.2976 60.8774C15.8846 55.8513 15.9225 55.6907 16.4076 56.1652C17.1691 56.9099 19.2436 58.3912 20.6846 59.2189C25.6128 62.05 32.5866 62.3294 38.2875 59.9238C41.1101 58.733 42.8519 57.4449 46.5822 53.7895C49.5942 50.8385 50.1321 50.2182 51.531 48.0862C54.2677 43.9141 56.32 39.0219 56.9783 35.102C58.0113 28.9499 55.7458 20.0431 52.332 16.8334C51.2124 15.781 49.4171 14.5474 48.3615 14.1049C46.9546 13.5154 46.8623 13.4138 47.3225 12.9643C47.5585 12.7339 49.4522 11.8475 51.5305 10.9946C53.6088 10.1418 55.4547 9.38211 55.632 9.30678C55.8731 9.20411 55.6879 8.84421 54.9006 7.88466C53.6983 6.41932 53.8492 6.42103 51.2053 7.83838C48.8869 9.0812 48.7013 9.08993 48.7931 7.95152C48.8939 6.69784 49.5707 0.590794 48.9662 1.18258C49.0765 -0.542166 47.4497 3.73967 47.3756 6.43708C47.326 8.24441 47.159 9.50003 46.9492 9.64148C46.5335 9.92169 46.4881 9.84881 45.3373 7.04477C44.4527 4.8888 44.3947 4.80602 43.3377 4.18148C42.1695 3.49124 41.1566 3.40736 42.2011 4.08771ZM22.5902 24.3638C22.7518 24.4029 23.1378 24.3493 23.4475 24.2449C23.8515 24.109 23.928 24.035 23.7175 23.9843C23.5559 23.9453 23.1699 23.9988 22.8602 24.1032C22.4562 24.2392 22.3796 24.3131 22.5902 24.3638ZM29.479 23.3913C31.0895 22.1263 31.5685 22.0269 32.4391 22.7772C33.0351 23.2905 33.4544 23.3927 34.4161 23.2601C35.0873 23.1678 35.6248 22.9728 35.6102 22.8269C35.5959 22.6807 35.108 22.6398 34.5256 22.7359C33.2731 22.9423 32.1029 22.2229 32.2111 21.3134C32.2697 20.8219 32.4556 20.6465 33.8553 19.7602C34.7232 19.2107 35.8109 18.6844 36.2727 18.5908C36.904 18.4628 37.1346 18.3085 37.2043 17.9671C37.3227 17.3877 38.2592 17.322 38.7022 17.8619C38.9667 18.1841 39.023 18.1605 39.1201 17.6857C39.2164 17.2134 39.3514 17.1442 40.0888 17.1885C40.6038 17.2199 41.1419 17.0481 41.4378 16.7584C42.1539 16.0573 42.2942 16.4632 41.9958 18.3735C41.85 19.3053 41.8462 19.9564 41.9869 19.8206C42.3361 19.4836 42.7255 18.4972 42.8765 17.5677C43.0103 16.7452 43.5809 16.375 43.7631 16.9924C43.8367 17.243 43.9683 17.2393 44.1663 16.9822C44.3279 16.7723 44.6166 16.5595 44.8078 16.5095C45.2879 16.3836 45.5466 17.5709 45.1762 18.1979C44.6117 19.1524 45.3997 18.9403 46.4768 17.8478C47.0674 17.2488 47.5964 16.8138 47.652 16.8816C47.7076 16.9494 47.641 17.4414 47.504 17.9751C47.1873 19.2092 47.3418 19.3793 48.3912 18.9502C49.2304 18.6074 49.2267 18.6139 48.0406 19.5843C47.2246 20.2517 46.895 20.6297 47.0082 20.7676C47.0995 20.879 47.4393 20.7108 47.7637 20.3933C48.0875 20.0763 48.6949 19.6963 49.1131 19.549C49.8155 19.3017 49.9635 19.374 51.0658 20.5037C51.7216 21.176 52.246 21.8584 52.2308 22.0201C52.2157 22.1815 51.6492 22.6107 50.9723 22.9735C49.3408 23.848 49.0274 24.4443 50.6095 23.6638C52.229 22.865 52.7636 22.9057 52.8318 23.8341C52.8599 24.2174 52.9596 24.6243 53.053 24.7382C53.1466 24.8523 53.205 25.4013 53.183 25.958C53.1607 26.515 53.2467 27.0971 53.3737 27.2518C53.5512 27.4682 53.4482 27.6403 52.928 27.9966L52.2517 28.4602L52.9613 28.5679C53.3517 28.6272 53.7817 28.5719 53.9174 28.4453C54.0527 28.3181 54.2619 28.3344 54.3825 28.4813C54.5088 28.6353 54.453 28.8187 54.2509 28.9149C54.0584 29.007 53.9149 29.2255 53.9324 29.4011C53.9497 29.5764 53.7891 29.8913 53.5752 30.1006C53.2279 30.4406 53.2751 30.5746 54.016 31.3556C54.7931 32.1745 54.821 32.2729 54.4607 32.9073C54.1525 33.4505 53.893 33.6181 53.1544 33.7514C51.7203 34.0103 52.0132 34.4317 53.5578 34.3317L54.943 34.2421L54.6685 35.3739C54.4412 36.3113 54.2836 36.5589 53.7527 36.8141C53.0148 37.1687 53.1332 37.5091 54.0349 37.6262C54.8023 37.726 54.8895 38.3137 54.2319 38.9574C53.8138 39.3666 53.7435 39.5906 53.9529 39.8459C54.1224 40.0524 54.0801 40.4945 53.8462 40.9648C53.5237 41.6137 53.3467 41.766 52.7807 41.8837C51.8785 42.0714 51.3486 42.6158 51.6777 43.0169C51.8219 43.1926 51.8458 43.6212 51.7303 43.9694C51.5508 44.5133 51.4454 44.593 50.982 44.5353C50.5124 44.4766 50.447 44.5275 50.4726 44.9303C50.4889 45.1846 50.6279 45.5482 50.7811 45.7392C51.0305 46.0486 50.9396 46.1832 49.9158 47.0199C49.2863 47.534 48.7812 48.0562 48.7936 48.1807C48.8061 48.3052 48.4746 48.7161 48.0574 49.0936C47.117 49.9451 46.9819 50.4555 47.5226 51.1145C47.7538 51.3962 47.9021 51.7481 47.8523 51.8963C47.7517 52.197 47.1973 51.9918 46.7993 51.5067C46.4905 51.1303 45.0485 51.2231 44.6151 51.6473C44.4465 51.8124 44.1352 51.8321 43.9233 51.6918C43.6881 51.536 43.4612 51.5821 43.342 51.81C43.2276 52.0272 43.0915 52.0656 43.016 51.9018C42.9444 51.7466 42.7467 51.6887 42.5764 51.7732C42.406 51.8572 42.3726 52.0555 42.5025 52.2138C42.8113 52.5902 42.2958 53.0849 41.7598 52.9266C41.4432 52.8333 41.2928 52.9307 41.1435 53.3262C40.9892 53.735 40.7757 53.8459 40.1655 53.8337C39.7362 53.8255 39.2472 53.9538 39.0787 54.1187C38.9102 54.2836 38.5637 54.3647 38.3087 54.299C37.8723 54.1862 37.8454 54.2167 37.8446 54.8156C37.8442 55.1658 37.7641 55.3548 37.6666 55.236C37.5689 55.1169 37.356 55.1499 37.1933 55.3091C37.0305 55.4685 36.7447 55.5241 36.5585 55.433C36.3725 55.3422 36.1303 55.3756 36.0205 55.5071C34.9832 56.7551 34.6663 56.385 34.8854 54.1814C35.0953 52.0689 34.8393 51.636 34.4362 53.4217C34.271 54.1543 34.1951 54.8261 34.2676 54.9144C34.34 55.0027 34.2588 55.4221 34.0871 55.8463C33.7986 56.5582 33.7341 56.6036 33.2442 56.4358C32.9525 56.3363 32.5761 56.4099 32.4076 56.5995C31.9998 57.0594 31.8152 56.783 31.774 55.6501C31.7332 54.5237 31.4165 54.4158 31.2892 55.4851C31.1935 56.289 30.5828 56.792 30.228 56.3596C30.0118 56.0961 29.7834 56.2254 29.097 56.9979C28.5767 57.5832 28.4542 57.416 28.3736 56.0101C28.2813 54.3968 28.059 54.2447 27.0887 55.1311C26.0667 56.0639 25.8839 56.0721 25.949 55.1804C25.9991 54.4955 25.989 54.484 25.628 54.8269C24.735 55.6764 23.8083 55.351 23.0523 53.9228C22.9015 53.6374 22.6264 53.5768 22.2329 53.7422C21.2489 54.1554 21.0225 53.3242 21.837 52.2891C22.2121 51.8122 22.3235 51.5927 22.0847 51.8009C21.8457 52.0093 21.3157 52.2231 20.9071 52.2762C20.2509 52.3617 20.1907 52.3214 20.3928 51.933C20.58 51.5731 20.4705 51.353 19.7913 50.724C19.0148 50.0047 18.9876 49.9219 19.3705 49.4439C19.7263 49 19.699 48.8321 19.1605 48.1626C18.82 47.7387 18.552 47.3013 18.5652 47.1904C18.6035 46.8686 19.4192 46.0396 20.0627 45.6687C20.6417 45.3349 20.6376 45.3321 19.8568 45.5238C18.7213 45.8026 18.4894 45.3102 19.0368 43.7815C19.348 42.9121 19.4104 42.3263 19.2165 42.0899C18.8218 41.6088 19.1823 40.9834 20.0523 40.6402C20.9686 40.2785 22.2727 39.4415 22.1397 39.3002C22.0827 39.2396 21.5018 39.3044 20.8487 39.4442C19.6409 39.7027 19.2937 39.4179 19.9877 38.7386C20.199 38.5317 20.5963 37.85 20.8704 37.2237C21.5511 35.6682 22.9599 33.9495 23.4609 34.0638C23.7716 34.1347 23.8034 34.1059 23.6394 33.9005C23.5229 33.7547 23.596 33.5767 23.8156 33.4721C24.3382 33.2229 24.0847 33.0056 23.1525 32.9037C22.1272 32.7916 22.0438 32.2433 23.016 32.0093C23.6824 31.8487 23.7109 31.8185 23.4192 31.5845C22.6921 31.001 23.5522 30.7556 24.9258 31.1543C25.7407 31.3908 26.3624 31.4553 26.3079 31.2971C26.2531 31.1391 25.6736 30.8518 25.02 30.6586C24.3664 30.4653 23.8145 30.2865 23.7938 30.2613C23.7065 30.1548 24.5579 28.7376 25.154 27.9972C25.6217 27.4162 25.9062 27.2281 26.1909 27.3121C26.735 27.4726 26.925 27.2954 26.8412 26.7066C26.8019 26.4299 26.9773 26 27.2316 25.7512C27.4856 25.5025 27.6796 25.1593 27.6625 24.9883C27.6457 24.8174 27.809 24.5754 28.0256 24.4504C28.2422 24.3255 28.8964 23.849 29.479 23.3913ZM37.1308 20.7959C37.2203 21.5273 37.1999 22.2171 37.085 22.3297C36.9545 22.4573 37.0602 22.5485 37.3664 22.5731C37.795 22.6072 37.8197 22.4133 37.5645 21.036C37.2098 19.1203 36.9049 18.9514 37.1308 20.7959ZM38.7046 19.6803C38.6309 20.6889 39.0483 21.0465 39.1642 20.0735C39.2157 19.6414 39.1443 19.2252 39.0057 19.148C38.841 19.0566 38.7367 19.241 38.7046 19.6803ZM28.8032 31.5905C28.5463 32.0365 28.3123 32.6013 28.2831 32.846C28.2541 33.0904 28.1102 33.408 27.9638 33.5514C27.459 34.0455 26.9418 37.9403 27.1678 39.5459C27.2922 40.4295 27.3932 41.3596 27.3921 41.6135C27.3913 41.8673 27.5179 42.2593 27.6735 42.4846C27.8291 42.71 28.2782 43.5001 28.6713 44.2399C29.0643 44.9801 29.5815 45.7268 29.8208 45.8991C30.06 46.0717 30.5143 46.4017 30.8302 46.633C31.1463 46.8641 31.7256 47.0908 32.118 47.1364C32.5102 47.1822 32.891 47.2926 32.9643 47.3819C33.0377 47.4714 33.7993 47.6193 34.6569 47.711C35.8074 47.8335 36.759 47.6865 38.2862 47.1494C40.3387 46.4281 40.3741 46.4045 42.4178 44.3698C44.1867 42.609 44.5587 42.1285 45.0413 40.9825C46.2173 38.1895 46.3108 35.2765 45.3026 32.8801C44.6428 31.3121 42.9962 29.3082 41.6345 28.4162C40.3389 27.5677 37.8878 27.0808 36.2049 27.3383C35.5219 27.4428 34.7634 27.5373 34.5193 27.5483C34.2754 27.5594 33.9587 27.6829 33.8156 27.823C33.6728 27.9629 33.4616 28.0261 33.3462 27.9638C33.2315 27.9012 32.462 28.4121 31.6365 29.0992C30.811 29.7864 30.0825 30.2834 30.0175 30.2042C29.867 30.0207 29.4006 30.5532 28.8032 31.5905ZM37.9831 23.2646C37.9573 23.6856 38.0035 23.7236 38.2494 23.4829C38.4127 23.323 38.446 23.0692 38.3231 22.9193C38.0512 22.588 38.0228 22.6171 37.9831 23.2646ZM9.9573 53.3072C11.5673 52.7657 11.9016 52.4443 10.4442 52.8392C9.81716 53.0091 9.17475 53.2769 9.01641 53.4342C8.85823 53.5917 9.28165 53.5346 9.9573 53.3072ZM37.6083 30.7963C37.6666 30.9931 38.0362 31.2632 38.4301 31.3958C39.0821 31.6155 39.1473 31.7083 39.1546 32.4313C39.1649 33.4476 38.9059 33.4374 37.8894 32.3824C37.2484 31.7172 37.1075 31.4198 37.2478 31.0303C37.4823 30.3791 37.4849 30.3775 37.6083 30.7963ZM28.5397 46.3145C28.7221 46.2307 28.8834 46.0609 28.8981 45.9378C28.9127 45.8147 28.7636 45.8834 28.5664 46.0905C28.3484 46.3196 28.338 46.4075 28.5397 46.3145ZM30.8947 48.0439C30.911 48.2082 31.0165 48.2523 31.129 48.1422C31.2414 48.0321 31.2665 47.8602 31.1845 47.7603C31.1025 47.6604 30.9972 47.6161 30.9503 47.662C30.9033 47.708 30.8784 47.8797 30.8947 48.0439ZM62.9924 19.4974L62.9 20.4965L63.9014 20.5731C65.2158 20.6739 65.3847 20.4687 64.2395 20.1636C63.3022 19.9138 63.0547 19.5108 63.5446 19.0312C63.6977 18.8814 63.7222 18.6363 63.5993 18.4864C63.2702 18.0853 63.0962 18.3755 62.9924 19.4974ZM62.5302 21.9076C62.5262 22.431 62.5384 22.4306 62.6596 21.905C62.7866 21.3523 62.7665 21.1032 62.6074 21.259C62.5673 21.2982 62.5323 21.5902 62.5302 21.9076ZM62.4416 23.1051C62.4998 23.2933 62.9816 23.3837 63.5126 23.3064C64.1934 23.2077 64.3004 23.1512 63.8753 23.1153C63.5439 23.0872 63.0619 22.9965 62.8044 22.9139C62.4527 22.801 62.362 22.849 62.4416 23.1051ZM16.9563 70.329C17.3686 70.8314 17.74 70.8765 19.5683 70.6465C22.1074 70.3271 25.0718 69.4689 24.5372 69.2076C24.3421 69.1121 23.4877 69.1707 22.639 69.3379C21.7899 69.505 20.0561 69.6646 18.7856 69.6926L16.4754 69.7428L16.9563 70.329ZM51.5252 36.0381C51.6072 36.138 51.7666 36.1296 51.8791 36.0195C51.9916 35.9094 51.9628 35.7899 51.815 35.7544C51.6673 35.7188 51.5086 35.727 51.4616 35.773C51.4146 35.8189 51.4432 35.9382 51.5252 36.0381ZM36.9414 51.1448C36.817 51.65 36.8719 51.7785 37.2083 51.7712C37.545 51.7638 37.6239 51.6697 37.592 51.3129C37.5557 50.9069 37.2495 50.3247 37.1416 50.4565C37.1173 50.4855 37.0275 50.7955 36.9414 51.1448ZM62.5766 25.8012C62.3216 26.1127 62.1613 26.5324 62.2207 26.7341C62.3027 27.0126 62.5016 26.932 63.049 26.3999C63.5184 25.9435 64.4639 25.4715 65.7594 25.046C67.662 24.4217 68.3578 23.8621 66.704 24.2869C66.2689 24.3985 65.5408 24.5142 65.0858 24.5438C64.0729 24.6093 63.1908 25.0517 62.5766 25.8012ZM66.5298 22.8244C66.7796 23.1204 66.9055 23.1784 66.8097 22.9536C66.7135 22.7289 66.5091 22.487 66.3552 22.4155C66.2014 22.3446 66.28 22.5284 66.5298 22.8244ZM39.4635 49.1116C39.4842 49.3198 39.5937 49.488 39.7065 49.4855C40.0129 49.4789 40.0053 49.0552 39.6957 48.8834C39.4788 48.7625 39.4332 48.8072 39.4635 49.1116ZM51.4453 37.4266C51.4616 37.5909 51.5622 37.6401 51.6683 37.5362C51.7747 37.4321 51.8481 37.2125 51.8316 37.0485C51.8154 36.8842 51.7153 36.8351 51.6089 36.9392C51.5028 37.0431 51.4291 37.2623 51.4453 37.4266ZM62.6262 28.1519C62.6439 28.332 62.2705 29.3695 61.7967 30.457C60.6995 32.9756 60.3513 34.0413 60.0902 35.6801C59.9679 36.4455 59.4417 37.805 58.8364 38.9192C58.1999 40.0895 57.737 41.3052 57.6503 42.0338C57.4283 43.8988 55.4472 47.8576 52.3763 52.5721C51.6244 53.7272 51.6151 53.8075 51.9992 55.9036C52.4309 58.26 53.6059 60.4019 54.5058 60.4738C55.2531 60.5337 55.345 60.2237 54.7838 59.5397C53.9344 58.5045 52.8763 53.7152 53.3863 53.2159C53.6524 52.9555 54.4833 54.7708 54.8355 56.3832C55.014 57.1994 55.3167 58.06 55.5081 58.2954C55.699 58.5306 55.9009 59.1028 55.9562 59.5662C56.0112 60.0298 56.1663 60.407 56.3009 60.4041C56.731 60.3947 56.6542 59.6366 56.1349 58.7633C55.7882 58.1804 55.716 57.7713 55.9036 57.4536C56.054 57.1995 56.059 56.8479 55.9148 56.6722C55.7706 56.4965 55.3898 55.5551 55.0691 54.5801C54.7479 53.6051 54.3541 52.6473 54.1935 52.4515C54.0326 52.2554 53.9533 51.9402 54.0168 51.7504C54.1011 51.4986 54.3875 51.7735 55.0758 52.7667C55.6058 53.5316 56.5132 54.4942 57.1473 54.964L58.2758 55.8002L57.2793 54.5499C56.0129 52.9608 54.9602 50.577 55.1191 49.6552C55.24 48.9518 55.2464 48.9524 55.6395 49.6999C56.6864 51.6892 59.315 55.9295 59.4308 55.8161C59.6733 55.5787 59.3048 54.8076 58.0444 52.9157C56.9114 51.2155 56.0899 49.2663 56.1456 48.4131C56.1573 48.2367 57.0253 49.1798 58.0743 50.5087C59.9297 52.8593 60.0225 52.9402 61.4665 53.4614L62.9511 53.9968L64.2575 52.7237C64.9765 52.023 65.5085 51.3823 65.4408 51.2998C65.3732 51.2173 64.9685 51.1693 64.5415 51.1929C63.4612 51.2527 61.8526 50.6251 60.8485 49.7523C60.1181 49.1171 59.9911 48.8549 59.9206 47.8314C59.8374 46.6303 59.1441 44.6195 58.436 43.5257C58.1982 43.1582 58.1535 42.7825 58.3213 42.5553C58.6946 42.049 59.6361 42.7672 60.104 43.9161C60.5453 44.9993 61.0774 45.6872 61.3028 45.4665C61.3945 45.3767 61.2778 44.6551 61.0435 43.8632C60.7009 42.7054 60.4223 42.2401 59.6208 41.4886C58.476 40.4152 58.5736 39.9772 59.8611 40.408C60.3773 40.581 60.6292 40.5565 60.5553 40.3402C60.4894 40.1475 61.0106 40.204 61.7605 40.4708C64.7943 41.5506 65.8445 41.8214 65.6695 41.4805C65.5699 41.2863 64.3578 40.7052 62.9758 40.1898C60.6068 39.3062 60.4597 39.2114 60.4101 38.5371C60.3811 38.1434 60.2063 37.7483 60.0221 37.6579C59.2412 37.2764 60.3796 37.1943 61.5514 37.5472C62.8206 37.9294 62.9862 37.7432 61.8673 37.1914C61.5365 37.0281 61.276 36.8102 61.2884 36.7069C61.3172 36.4639 63.8145 37.4394 64.128 37.816C64.4193 38.1661 68.8243 39.9887 69.3518 39.9771C70.0409 39.962 69.4657 39.5907 67.2397 38.6137C63.5293 36.9849 60.5913 35.5263 60.5626 35.2989C60.495 34.7653 61.3504 34.3815 62.4138 34.4698C64.0783 34.607 67.6227 35.8762 68.7958 36.7552C70.1504 37.7698 70.8905 38.7344 70.8971 39.4947C70.9012 39.9442 71.3011 40.6102 72.2906 41.8161L73.6781 43.5072L76.5759 40.6705L83.6187 33.7763L78.0887 36.1598C76.713 34.4971 77.8266 35.0473 77.7991 35.8069C77.7843 36.2273 76.8726 36.4222 77.1462 36.9195C77.1533 35.9154 76.9598 34.0449 75.3849 33.4565C74.469 33.1139 74.5636 33.6566 73.9412 33.8222C73.4131 33.9631 72.8446 34.9182 72.4406 35.0293C71.7376 35.2231 71.5432 38.6433 70.2168 37.0449C68.8608 35.41 68.7811 35.3571 66.4643 34.5579C65.1625 34.1086 63.4802 33.6176 62.7258 33.4662C61.8736 33.2953 61.3698 33.0595 61.3952 32.844C61.4713 32.2044 63.3431 31.7327 64.9599 31.9459C65.827 32.0603 66.5747 32.1161 66.622 32.0698C66.8701 31.8269 63.9688 31.2031 63.0005 31.2914C61.9416 31.3884 61.8805 31.3582 62.0236 30.8095C62.1079 30.4877 62.5227 29.7862 62.946 29.2503C63.6354 28.377 63.96 28.1885 66.0939 27.4222C67.4027 26.9528 68.3842 26.5466 68.275 26.5205C68.0512 26.4662 62.8156 27.6067 62.6804 27.739C62.6327 27.7858 62.6079 27.9718 62.6262 28.1519ZM51.991 40.0402C51.9752 40.5024 52.0576 40.5689 52.5347 40.48C53.2443 40.3478 53.3705 39.9855 52.9051 39.4182C52.4871 38.9088 52.0179 39.2277 51.991 40.0402ZM46.0944 47.251C46.1764 47.351 46.3355 47.3423 46.448 47.2323C46.5604 47.1222 46.5319 47.003 46.3842 46.9673C46.2366 46.9317 46.0774 46.9399 46.0305 46.9858C45.9835 47.0318 46.0124 47.1511 46.0944 47.251ZM49.1679 44.2036C49.2499 44.3035 49.4451 44.3508 49.6022 44.3085C49.7591 44.266 49.8204 44.15 49.7384 44.05C49.6564 43.9501 49.461 43.9026 49.3041 43.9452C49.147 43.9874 49.0859 44.1037 49.1679 44.2036ZM66.4708 31.3264C66.4992 31.3609 66.9915 31.3635 67.5651 31.3315C68.4342 31.2826 68.5149 31.2418 68.0531 31.0864C67.5887 30.9303 66.3055 31.1248 66.4708 31.3264ZM67.285 32.737C67.5055 33.0119 69.513 33.4984 69.6942 33.321C69.7898 33.2274 68.2454 32.6804 67.4832 32.5372C67.1095 32.4673 67.0873 32.49 67.285 32.737ZM32.5158 68.5998C32.4557 69.1044 32.7282 69.1796 33.143 68.7736C33.7921 68.1382 37.1115 66.5429 40.7341 65.1257C42.0029 64.6295 42.2948 64.4286 42.4553 63.9441C42.6307 63.4136 46.6949 59.1953 47.0379 59.188C47.1092 59.1862 47.1206 59.7826 47.0634 60.5127C46.9371 62.1153 47.3049 63.4161 48.504 65.6115L49.4076 67.2656L50.514 66.1825L51.6204 65.0995L51.1669 64.2675C50.3503 62.7687 50.0108 60.3556 50.3658 58.5678C50.5485 57.6479 50.6472 56.4881 50.5849 55.9902L50.472 55.0857L48.3565 57.1565C43.9794 61.4413 39.1596 65.0188 35.2224 66.9046C33.0454 67.9473 32.5569 68.2533 32.5158 68.5998ZM58.9981 47.1407C59.1807 48.6134 58.8624 48.8018 57.9902 47.7387C57.3534 46.9626 57.2472 46.6382 57.354 45.7957L57.4821 44.7841L58.1839 45.5076C58.6444 45.9827 58.924 46.5433 58.9981 47.1407ZM61.2895 42.2035C62.1869 42.8837 64.7887 44.0114 64.998 43.8112C65.2287 43.5901 64.5711 43.1554 62.8031 42.3602C61.0113 41.5541 60.3398 41.4845 61.2895 42.2035ZM49.7689 59.359C49.8179 59.6619 49.8054 60.0649 49.7417 60.2556C49.6639 60.4878 49.6082 60.4674 49.5728 60.1936C49.4331 59.1127 49.6088 58.3656 49.7689 59.359ZM57.2167 57.189C58.1381 57.8609 58.3231 57.9333 58.4155 57.6574C58.54 57.2857 57.6657 56.6578 57.116 56.7245C56.7259 56.7718 56.7412 56.8421 57.2167 57.189Z" fill="#FF1F00" stroke="white" stroke-width="6" mask="url(#path-1-inside-1_411_3025)"/>
</svg>
